{"glyphs":{"☰":{"ha":1389,"x_min":124,"x_max":1264,"o":"m 1118 564 q 1224 568 1136 564 l 1225 568 q 1254 549 1244 568 q 1264 483 1264 529 q 1232 438 1264 438 l 1117 439 l 274 431 q 161 426 186 431 l 160 426 q 133 448 142 426 q 124 517 124 469 q 154 558 124 558 q 275 556 196 556 l 1118 564 m 1118 897 q 1224 901 1136 897 l 1225 901 q 1254 882 1244 901 q 1264 817 1264 863 q 1232 771 1264 771 l 1117 772 l 274 764 q 161 760 186 764 l 160 760 q 133 781 142 760 q 124 850 124 803 q 154 892 124 892 q 275 889 196 889 l 1118 897 m 1118 231 q 1224 235 1136 231 l 1225 235 q 1254 215 1244 235 q 1264 150 1264 196 q 1232 104 1264 104 l 1117 106 l 274 97 q 161 93 186 97 l 160 93 q 133 115 142 93 q 124 183 124 136 q 154 225 124 225 q 275 222 196 222 l 1118 231 "},"☱":{"ha":1389,"x_min":124,"x_max":1264,"o":"m 1118 564 q 1224 568 1136 564 l 1225 568 q 1254 549 1244 568 q 1264 483 1264 529 q 1232 438 1264 438 l 1117 439 l 274 431 q 161 426 186 431 l 160 426 q 133 448 142 426 q 124 517 124 469 q 154 558 124 558 q 275 556 196 556 l 1118 564 m 1118 231 q 1224 235 1136 231 l 1225 235 q 1254 215 1244 235 q 1264 150 1264 196 q 1232 104 1264 104 l 1117 106 l 274 97 q 161 93 186 97 l 160 93 q 133 115 142 93 q 124 183 124 136 q 154 225 124 225 q 275 222 196 222 l 1118 231 m 1118 897 q 1224 901 1136 897 l 1225 901 q 1254 882 1244 901 q 1264 817 1264 863 q 1232 771 1264 771 l 1117 772 l 885 769 q 772 765 797 769 l 771 765 q 744 787 753 765 q 735 856 735 808 q 765 897 735 897 q 886 894 807 894 l 1118 897 m 507 892 q 613 896 525 892 l 614 896 q 643 876 633 896 q 653 811 653 857 q 621 765 653 765 l 506 767 l 274 764 q 161 760 186 764 l 160 760 q 133 781 142 760 q 124 850 124 803 q 154 892 124 892 q 275 889 196 889 l 507 892 "},"☲":{"ha":1389,"x_min":124,"x_max":1264,"o":"m 1118 897 q 1224 901 1136 897 l 1225 901 q 1254 882 1244 901 q 1264 817 1264 863 q 1232 771 1264 771 l 1117 772 l 274 764 q 161 760 186 764 l 160 760 q 133 781 142 760 q 124 850 124 803 q 154 892 124 892 q 275 889 196 889 l 1118 897 m 1118 231 q 1224 235 1136 231 l 1225 235 q 1254 215 1244 235 q 1264 150 1264 196 q 1232 104 1264 104 l 1117 106 l 274 97 q 161 93 186 97 l 160 93 q 133 115 142 93 q 124 183 124 136 q 154 225 124 225 q 275 222 196 222 l 1118 231 m 1118 564 q 1224 568 1136 564 l 1225 568 q 1254 549 1244 568 q 1264 483 1264 529 q 1232 438 1264 438 l 1117 439 l 885 436 q 772 432 797 436 l 771 432 q 744 453 753 432 q 735 522 735 475 q 765 564 735 564 q 886 561 807 561 l 1118 564 m 507 558 q 613 563 525 558 l 614 563 q 643 543 633 563 q 653 478 653 524 q 621 432 653 432 l 506 433 l 274 431 q 161 426 186 431 l 160 426 q 133 448 142 426 q 124 517 124 469 q 154 558 124 558 q 275 556 196 556 l 507 558 "},"☳":{"ha":1389,"x_min":124,"x_max":1264,"o":"m 1118 231 q 1224 235 1136 231 l 1225 235 q 1254 215 1244 235 q 1264 150 1264 196 q 1232 104 1264 104 l 1117 106 l 274 97 q 161 93 186 97 l 160 93 q 133 115 142 93 q 124 183 124 136 q 154 225 124 225 q 275 222 196 222 l 1118 231 m 1118 564 q 1224 568 1136 564 l 1225 568 q 1254 549 1244 568 q 1264 483 1264 529 q 1232 438 1264 438 l 1117 439 l 885 436 q 772 432 797 436 l 771 432 q 744 453 753 432 q 735 522 735 475 q 765 564 735 564 q 886 561 807 561 l 1118 564 m 507 558 q 613 563 525 558 l 614 563 q 643 543 633 563 q 653 478 653 524 q 621 432 653 432 l 506 433 l 274 431 q 161 426 186 431 l 160 426 q 133 448 142 426 q 124 517 124 469 q 154 558 124 558 q 275 556 196 556 l 507 558 m 1118 897 q 1224 901 1136 897 l 1225 901 q 1254 882 1244 901 q 1264 817 1264 863 q 1232 771 1264 771 l 1117 772 l 885 769 q 772 765 797 769 l 771 765 q 744 787 753 765 q 735 856 735 808 q 765 897 735 897 q 886 894 807 894 l 1118 897 m 507 892 q 613 896 525 892 l 614 896 q 643 876 633 896 q 653 811 653 857 q 621 765 653 765 l 506 767 l 274 764 q 161 760 186 764 l 160 760 q 133 781 142 760 q 124 850 124 803 q 154 892 124 892 q 275 889 196 889 l 507 892 "},"☴":{"ha":1389,"x_min":124,"x_max":1264,"o":"m 1118 231 q 1224 235 1136 231 l 1225 235 q 1254 215 1244 235 q 1264 150 1264 196 q 1232 104 1264 104 l 1117 106 l 885 103 q 772 99 797 103 l 771 99 q 744 120 753 99 q 735 189 735 142 q 765 231 735 231 q 886 228 807 228 l 1118 231 m 507 225 q 613 229 525 225 l 614 229 q 643 210 633 229 q 653 144 653 190 q 621 99 653 99 l 506 100 l 274 97 q 161 93 186 97 l 160 93 q 133 115 142 93 q 124 183 124 136 q 154 225 124 225 q 275 222 196 222 l 507 225 m 1118 564 q 1224 568 1136 564 l 1225 568 q 1254 549 1244 568 q 1264 483 1264 529 q 1232 438 1264 438 l 1117 439 l 274 431 q 161 426 186 431 l 160 426 q 133 448 142 426 q 124 517 124 469 q 154 558 124 558 q 275 556 196 556 l 1118 564 m 1118 897 q 1224 901 1136 897 l 1225 901 q 1254 882 1244 901 q 1264 817 1264 863 q 1232 771 1264 771 l 1117 772 l 274 764 q 161 760 186 764 l 160 760 q 133 781 142 760 q 124 850 124 803 q 154 892 124 892 q 275 889 196 889 l 1118 897 "},"☵":{"ha":1389,"x_min":124,"x_max":1264,"o":"m 1118 231 q 1224 235 1136 231 l 1225 235 q 1254 215 1244 235 q 1264 150 1264 196 q 1232 104 1264 104 l 1117 106 l 885 103 q 772 99 797 103 l 771 99 q 744 120 753 99 q 735 189 735 142 q 765 231 735 231 q 886 228 807 228 l 1118 231 m 507 225 q 613 229 525 225 l 614 229 q 643 210 633 229 q 653 144 653 190 q 621 99 653 99 l 506 100 l 274 97 q 161 93 186 97 l 160 93 q 133 115 142 93 q 124 183 124 136 q 154 225 124 225 q 275 222 196 222 l 507 225 m 1118 564 q 1224 568 1136 564 l 1225 568 q 1254 549 1244 568 q 1264 483 1264 529 q 1232 438 1264 438 l 1117 439 l 274 431 q 161 426 186 431 l 160 426 q 133 448 142 426 q 124 517 124 469 q 154 558 124 558 q 275 556 196 556 l 1118 564 m 1118 897 q 1224 901 1136 897 l 1225 901 q 1254 882 1244 901 q 1264 817 1264 863 q 1232 771 1264 771 l 1117 772 l 885 769 q 772 765 797 769 l 771 765 q 744 787 753 765 q 735 856 735 808 q 765 897 735 897 q 886 894 807 894 l 1118 897 m 507 892 q 613 896 525 892 l 614 896 q 643 876 633 896 q 653 811 653 857 q 621 765 653 765 l 506 767 l 274 764 q 161 760 186 764 l 160 760 q 133 781 142 760 q 124 850 124 803 q 154 892 124 892 q 275 889 196 889 l 507 892 "},"☶":{"ha":1389,"x_min":124,"x_max":1264,"o":"m 1118 564 q 1224 568 1136 564 l 1225 568 q 1254 549 1244 568 q 1264 483 1264 529 q 1232 438 1264 438 l 1117 439 l 885 436 q 772 432 797 436 l 771 432 q 744 453 753 432 q 735 522 735 475 q 765 564 735 564 q 886 561 807 561 l 1118 564 m 507 558 q 613 563 525 558 l 614 563 q 643 543 633 563 q 653 478 653 524 q 621 432 653 432 l 506 433 l 274 431 q 161 426 186 431 l 160 426 q 133 448 142 426 q 124 517 124 469 q 154 558 124 558 q 275 556 196 556 l 507 558 m 1118 231 q 1224 235 1136 231 l 1225 235 q 1254 215 1244 235 q 1264 150 1264 196 q 1232 104 1264 104 l 1117 106 l 885 103 q 772 99 797 103 l 771 99 q 744 120 753 99 q 735 189 735 142 q 765 231 735 231 q 886 228 807 228 l 1118 231 m 507 225 q 613 229 525 225 l 614 229 q 643 210 633 229 q 653 144 653 190 q 621 99 653 99 l 506 100 l 274 97 q 161 93 186 97 l 160 93 q 133 115 142 93 q 124 183 124 136 q 154 225 124 225 q 275 222 196 222 l 507 225 m 1118 897 q 1224 901 1136 897 l 1225 901 q 1254 882 1244 901 q 1264 817 1264 863 q 1232 771 1264 771 l 1117 772 l 274 764 q 161 760 186 764 l 160 760 q 133 781 142 760 q 124 850 124 803 q 154 892 124 892 q 275 889 196 889 l 1118 897 "},"☷":{"ha":1389,"x_min":124,"x_max":1264,"o":"m 1118 564 q 1224 568 1136 564 l 1225 568 q 1254 549 1244 568 q 1264 483 1264 529 q 1232 438 1264 438 l 1117 439 l 885 436 q 772 432 797 436 l 771 432 q 744 453 753 432 q 735 522 735 475 q 765 564 735 564 q 886 561 807 561 l 1118 564 m 507 558 q 613 563 525 558 l 614 563 q 643 543 633 563 q 653 478 653 524 q 621 432 653 432 l 506 433 l 274 431 q 161 426 186 431 l 160 426 q 133 448 142 426 q 124 517 124 469 q 154 558 124 558 q 275 556 196 556 l 507 558 m 1118 897 q 1224 901 1136 897 l 1225 901 q 1254 882 1244 901 q 1264 817 1264 863 q 1232 771 1264 771 l 1117 772 l 885 769 q 772 765 797 769 l 771 765 q 744 787 753 765 q 735 856 735 808 q 765 897 735 897 q 886 894 807 894 l 1118 897 m 507 892 q 613 896 525 892 l 614 896 q 643 876 633 896 q 653 811 653 857 q 621 765 653 765 l 506 767 l 274 764 q 161 760 186 764 l 160 760 q 133 781 142 760 q 124 850 124 803 q 154 892 124 892 q 275 889 196 889 l 507 892 m 1118 231 q 1224 235 1136 231 l 1225 235 q 1254 215 1244 235 q 1264 150 1264 196 q 1232 104 1264 104 l 1117 106 l 885 103 q 772 99 797 103 l 771 99 q 744 120 753 99 q 735 189 735 142 q 765 231 735 231 q 886 228 807 228 l 1118 231 m 507 225 q 613 229 525 225 l 614 229 q 643 210 633 229 q 653 144 653 190 q 621 99 653 99 l 506 100 l 274 97 q 161 93 186 97 l 160 93 q 133 115 142 93 q 124 183 124 136 q 154 225 124 225 q 275 222 196 222 l 507 225 "},"⚊":{"ha":1389,"x_min":124,"x_max":1264,"o":"m 161 426 l 160 426 q 133 448 142 426 q 124 517 124 469 q 154 558 124 558 q 275 556 196 556 q 1224 568 1140 564 l 1225 568 q 1254 549 1244 568 q 1264 483 1264 529 q 1232 438 1264 438 l 1117 439 q 161 426 182 429 "},"⚋":{"ha":1389,"x_min":124,"x_max":1264,"o":"m 772 432 l 771 432 q 744 453 753 432 q 735 522 735 475 q 765 564 735 564 q 886 561 807 561 q 1224 568 1142 564 l 1225 568 q 1254 549 1244 568 q 1264 483 1264 529 q 1232 438 1264 438 l 1117 439 q 772 432 792 435 m 161 426 l 160 426 q 133 448 142 426 q 124 517 124 469 q 154 558 124 558 q 275 556 196 556 q 613 563 531 558 l 614 563 q 643 543 633 563 q 653 478 653 524 q 621 432 653 432 l 506 433 q 161 426 181 429 "},"⚌":{"ha":1389,"x_min":124,"x_max":1264,"o":"m 161 593 l 160 593 q 133 615 142 593 q 124 683 124 636 q 154 725 124 725 q 275 722 196 722 q 1224 735 1140 731 l 1225 735 q 1254 715 1244 735 q 1264 650 1264 696 q 1232 604 1264 604 l 1117 606 q 161 593 182 596 m 161 260 l 160 260 q 133 281 142 260 q 124 350 124 303 q 154 392 124 392 q 275 389 196 389 q 1224 401 1140 397 l 1225 401 q 1254 382 1244 401 q 1264 317 1264 363 q 1232 271 1264 271 l 1117 272 q 161 260 182 263 "},"⚍":{"ha":1389,"x_min":124,"x_max":1264,"o":"m 772 599 l 771 599 q 744 620 753 599 q 735 689 735 642 q 765 731 735 731 q 886 728 807 728 q 1224 735 1142 731 l 1225 735 q 1254 715 1244 735 q 1264 650 1264 696 q 1232 604 1264 604 l 1117 606 q 772 599 792 601 m 161 593 l 160 593 q 133 615 142 593 q 124 683 124 636 q 154 725 124 725 q 275 722 196 722 q 613 729 531 725 l 614 729 q 643 710 633 729 q 653 644 653 690 q 621 599 653 599 l 506 600 q 161 593 181 596 m 161 260 l 160 260 q 133 281 142 260 q 124 350 124 303 q 154 392 124 392 q 275 389 196 389 q 1224 401 1140 397 l 1225 401 q 1254 382 1244 401 q 1264 317 1264 363 q 1232 271 1264 271 l 1117 272 q 161 260 182 263 "},"⚎":{"ha":1389,"x_min":124,"x_max":1264,"o":"m 772 265 l 771 265 q 744 287 753 265 q 735 356 735 308 q 765 397 735 397 q 886 394 807 394 q 1224 401 1142 397 l 1225 401 q 1254 382 1244 401 q 1264 317 1264 363 q 1232 271 1264 271 l 1117 272 q 772 265 792 268 m 161 260 l 160 260 q 133 281 142 260 q 124 350 124 303 q 154 392 124 392 q 275 389 196 389 q 613 396 531 392 l 614 396 q 643 376 633 396 q 653 311 653 357 q 621 265 653 265 l 506 267 q 161 260 181 263 m 161 593 l 160 593 q 133 615 142 593 q 124 683 124 636 q 154 725 124 725 q 275 722 196 722 q 1224 735 1140 731 l 1225 735 q 1254 715 1244 735 q 1264 650 1264 696 q 1232 604 1264 604 l 1117 606 q 161 593 182 596 "},"⚏":{"ha":1389,"x_min":124,"x_max":1264,"o":"m 772 599 l 771 599 q 744 620 753 599 q 735 689 735 642 q 765 731 735 731 q 886 728 807 728 q 1224 735 1142 731 l 1225 735 q 1254 715 1244 735 q 1264 650 1264 696 q 1232 604 1264 604 l 1117 606 q 772 599 792 601 m 161 593 l 160 593 q 133 615 142 593 q 124 683 124 636 q 154 725 124 725 q 275 722 196 722 q 613 729 531 725 l 614 729 q 643 710 633 729 q 653 644 653 690 q 621 599 653 599 l 506 600 q 161 593 181 596 m 772 265 l 771 265 q 744 287 753 265 q 735 356 735 308 q 765 397 735 397 q 886 394 807 394 q 1224 401 1142 397 l 1225 401 q 1254 382 1244 401 q 1264 317 1264 363 q 1232 271 1264 271 l 1117 272 q 772 265 792 268 m 161 260 l 160 260 q 133 281 142 260 q 124 350 124 303 q 154 392 124 392 q 275 389 196 389 q 613 396 531 392 l 614 396 q 643 376 633 396 q 653 311 653 357 q 621 265 653 265 l 506 267 q 161 260 181 263 "},"䷀":{"ha":1389,"x_min":124,"x_max":1264,"o":"m 1118 897 q 1224 901 1136 897 l 1225 901 q 1254 882 1244 901 q 1264 844 1264 863 q 1232 799 1264 799 l 1117 800 l 274 792 q 161 788 186 792 l 160 788 q 133 809 142 788 q 124 850 124 831 q 154 892 124 892 q 275 889 196 889 l 1118 897 m 1118 1119 q 1224 1124 1136 1119 l 1225 1124 q 1254 1104 1244 1124 q 1264 1067 1264 1085 q 1232 1021 1264 1021 l 1117 1022 l 274 1014 q 161 1010 186 1014 l 160 1010 q 133 1031 142 1010 q 124 1072 124 1053 q 154 1114 124 1114 q 275 1111 196 1111 l 1118 1119 m 1118 675 q 1224 679 1136 675 l 1225 679 q 1254 660 1244 679 q 1264 622 1264 640 q 1232 576 1264 576 l 1117 578 l 274 569 q 161 565 186 569 l 160 565 q 133 587 142 565 q 124 628 124 608 q 154 669 124 669 q 275 667 196 667 l 1118 675 m 1118 231 q 1224 235 1136 231 l 1225 235 q 1254 215 1244 235 q 1264 178 1264 196 q 1232 132 1264 132 l 1117 133 l 274 125 q 161 121 186 125 l 160 121 q 133 142 142 121 q 124 183 124 164 q 154 225 124 225 q 275 222 196 222 l 1118 231 m 1118 453 q 1224 457 1136 453 l 1225 457 q 1254 438 1244 457 q 1264 400 1264 418 q 1232 354 1264 354 l 1117 356 l 274 347 q 161 343 186 347 l 160 343 q 133 365 142 343 q 124 406 124 386 q 154 447 124 447 q 275 444 196 444 l 1118 453 m 1118 8 q 1224 13 1136 8 l 1225 13 q 1254 -7 1244 13 q 1264 -44 1264 -26 q 1232 -90 1264 -90 l 1117 -89 l 274 -97 q 161 -101 186 -97 l 160 -101 q 133 -80 142 -101 q 124 -39 124 -58 q 154 3 124 3 q 275 0 196 0 l 1118 8 "},"䷁":{"ha":1389,"x_min":124,"x_max":1264,"o":"m 1118 897 q 1224 901 1136 897 l 1225 901 q 1254 882 1244 901 q 1264 844 1264 863 q 1232 799 1264 799 l 1117 800 l 885 797 q 772 793 797 797 l 771 793 q 744 815 753 793 q 735 856 735 836 q 765 897 735 897 q 886 894 807 894 l 1118 897 m 507 892 q 613 896 525 892 l 614 896 q 643 876 633 896 q 653 839 653 857 q 621 793 653 793 l 506 794 l 274 792 q 161 788 186 792 l 160 788 q 133 809 142 788 q 124 850 124 831 q 154 892 124 892 q 275 889 196 889 l 507 892 m 1118 1119 q 1224 1124 1136 1119 l 1225 1124 q 1254 1104 1244 1124 q 1264 1067 1264 1085 q 1232 1021 1264 1021 l 1117 1022 l 885 1019 q 772 1015 797 1019 l 771 1015 q 744 1037 753 1015 q 735 1078 735 1058 q 765 1119 735 1119 q 886 1117 807 1117 l 1118 1119 m 507 1114 q 613 1118 525 1114 l 614 1118 q 643 1099 633 1118 q 653 1061 653 1079 q 621 1015 653 1015 l 506 1017 l 274 1014 q 161 1010 186 1014 l 160 1010 q 133 1031 142 1010 q 124 1072 124 1053 q 154 1114 124 1114 q 275 1111 196 1111 l 507 1114 m 1118 675 q 1224 679 1136 675 l 1225 679 q 1254 660 1244 679 q 1264 622 1264 640 q 1232 576 1264 576 l 1117 578 l 885 575 q 772 571 797 575 l 771 571 q 744 592 753 571 q 735 633 735 614 q 765 675 735 675 q 886 672 807 672 l 1118 675 m 507 669 q 613 674 525 669 l 614 674 q 643 654 633 674 q 653 617 653 635 q 621 571 653 571 l 506 572 l 274 569 q 161 565 186 569 l 160 565 q 133 587 142 565 q 124 628 124 608 q 154 669 124 669 q 275 667 196 667 l 507 669 m 1118 231 q 1224 235 1136 231 l 1225 235 q 1254 215 1244 235 q 1264 178 1264 196 q 1232 132 1264 132 l 1117 133 l 885 131 q 772 126 797 131 l 771 126 q 744 148 753 126 q 735 189 735 169 q 765 231 735 231 q 886 228 807 228 l 1118 231 m 507 225 q 613 229 525 225 l 614 229 q 643 210 633 229 q 653 172 653 190 q 621 126 653 126 l 506 128 l 274 125 q 161 121 186 125 l 160 121 q 133 142 142 121 q 124 183 124 164 q 154 225 124 225 q 275 222 196 222 l 507 225 m 1118 453 q 1224 457 1136 453 l 1225 457 q 1254 438 1244 457 q 1264 400 1264 418 q 1232 354 1264 354 l 1117 356 l 885 353 q 772 349 797 353 l 771 349 q 744 370 753 349 q 735 411 735 392 q 765 453 735 453 q 886 450 807 450 l 1118 453 m 507 447 q 613 451 525 447 l 614 451 q 643 432 633 451 q 653 394 653 413 q 621 349 653 349 l 506 350 l 274 347 q 161 343 186 347 l 160 343 q 133 365 142 343 q 124 406 124 386 q 154 447 124 447 q 275 444 196 444 l 507 447 m 1118 8 q 1224 13 1136 8 l 1225 13 q 1254 -7 1244 13 q 1264 -44 1264 -26 q 1232 -90 1264 -90 l 1117 -89 l 885 -92 q 772 -96 797 -92 l 771 -96 q 744 -74 753 -96 q 735 -33 735 -53 q 765 8 735 8 q 886 6 807 6 l 1118 8 m 507 3 q 613 7 525 3 l 614 7 q 643 -12 633 7 q 653 -50 653 -32 q 621 -96 653 -96 l 506 -94 l 274 -97 q 161 -101 186 -97 l 160 -101 q 133 -80 142 -101 q 124 -39 124 -58 q 154 3 124 3 q 275 0 196 0 l 507 3 "},"䷂":{"ha":1389,"x_min":124,"x_max":1264,"o":"m 1118 897 q 1224 901 1136 897 l 1225 901 q 1254 882 1244 901 q 1264 844 1264 863 q 1232 799 1264 799 l 1117 800 l 274 792 q 161 788 186 792 l 160 788 q 133 809 142 788 q 124 850 124 831 q 154 892 124 892 q 275 889 196 889 l 1118 897 m 1118 1119 q 1224 1124 1136 1119 l 1225 1124 q 1254 1104 1244 1124 q 1264 1067 1264 1085 q 1232 1021 1264 1021 l 1117 1022 l 885 1019 q 772 1015 797 1019 l 771 1015 q 744 1037 753 1015 q 735 1078 735 1058 q 765 1119 735 1119 q 886 1117 807 1117 l 1118 1119 m 507 1114 q 613 1118 525 1114 l 614 1118 q 643 1099 633 1118 q 653 1061 653 1079 q 621 1015 653 1015 l 506 1017 l 274 1014 q 161 1010 186 1014 l 160 1010 q 133 1031 142 1010 q 124 1072 124 1053 q 154 1114 124 1114 q 275 1111 196 1111 l 507 1114 m 1118 675 q 1224 679 1136 675 l 1225 679 q 1254 660 1244 679 q 1264 622 1264 640 q 1232 576 1264 576 l 1117 578 l 885 575 q 772 571 797 575 l 771 571 q 744 592 753 571 q 735 633 735 614 q 765 675 735 675 q 886 672 807 672 l 1118 675 m 507 669 q 613 674 525 669 l 614 674 q 643 654 633 674 q 653 617 653 635 q 621 571 653 571 l 506 572 l 274 569 q 161 565 186 569 l 160 565 q 133 587 142 565 q 124 628 124 608 q 154 669 124 669 q 275 667 196 667 l 507 669 m 1118 231 q 1224 235 1136 231 l 1225 235 q 1254 215 1244 235 q 1264 178 1264 196 q 1232 132 1264 132 l 1117 133 l 885 131 q 772 126 797 131 l 771 126 q 744 148 753 126 q 735 189 735 169 q 765 231 735 231 q 886 228 807 228 l 1118 231 m 507 225 q 613 229 525 225 l 614 229 q 643 210 633 229 q 653 172 653 190 q 621 126 653 126 l 506 128 l 274 125 q 161 121 186 125 l 160 121 q 133 142 142 121 q 124 183 124 164 q 154 225 124 225 q 275 222 196 222 l 507 225 m 1118 453 q 1224 457 1136 453 l 1225 457 q 1254 438 1244 457 q 1264 400 1264 418 q 1232 354 1264 354 l 1117 356 l 885 353 q 772 349 797 353 l 771 349 q 744 370 753 349 q 735 411 735 392 q 765 453 735 453 q 886 450 807 450 l 1118 453 m 507 447 q 613 451 525 447 l 614 451 q 643 432 633 451 q 653 394 653 413 q 621 349 653 349 l 506 350 l 274 347 q 161 343 186 347 l 160 343 q 133 365 142 343 q 124 406 124 386 q 154 447 124 447 q 275 444 196 444 l 507 447 m 1118 8 q 1224 13 1136 8 l 1225 13 q 1254 -7 1244 13 q 1264 -44 1264 -26 q 1232 -90 1264 -90 l 1117 -89 l 274 -97 q 161 -101 186 -97 l 160 -101 q 133 -80 142 -101 q 124 -39 124 -58 q 154 3 124 3 q 275 0 196 0 l 1118 8 "},"䷃":{"ha":1389,"x_min":124,"x_max":1264,"o":"m 1118 897 q 1224 901 1136 897 l 1225 901 q 1254 882 1244 901 q 1264 844 1264 863 q 1232 799 1264 799 l 1117 800 l 885 797 q 772 793 797 797 l 771 793 q 744 815 753 793 q 735 856 735 836 q 765 897 735 897 q 886 894 807 894 l 1118 897 m 507 892 q 613 896 525 892 l 614 896 q 643 876 633 896 q 653 839 653 857 q 621 793 653 793 l 506 794 l 274 792 q 161 788 186 792 l 160 788 q 133 809 142 788 q 124 850 124 831 q 154 892 124 892 q 275 889 196 889 l 507 892 m 1118 675 q 1224 679 1136 675 l 1225 679 q 1254 660 1244 679 q 1264 622 1264 640 q 1232 576 1264 576 l 1117 578 l 885 575 q 772 571 797 575 l 771 571 q 744 592 753 571 q 735 633 735 614 q 765 675 735 675 q 886 672 807 672 l 1118 675 m 507 669 q 613 674 525 669 l 614 674 q 643 654 633 674 q 653 617 653 635 q 621 571 653 571 l 506 572 l 274 569 q 161 565 186 569 l 160 565 q 133 587 142 565 q 124 628 124 608 q 154 669 124 669 q 275 667 196 667 l 507 669 m 1118 1119 q 1224 1124 1136 1119 l 1225 1124 q 1254 1104 1244 1124 q 1264 1067 1264 1085 q 1232 1021 1264 1021 l 1117 1022 l 274 1014 q 161 1010 186 1014 l 160 1010 q 133 1031 142 1010 q 124 1072 124 1053 q 154 1114 124 1114 q 275 1111 196 1111 l 1118 1119 m 1118 231 q 1224 235 1136 231 l 1225 235 q 1254 215 1244 235 q 1264 178 1264 196 q 1232 132 1264 132 l 1117 133 l 274 125 q 161 121 186 125 l 160 121 q 133 142 142 121 q 124 183 124 164 q 154 225 124 225 q 275 222 196 222 l 1118 231 m 1118 453 q 1224 457 1136 453 l 1225 457 q 1254 438 1244 457 q 1264 400 1264 418 q 1232 354 1264 354 l 1117 356 l 885 353 q 772 349 797 353 l 771 349 q 744 370 753 349 q 735 411 735 392 q 765 453 735 453 q 886 450 807 450 l 1118 453 m 507 447 q 613 451 525 447 l 614 451 q 643 432 633 451 q 653 394 653 413 q 621 349 653 349 l 506 350 l 274 347 q 161 343 186 347 l 160 343 q 133 365 142 343 q 124 406 124 386 q 154 447 124 447 q 275 444 196 444 l 507 447 m 1118 8 q 1224 13 1136 8 l 1225 13 q 1254 -7 1244 13 q 1264 -44 1264 -26 q 1232 -90 1264 -90 l 1117 -89 l 885 -92 q 772 -96 797 -92 l 771 -96 q 744 -74 753 -96 q 735 -33 735 -53 q 765 8 735 8 q 886 6 807 6 l 1118 8 m 507 3 q 613 7 525 3 l 614 7 q 643 -12 633 7 q 653 -50 653 -32 q 621 -96 653 -96 l 506 -94 l 274 -97 q 161 -101 186 -97 l 160 -101 q 133 -80 142 -101 q 124 -39 124 -58 q 154 3 124 3 q 275 0 196 0 l 507 3 "},"䷄":{"ha":1389,"x_min":124,"x_max":1264,"o":"m 1118 897 q 1224 901 1136 897 l 1225 901 q 1254 882 1244 901 q 1264 844 1264 863 q 1232 799 1264 799 l 1117 800 l 274 792 q 161 788 186 792 l 160 788 q 133 809 142 788 q 124 850 124 831 q 154 892 124 892 q 275 889 196 889 l 1118 897 m 1118 1119 q 1224 1124 1136 1119 l 1225 1124 q 1254 1104 1244 1124 q 1264 1067 1264 1085 q 1232 1021 1264 1021 l 1117 1022 l 885 1019 q 772 1015 797 1019 l 771 1015 q 744 1037 753 1015 q 735 1078 735 1058 q 765 1119 735 1119 q 886 1117 807 1117 l 1118 1119 m 507 1114 q 613 1118 525 1114 l 614 1118 q 643 1099 633 1118 q 653 1061 653 1079 q 621 1015 653 1015 l 506 1017 l 274 1014 q 161 1010 186 1014 l 160 1010 q 133 1031 142 1010 q 124 1072 124 1053 q 154 1114 124 1114 q 275 1111 196 1111 l 507 1114 m 1118 675 q 1224 679 1136 675 l 1225 679 q 1254 660 1244 679 q 1264 622 1264 640 q 1232 576 1264 576 l 1117 578 l 885 575 q 772 571 797 575 l 771 571 q 744 592 753 571 q 735 633 735 614 q 765 675 735 675 q 886 672 807 672 l 1118 675 m 507 669 q 613 674 525 669 l 614 674 q 643 654 633 674 q 653 617 653 635 q 621 571 653 571 l 506 572 l 274 569 q 161 565 186 569 l 160 565 q 133 587 142 565 q 124 628 124 608 q 154 669 124 669 q 275 667 196 667 l 507 669 m 1118 231 q 1224 235 1136 231 l 1225 235 q 1254 215 1244 235 q 1264 178 1264 196 q 1232 132 1264 132 l 1117 133 l 274 125 q 161 121 186 125 l 160 121 q 133 142 142 121 q 124 183 124 164 q 154 225 124 225 q 275 222 196 222 l 1118 231 m 1118 453 q 1224 457 1136 453 l 1225 457 q 1254 438 1244 457 q 1264 400 1264 418 q 1232 354 1264 354 l 1117 356 l 274 347 q 161 343 186 347 l 160 343 q 133 365 142 343 q 124 406 124 386 q 154 447 124 447 q 275 444 196 444 l 1118 453 m 1118 8 q 1224 13 1136 8 l 1225 13 q 1254 -7 1244 13 q 1264 -44 1264 -26 q 1232 -90 1264 -90 l 1117 -89 l 274 -97 q 161 -101 186 -97 l 160 -101 q 133 -80 142 -101 q 124 -39 124 -58 q 154 3 124 3 q 275 0 196 0 l 1118 8 "},"䷅":{"ha":1389,"x_min":124,"x_max":1264,"o":"m 1118 897 q 1224 901 1136 897 l 1225 901 q 1254 882 1244 901 q 1264 844 1264 863 q 1232 799 1264 799 l 1117 800 l 274 792 q 161 788 186 792 l 160 788 q 133 809 142 788 q 124 850 124 831 q 154 892 124 892 q 275 889 196 889 l 1118 897 m 1118 1119 q 1224 1124 1136 1119 l 1225 1124 q 1254 1104 1244 1124 q 1264 1067 1264 1085 q 1232 1021 1264 1021 l 1117 1022 l 274 1014 q 161 1010 186 1014 l 160 1010 q 133 1031 142 1010 q 124 1072 124 1053 q 154 1114 124 1114 q 275 1111 196 1111 l 1118 1119 m 1118 675 q 1224 679 1136 675 l 1225 679 q 1254 660 1244 679 q 1264 622 1264 640 q 1232 576 1264 576 l 1117 578 l 274 569 q 161 565 186 569 l 160 565 q 133 587 142 565 q 124 628 124 608 q 154 669 124 669 q 275 667 196 667 l 1118 675 m 1118 231 q 1224 235 1136 231 l 1225 235 q 1254 215 1244 235 q 1264 178 1264 196 q 1232 132 1264 132 l 1117 133 l 274 125 q 161 121 186 125 l 160 121 q 133 142 142 121 q 124 183 124 164 q 154 225 124 225 q 275 222 196 222 l 1118 231 m 1118 453 q 1224 457 1136 453 l 1225 457 q 1254 438 1244 457 q 1264 400 1264 418 q 1232 354 1264 354 l 1117 356 l 885 353 q 772 349 797 353 l 771 349 q 744 370 753 349 q 735 411 735 392 q 765 453 735 453 q 886 450 807 450 l 1118 453 m 507 447 q 613 451 525 447 l 614 451 q 643 432 633 451 q 653 394 653 413 q 621 349 653 349 l 506 350 l 274 347 q 161 343 186 347 l 160 343 q 133 365 142 343 q 124 406 124 386 q 154 447 124 447 q 275 444 196 444 l 507 447 m 1118 8 q 1224 13 1136 8 l 1225 13 q 1254 -7 1244 13 q 1264 -44 1264 -26 q 1232 -90 1264 -90 l 1117 -89 l 885 -92 q 772 -96 797 -92 l 771 -96 q 744 -74 753 -96 q 735 -33 735 -53 q 765 8 735 8 q 886 6 807 6 l 1118 8 m 507 3 q 613 7 525 3 l 614 7 q 643 -12 633 7 q 653 -50 653 -32 q 621 -96 653 -96 l 506 -94 l 274 -97 q 161 -101 186 -97 l 160 -101 q 133 -80 142 -101 q 124 -39 124 -58 q 154 3 124 3 q 275 0 196 0 l 507 3 "},"䷆":{"ha":1389,"x_min":124,"x_max":1264,"o":"m 1118 897 q 1224 901 1136 897 l 1225 901 q 1254 882 1244 901 q 1264 844 1264 863 q 1232 799 1264 799 l 1117 800 l 885 797 q 772 793 797 797 l 771 793 q 744 815 753 793 q 735 856 735 836 q 765 897 735 897 q 886 894 807 894 l 1118 897 m 507 892 q 613 896 525 892 l 614 896 q 643 876 633 896 q 653 839 653 857 q 621 793 653 793 l 506 794 l 274 792 q 161 788 186 792 l 160 788 q 133 809 142 788 q 124 850 124 831 q 154 892 124 892 q 275 889 196 889 l 507 892 m 1118 1119 q 1224 1124 1136 1119 l 1225 1124 q 1254 1104 1244 1124 q 1264 1067 1264 1085 q 1232 1021 1264 1021 l 1117 1022 l 885 1019 q 772 1015 797 1019 l 771 1015 q 744 1037 753 1015 q 735 1078 735 1058 q 765 1119 735 1119 q 886 1117 807 1117 l 1118 1119 m 507 1114 q 613 1118 525 1114 l 614 1118 q 643 1099 633 1118 q 653 1061 653 1079 q 621 1015 653 1015 l 506 1017 l 274 1014 q 161 1010 186 1014 l 160 1010 q 133 1031 142 1010 q 124 1072 124 1053 q 154 1114 124 1114 q 275 1111 196 1111 l 507 1114 m 1118 675 q 1224 679 1136 675 l 1225 679 q 1254 660 1244 679 q 1264 622 1264 640 q 1232 576 1264 576 l 1117 578 l 885 575 q 772 571 797 575 l 771 571 q 744 592 753 571 q 735 633 735 614 q 765 675 735 675 q 886 672 807 672 l 1118 675 m 507 669 q 613 674 525 669 l 614 674 q 643 654 633 674 q 653 617 653 635 q 621 571 653 571 l 506 572 l 274 569 q 161 565 186 569 l 160 565 q 133 587 142 565 q 124 628 124 608 q 154 669 124 669 q 275 667 196 667 l 507 669 m 1118 231 q 1224 235 1136 231 l 1225 235 q 1254 215 1244 235 q 1264 178 1264 196 q 1232 132 1264 132 l 1117 133 l 274 125 q 161 121 186 125 l 160 121 q 133 142 142 121 q 124 183 124 164 q 154 225 124 225 q 275 222 196 222 l 1118 231 m 1118 453 q 1224 457 1136 453 l 1225 457 q 1254 438 1244 457 q 1264 400 1264 418 q 1232 354 1264 354 l 1117 356 l 885 353 q 772 349 797 353 l 771 349 q 744 370 753 349 q 735 411 735 392 q 765 453 735 453 q 886 450 807 450 l 1118 453 m 507 447 q 613 451 525 447 l 614 451 q 643 432 633 451 q 653 394 653 413 q 621 349 653 349 l 506 350 l 274 347 q 161 343 186 347 l 160 343 q 133 365 142 343 q 124 406 124 386 q 154 447 124 447 q 275 444 196 444 l 507 447 m 1118 8 q 1224 13 1136 8 l 1225 13 q 1254 -7 1244 13 q 1264 -44 1264 -26 q 1232 -90 1264 -90 l 1117 -89 l 885 -92 q 772 -96 797 -92 l 771 -96 q 744 -74 753 -96 q 735 -33 735 -53 q 765 8 735 8 q 886 6 807 6 l 1118 8 m 507 3 q 613 7 525 3 l 614 7 q 643 -12 633 7 q 653 -50 653 -32 q 621 -96 653 -96 l 506 -94 l 274 -97 q 161 -101 186 -97 l 160 -101 q 133 -80 142 -101 q 124 -39 124 -58 q 154 3 124 3 q 275 0 196 0 l 507 3 "},"䷇":{"ha":1389,"x_min":124,"x_max":1264,"o":"m 1118 897 q 1224 901 1136 897 l 1225 901 q 1254 882 1244 901 q 1264 844 1264 863 q 1232 799 1264 799 l 1117 800 l 274 792 q 161 788 186 792 l 160 788 q 133 809 142 788 q 124 850 124 831 q 154 892 124 892 q 275 889 196 889 l 1118 897 m 1118 1119 q 1224 1124 1136 1119 l 1225 1124 q 1254 1104 1244 1124 q 1264 1067 1264 1085 q 1232 1021 1264 1021 l 1117 1022 l 885 1019 q 772 1015 797 1019 l 771 1015 q 744 1037 753 1015 q 735 1078 735 1058 q 765 1119 735 1119 q 886 1117 807 1117 l 1118 1119 m 507 1114 q 613 1118 525 1114 l 614 1118 q 643 1099 633 1118 q 653 1061 653 1079 q 621 1015 653 1015 l 506 1017 l 274 1014 q 161 1010 186 1014 l 160 1010 q 133 1031 142 1010 q 124 1072 124 1053 q 154 1114 124 1114 q 275 1111 196 1111 l 507 1114 m 1118 675 q 1224 679 1136 675 l 1225 679 q 1254 660 1244 679 q 1264 622 1264 640 q 1232 576 1264 576 l 1117 578 l 885 575 q 772 571 797 575 l 771 571 q 744 592 753 571 q 735 633 735 614 q 765 675 735 675 q 886 672 807 672 l 1118 675 m 507 669 q 613 674 525 669 l 614 674 q 643 654 633 674 q 653 617 653 635 q 621 571 653 571 l 506 572 l 274 569 q 161 565 186 569 l 160 565 q 133 587 142 565 q 124 628 124 608 q 154 669 124 669 q 275 667 196 667 l 507 669 m 1118 231 q 1224 235 1136 231 l 1225 235 q 1254 215 1244 235 q 1264 178 1264 196 q 1232 132 1264 132 l 1117 133 l 885 131 q 772 126 797 131 l 771 126 q 744 148 753 126 q 735 189 735 169 q 765 231 735 231 q 886 228 807 228 l 1118 231 m 507 225 q 613 229 525 225 l 614 229 q 643 210 633 229 q 653 172 653 190 q 621 126 653 126 l 506 128 l 274 125 q 161 121 186 125 l 160 121 q 133 142 142 121 q 124 183 124 164 q 154 225 124 225 q 275 222 196 222 l 507 225 m 1118 453 q 1224 457 1136 453 l 1225 457 q 1254 438 1244 457 q 1264 400 1264 418 q 1232 354 1264 354 l 1117 356 l 885 353 q 772 349 797 353 l 771 349 q 744 370 753 349 q 735 411 735 392 q 765 453 735 453 q 886 450 807 450 l 1118 453 m 507 447 q 613 451 525 447 l 614 451 q 643 432 633 451 q 653 394 653 413 q 621 349 653 349 l 506 350 l 274 347 q 161 343 186 347 l 160 343 q 133 365 142 343 q 124 406 124 386 q 154 447 124 447 q 275 444 196 444 l 507 447 m 1118 8 q 1224 13 1136 8 l 1225 13 q 1254 -7 1244 13 q 1264 -44 1264 -26 q 1232 -90 1264 -90 l 1117 -89 l 885 -92 q 772 -96 797 -92 l 771 -96 q 744 -74 753 -96 q 735 -33 735 -53 q 765 8 735 8 q 886 6 807 6 l 1118 8 m 507 3 q 613 7 525 3 l 614 7 q 643 -12 633 7 q 653 -50 653 -32 q 621 -96 653 -96 l 506 -94 l 274 -97 q 161 -101 186 -97 l 160 -101 q 133 -80 142 -101 q 124 -39 124 -58 q 154 3 124 3 q 275 0 196 0 l 507 3 "},"䷈":{"ha":1389,"x_min":124,"x_max":1264,"o":"m 1118 897 q 1224 901 1136 897 l 1225 901 q 1254 882 1244 901 q 1264 844 1264 863 q 1232 799 1264 799 l 1117 800 l 274 792 q 161 788 186 792 l 160 788 q 133 809 142 788 q 124 850 124 831 q 154 892 124 892 q 275 889 196 889 l 1118 897 m 1118 1119 q 1224 1124 1136 1119 l 1225 1124 q 1254 1104 1244 1124 q 1264 1067 1264 1085 q 1232 1021 1264 1021 l 1117 1022 l 274 1014 q 161 1010 186 1014 l 160 1010 q 133 1031 142 1010 q 124 1072 124 1053 q 154 1114 124 1114 q 275 1111 196 1111 l 1118 1119 m 1118 675 q 1224 679 1136 675 l 1225 679 q 1254 660 1244 679 q 1264 622 1264 640 q 1232 576 1264 576 l 1117 578 l 885 575 q 772 571 797 575 l 771 571 q 744 592 753 571 q 735 633 735 614 q 765 675 735 675 q 886 672 807 672 l 1118 675 m 507 669 q 613 674 525 669 l 614 674 q 643 654 633 674 q 653 617 653 635 q 621 571 653 571 l 506 572 l 274 569 q 161 565 186 569 l 160 565 q 133 587 142 565 q 124 628 124 608 q 154 669 124 669 q 275 667 196 667 l 507 669 m 1118 231 q 1224 235 1136 231 l 1225 235 q 1254 215 1244 235 q 1264 178 1264 196 q 1232 132 1264 132 l 1117 133 l 274 125 q 161 121 186 125 l 160 121 q 133 142 142 121 q 124 183 124 164 q 154 225 124 225 q 275 222 196 222 l 1118 231 m 1118 453 q 1224 457 1136 453 l 1225 457 q 1254 438 1244 457 q 1264 400 1264 418 q 1232 354 1264 354 l 1117 356 l 274 347 q 161 343 186 347 l 160 343 q 133 365 142 343 q 124 406 124 386 q 154 447 124 447 q 275 444 196 444 l 1118 453 m 1118 8 q 1224 13 1136 8 l 1225 13 q 1254 -7 1244 13 q 1264 -44 1264 -26 q 1232 -90 1264 -90 l 1117 -89 l 274 -97 q 161 -101 186 -97 l 160 -101 q 133 -80 142 -101 q 124 -39 124 -58 q 154 3 124 3 q 275 0 196 0 l 1118 8 "},"䷉":{"ha":1389,"x_min":124,"x_max":1264,"o":"m 1118 897 q 1224 901 1136 897 l 1225 901 q 1254 882 1244 901 q 1264 844 1264 863 q 1232 799 1264 799 l 1117 800 l 274 792 q 161 788 186 792 l 160 788 q 133 809 142 788 q 124 850 124 831 q 154 892 124 892 q 275 889 196 889 l 1118 897 m 1118 1119 q 1224 1124 1136 1119 l 1225 1124 q 1254 1104 1244 1124 q 1264 1067 1264 1085 q 1232 1021 1264 1021 l 1117 1022 l 274 1014 q 161 1010 186 1014 l 160 1010 q 133 1031 142 1010 q 124 1072 124 1053 q 154 1114 124 1114 q 275 1111 196 1111 l 1118 1119 m 1118 675 q 1224 679 1136 675 l 1225 679 q 1254 660 1244 679 q 1264 622 1264 640 q 1232 576 1264 576 l 1117 578 l 274 569 q 161 565 186 569 l 160 565 q 133 587 142 565 q 124 628 124 608 q 154 669 124 669 q 275 667 196 667 l 1118 675 m 1118 453 q 1224 457 1136 453 l 1225 457 q 1254 438 1244 457 q 1264 400 1264 418 q 1232 354 1264 354 l 1117 356 l 885 353 q 772 349 797 353 l 771 349 q 744 370 753 349 q 735 411 735 392 q 765 453 735 453 q 886 450 807 450 l 1118 453 m 507 447 q 613 451 525 447 l 614 451 q 643 432 633 451 q 653 394 653 413 q 621 349 653 349 l 506 350 l 274 347 q 161 343 186 347 l 160 343 q 133 365 142 343 q 124 406 124 386 q 154 447 124 447 q 275 444 196 444 l 507 447 m 1118 8 q 1224 13 1136 8 l 1225 13 q 1254 -7 1244 13 q 1264 -44 1264 -26 q 1232 -90 1264 -90 l 1117 -89 l 274 -97 q 161 -101 186 -97 l 160 -101 q 133 -80 142 -101 q 124 -39 124 -58 q 154 3 124 3 q 275 0 196 0 l 1118 8 m 1118 231 q 1224 235 1136 231 l 1225 235 q 1254 215 1244 235 q 1264 178 1264 196 q 1232 132 1264 132 l 1117 133 l 274 125 q 161 121 186 125 l 160 121 q 133 142 142 121 q 124 183 124 164 q 154 225 124 225 q 275 222 196 222 l 1118 231 "},"䷊":{"ha":1389,"x_min":124,"x_max":1264,"o":"m 1118 897 q 1224 901 1136 897 l 1225 901 q 1254 882 1244 901 q 1264 844 1264 863 q 1232 799 1264 799 l 1117 800 l 885 797 q 772 793 797 797 l 771 793 q 744 815 753 793 q 735 856 735 836 q 765 897 735 897 q 886 894 807 894 l 1118 897 m 507 892 q 613 896 525 892 l 614 896 q 643 876 633 896 q 653 839 653 857 q 621 793 653 793 l 506 794 l 274 792 q 161 788 186 792 l 160 788 q 133 809 142 788 q 124 850 124 831 q 154 892 124 892 q 275 889 196 889 l 507 892 m 1118 1119 q 1224 1124 1136 1119 l 1225 1124 q 1254 1104 1244 1124 q 1264 1067 1264 1085 q 1232 1021 1264 1021 l 1117 1022 l 885 1019 q 772 1015 797 1019 l 771 1015 q 744 1037 753 1015 q 735 1078 735 1058 q 765 1119 735 1119 q 886 1117 807 1117 l 1118 1119 m 507 1114 q 613 1118 525 1114 l 614 1118 q 643 1099 633 1118 q 653 1061 653 1079 q 621 1015 653 1015 l 506 1017 l 274 1014 q 161 1010 186 1014 l 160 1010 q 133 1031 142 1010 q 124 1072 124 1053 q 154 1114 124 1114 q 275 1111 196 1111 l 507 1114 m 1118 675 q 1224 679 1136 675 l 1225 679 q 1254 660 1244 679 q 1264 622 1264 640 q 1232 576 1264 576 l 1117 578 l 885 575 q 772 571 797 575 l 771 571 q 744 592 753 571 q 735 633 735 614 q 765 675 735 675 q 886 672 807 672 l 1118 675 m 507 669 q 613 674 525 669 l 614 674 q 643 654 633 674 q 653 617 653 635 q 621 571 653 571 l 506 572 l 274 569 q 161 565 186 569 l 160 565 q 133 587 142 565 q 124 628 124 608 q 154 669 124 669 q 275 667 196 667 l 507 669 m 1118 231 q 1224 235 1136 231 l 1225 235 q 1254 215 1244 235 q 1264 178 1264 196 q 1232 132 1264 132 l 1117 133 l 274 125 q 161 121 186 125 l 160 121 q 133 142 142 121 q 124 183 124 164 q 154 225 124 225 q 275 222 196 222 l 1118 231 m 1118 453 q 1224 457 1136 453 l 1225 457 q 1254 438 1244 457 q 1264 400 1264 418 q 1232 354 1264 354 l 1117 356 l 274 347 q 161 343 186 347 l 160 343 q 133 365 142 343 q 124 406 124 386 q 154 447 124 447 q 275 444 196 444 l 1118 453 m 1118 8 q 1224 13 1136 8 l 1225 13 q 1254 -7 1244 13 q 1264 -44 1264 -26 q 1232 -90 1264 -90 l 1117 -89 l 274 -97 q 161 -101 186 -97 l 160 -101 q 133 -80 142 -101 q 124 -39 124 -58 q 154 3 124 3 q 275 0 196 0 l 1118 8 "},"䷋":{"ha":1389,"x_min":124,"x_max":1264,"o":"m 1118 897 q 1224 901 1136 897 l 1225 901 q 1254 882 1244 901 q 1264 844 1264 863 q 1232 799 1264 799 l 1117 800 l 274 792 q 161 788 186 792 l 160 788 q 133 809 142 788 q 124 850 124 831 q 154 892 124 892 q 275 889 196 889 l 1118 897 m 1118 1119 q 1224 1124 1136 1119 l 1225 1124 q 1254 1104 1244 1124 q 1264 1067 1264 1085 q 1232 1021 1264 1021 l 1117 1022 l 274 1014 q 161 1010 186 1014 l 160 1010 q 133 1031 142 1010 q 124 1072 124 1053 q 154 1114 124 1114 q 275 1111 196 1111 l 1118 1119 m 1118 675 q 1224 679 1136 675 l 1225 679 q 1254 660 1244 679 q 1264 622 1264 640 q 1232 576 1264 576 l 1117 578 l 274 569 q 161 565 186 569 l 160 565 q 133 587 142 565 q 124 628 124 608 q 154 669 124 669 q 275 667 196 667 l 1118 675 m 1118 231 q 1224 235 1136 231 l 1225 235 q 1254 215 1244 235 q 1264 178 1264 196 q 1232 132 1264 132 l 1117 133 l 885 131 q 772 126 797 131 l 771 126 q 744 148 753 126 q 735 189 735 169 q 765 231 735 231 q 886 228 807 228 l 1118 231 m 507 225 q 613 229 525 225 l 614 229 q 643 210 633 229 q 653 172 653 190 q 621 126 653 126 l 506 128 l 274 125 q 161 121 186 125 l 160 121 q 133 142 142 121 q 124 183 124 164 q 154 225 124 225 q 275 222 196 222 l 507 225 m 1118 453 q 1224 457 1136 453 l 1225 457 q 1254 438 1244 457 q 1264 400 1264 418 q 1232 354 1264 354 l 1117 356 l 885 353 q 772 349 797 353 l 771 349 q 744 370 753 349 q 735 411 735 392 q 765 453 735 453 q 886 450 807 450 l 1118 453 m 507 447 q 613 451 525 447 l 614 451 q 643 432 633 451 q 653 394 653 413 q 621 349 653 349 l 506 350 l 274 347 q 161 343 186 347 l 160 343 q 133 365 142 343 q 124 406 124 386 q 154 447 124 447 q 275 444 196 444 l 507 447 m 1118 8 q 1224 13 1136 8 l 1225 13 q 1254 -7 1244 13 q 1264 -44 1264 -26 q 1232 -90 1264 -90 l 1117 -89 l 885 -92 q 772 -96 797 -92 l 771 -96 q 744 -74 753 -96 q 735 -33 735 -53 q 765 8 735 8 q 886 6 807 6 l 1118 8 m 507 3 q 613 7 525 3 l 614 7 q 643 -12 633 7 q 653 -50 653 -32 q 621 -96 653 -96 l 506 -94 l 274 -97 q 161 -101 186 -97 l 160 -101 q 133 -80 142 -101 q 124 -39 124 -58 q 154 3 124 3 q 275 0 196 0 l 507 3 "},"䷌":{"ha":1389,"x_min":124,"x_max":1264,"o":"m 1118 897 q 1224 901 1136 897 l 1225 901 q 1254 882 1244 901 q 1264 844 1264 863 q 1232 799 1264 799 l 1117 800 l 274 792 q 161 788 186 792 l 160 788 q 133 809 142 788 q 124 850 124 831 q 154 892 124 892 q 275 889 196 889 l 1118 897 m 1118 1119 q 1224 1124 1136 1119 l 1225 1124 q 1254 1104 1244 1124 q 1264 1067 1264 1085 q 1232 1021 1264 1021 l 1117 1022 l 274 1014 q 161 1010 186 1014 l 160 1010 q 133 1031 142 1010 q 124 1072 124 1053 q 154 1114 124 1114 q 275 1111 196 1111 l 1118 1119 m 1118 675 q 1224 679 1136 675 l 1225 679 q 1254 660 1244 679 q 1264 622 1264 640 q 1232 576 1264 576 l 1117 578 l 274 569 q 161 565 186 569 l 160 565 q 133 587 142 565 q 124 628 124 608 q 154 669 124 669 q 275 667 196 667 l 1118 675 m 1118 453 q 1224 457 1136 453 l 1225 457 q 1254 438 1244 457 q 1264 400 1264 418 q 1232 354 1264 354 l 1117 356 l 274 347 q 161 343 186 347 l 160 343 q 133 365 142 343 q 124 406 124 386 q 154 447 124 447 q 275 444 196 444 l 1118 453 m 1118 8 q 1224 13 1136 8 l 1225 13 q 1254 -7 1244 13 q 1264 -44 1264 -26 q 1232 -90 1264 -90 l 1117 -89 l 274 -97 q 161 -101 186 -97 l 160 -101 q 133 -80 142 -101 q 124 -39 124 -58 q 154 3 124 3 q 275 0 196 0 l 1118 8 m 1118 231 q 1224 235 1136 231 l 1225 235 q 1254 215 1244 235 q 1264 178 1264 196 q 1232 132 1264 132 l 1117 133 l 885 131 q 772 126 797 131 l 771 126 q 744 148 753 126 q 735 189 735 169 q 765 231 735 231 q 886 228 807 228 l 1118 231 m 507 225 q 613 229 525 225 l 614 229 q 643 210 633 229 q 653 172 653 190 q 621 126 653 126 l 506 128 l 274 125 q 161 121 186 125 l 160 121 q 133 142 142 121 q 124 183 124 164 q 154 225 124 225 q 275 222 196 222 l 507 225 "},"䷍":{"ha":1389,"x_min":124,"x_max":1264,"o":"m 1118 1119 q 1224 1124 1136 1119 l 1225 1124 q 1254 1104 1244 1124 q 1264 1067 1264 1085 q 1232 1021 1264 1021 l 1117 1022 l 274 1014 q 161 1010 186 1014 l 160 1010 q 133 1031 142 1010 q 124 1072 124 1053 q 154 1114 124 1114 q 275 1111 196 1111 l 1118 1119 m 1118 675 q 1224 679 1136 675 l 1225 679 q 1254 660 1244 679 q 1264 622 1264 640 q 1232 576 1264 576 l 1117 578 l 274 569 q 161 565 186 569 l 160 565 q 133 587 142 565 q 124 628 124 608 q 154 669 124 669 q 275 667 196 667 l 1118 675 m 1118 897 q 1224 901 1136 897 l 1225 901 q 1254 882 1244 901 q 1264 844 1264 863 q 1232 799 1264 799 l 1117 800 l 885 797 q 772 793 797 797 l 771 793 q 744 815 753 793 q 735 856 735 836 q 765 897 735 897 q 886 894 807 894 l 1118 897 m 507 892 q 613 896 525 892 l 614 896 q 643 876 633 896 q 653 839 653 857 q 621 793 653 793 l 506 794 l 274 792 q 161 788 186 792 l 160 788 q 133 809 142 788 q 124 850 124 831 q 154 892 124 892 q 275 889 196 889 l 507 892 m 1118 231 q 1224 235 1136 231 l 1225 235 q 1254 215 1244 235 q 1264 178 1264 196 q 1232 132 1264 132 l 1117 133 l 274 125 q 161 121 186 125 l 160 121 q 133 142 142 121 q 124 183 124 164 q 154 225 124 225 q 275 222 196 222 l 1118 231 m 1118 453 q 1224 457 1136 453 l 1225 457 q 1254 438 1244 457 q 1264 400 1264 418 q 1232 354 1264 354 l 1117 356 l 274 347 q 161 343 186 347 l 160 343 q 133 365 142 343 q 124 406 124 386 q 154 447 124 447 q 275 444 196 444 l 1118 453 m 1118 8 q 1224 13 1136 8 l 1225 13 q 1254 -7 1244 13 q 1264 -44 1264 -26 q 1232 -90 1264 -90 l 1117 -89 l 274 -97 q 161 -101 186 -97 l 160 -101 q 133 -80 142 -101 q 124 -39 124 -58 q 154 3 124 3 q 275 0 196 0 l 1118 8 "},"䷎":{"ha":1389,"x_min":124,"x_max":1264,"o":"m 1118 897 q 1224 901 1136 897 l 1225 901 q 1254 882 1244 901 q 1264 844 1264 863 q 1232 799 1264 799 l 1117 800 l 885 797 q 772 793 797 797 l 771 793 q 744 815 753 793 q 735 856 735 836 q 765 897 735 897 q 886 894 807 894 l 1118 897 m 507 892 q 613 896 525 892 l 614 896 q 643 876 633 896 q 653 839 653 857 q 621 793 653 793 l 506 794 l 274 792 q 161 788 186 792 l 160 788 q 133 809 142 788 q 124 850 124 831 q 154 892 124 892 q 275 889 196 889 l 507 892 m 1118 1119 q 1224 1124 1136 1119 l 1225 1124 q 1254 1104 1244 1124 q 1264 1067 1264 1085 q 1232 1021 1264 1021 l 1117 1022 l 885 1019 q 772 1015 797 1019 l 771 1015 q 744 1037 753 1015 q 735 1078 735 1058 q 765 1119 735 1119 q 886 1117 807 1117 l 1118 1119 m 507 1114 q 613 1118 525 1114 l 614 1118 q 643 1099 633 1118 q 653 1061 653 1079 q 621 1015 653 1015 l 506 1017 l 274 1014 q 161 1010 186 1014 l 160 1010 q 133 1031 142 1010 q 124 1072 124 1053 q 154 1114 124 1114 q 275 1111 196 1111 l 507 1114 m 1118 675 q 1224 679 1136 675 l 1225 679 q 1254 660 1244 679 q 1264 622 1264 640 q 1232 576 1264 576 l 1117 578 l 885 575 q 772 571 797 575 l 771 571 q 744 592 753 571 q 735 633 735 614 q 765 675 735 675 q 886 672 807 672 l 1118 675 m 507 669 q 613 674 525 669 l 614 674 q 643 654 633 674 q 653 617 653 635 q 621 571 653 571 l 506 572 l 274 569 q 161 565 186 569 l 160 565 q 133 587 142 565 q 124 628 124 608 q 154 669 124 669 q 275 667 196 667 l 507 669 m 1118 231 q 1224 235 1136 231 l 1225 235 q 1254 215 1244 235 q 1264 178 1264 196 q 1232 132 1264 132 l 1117 133 l 885 131 q 772 126 797 131 l 771 126 q 744 148 753 126 q 735 189 735 169 q 765 231 735 231 q 886 228 807 228 l 1118 231 m 507 225 q 613 229 525 225 l 614 229 q 643 210 633 229 q 653 172 653 190 q 621 126 653 126 l 506 128 l 274 125 q 161 121 186 125 l 160 121 q 133 142 142 121 q 124 183 124 164 q 154 225 124 225 q 275 222 196 222 l 507 225 m 1118 8 q 1224 13 1136 8 l 1225 13 q 1254 -7 1244 13 q 1264 -44 1264 -26 q 1232 -90 1264 -90 l 1117 -89 l 885 -92 q 772 -96 797 -92 l 771 -96 q 744 -74 753 -96 q 735 -33 735 -53 q 765 8 735 8 q 886 6 807 6 l 1118 8 m 507 3 q 613 7 525 3 l 614 7 q 643 -12 633 7 q 653 -50 653 -32 q 621 -96 653 -96 l 506 -94 l 274 -97 q 161 -101 186 -97 l 160 -101 q 133 -80 142 -101 q 124 -39 124 -58 q 154 3 124 3 q 275 0 196 0 l 507 3 m 1118 453 q 1224 457 1136 453 l 1225 457 q 1254 438 1244 457 q 1264 400 1264 418 q 1232 354 1264 354 l 1117 356 l 274 347 q 161 343 186 347 l 160 343 q 133 365 142 343 q 124 406 124 386 q 154 447 124 447 q 275 444 196 444 l 1118 453 "},"䷏":{"ha":1389,"x_min":124,"x_max":1264,"o":"m 1118 897 q 1224 901 1136 897 l 1225 901 q 1254 882 1244 901 q 1264 844 1264 863 q 1232 799 1264 799 l 1117 800 l 885 797 q 772 793 797 797 l 771 793 q 744 815 753 793 q 735 856 735 836 q 765 897 735 897 q 886 894 807 894 l 1118 897 m 507 892 q 613 896 525 892 l 614 896 q 643 876 633 896 q 653 839 653 857 q 621 793 653 793 l 506 794 l 274 792 q 161 788 186 792 l 160 788 q 133 809 142 788 q 124 850 124 831 q 154 892 124 892 q 275 889 196 889 l 507 892 m 1118 1119 q 1224 1124 1136 1119 l 1225 1124 q 1254 1104 1244 1124 q 1264 1067 1264 1085 q 1232 1021 1264 1021 l 1117 1022 l 885 1019 q 772 1015 797 1019 l 771 1015 q 744 1037 753 1015 q 735 1078 735 1058 q 765 1119 735 1119 q 886 1117 807 1117 l 1118 1119 m 507 1114 q 613 1118 525 1114 l 614 1118 q 643 1099 633 1118 q 653 1061 653 1079 q 621 1015 653 1015 l 506 1017 l 274 1014 q 161 1010 186 1014 l 160 1010 q 133 1031 142 1010 q 124 1072 124 1053 q 154 1114 124 1114 q 275 1111 196 1111 l 507 1114 m 1118 675 q 1224 679 1136 675 l 1225 679 q 1254 660 1244 679 q 1264 622 1264 640 q 1232 576 1264 576 l 1117 578 l 274 569 q 161 565 186 569 l 160 565 q 133 587 142 565 q 124 628 124 608 q 154 669 124 669 q 275 667 196 667 l 1118 675 m 1118 231 q 1224 235 1136 231 l 1225 235 q 1254 215 1244 235 q 1264 178 1264 196 q 1232 132 1264 132 l 1117 133 l 885 131 q 772 126 797 131 l 771 126 q 744 148 753 126 q 735 189 735 169 q 765 231 735 231 q 886 228 807 228 l 1118 231 m 507 225 q 613 229 525 225 l 614 229 q 643 210 633 229 q 653 172 653 190 q 621 126 653 126 l 506 128 l 274 125 q 161 121 186 125 l 160 121 q 133 142 142 121 q 124 183 124 164 q 154 225 124 225 q 275 222 196 222 l 507 225 m 1118 453 q 1224 457 1136 453 l 1225 457 q 1254 438 1244 457 q 1264 400 1264 418 q 1232 354 1264 354 l 1117 356 l 885 353 q 772 349 797 353 l 771 349 q 744 370 753 349 q 735 411 735 392 q 765 453 735 453 q 886 450 807 450 l 1118 453 m 507 447 q 613 451 525 447 l 614 451 q 643 432 633 451 q 653 394 653 413 q 621 349 653 349 l 506 350 l 274 347 q 161 343 186 347 l 160 343 q 133 365 142 343 q 124 406 124 386 q 154 447 124 447 q 275 444 196 444 l 507 447 m 1118 8 q 1224 13 1136 8 l 1225 13 q 1254 -7 1244 13 q 1264 -44 1264 -26 q 1232 -90 1264 -90 l 1117 -89 l 885 -92 q 772 -96 797 -92 l 771 -96 q 744 -74 753 -96 q 735 -33 735 -53 q 765 8 735 8 q 886 6 807 6 l 1118 8 m 507 3 q 613 7 525 3 l 614 7 q 643 -12 633 7 q 653 -50 653 -32 q 621 -96 653 -96 l 506 -94 l 274 -97 q 161 -101 186 -97 l 160 -101 q 133 -80 142 -101 q 124 -39 124 -58 q 154 3 124 3 q 275 0 196 0 l 507 3 "},"䷐":{"ha":1389,"x_min":124,"x_max":1264,"o":"m 1118 1119 q 1224 1124 1136 1119 l 1225 1124 q 1254 1104 1244 1124 q 1264 1067 1264 1085 q 1232 1021 1264 1021 l 1117 1022 l 885 1019 q 772 1015 797 1019 l 771 1015 q 744 1037 753 1015 q 735 1078 735 1058 q 765 1119 735 1119 q 886 1117 807 1117 l 1118 1119 m 507 1114 q 613 1118 525 1114 l 614 1118 q 643 1099 633 1118 q 653 1061 653 1079 q 621 1015 653 1015 l 506 1017 l 274 1014 q 161 1010 186 1014 l 160 1010 q 133 1031 142 1010 q 124 1072 124 1053 q 154 1114 124 1114 q 275 1111 196 1111 l 507 1114 m 1118 675 q 1224 679 1136 675 l 1225 679 q 1254 660 1244 679 q 1264 622 1264 640 q 1232 576 1264 576 l 1117 578 l 274 569 q 161 565 186 569 l 160 565 q 133 587 142 565 q 124 628 124 608 q 154 669 124 669 q 275 667 196 667 l 1118 675 m 1118 897 q 1224 901 1136 897 l 1225 901 q 1254 882 1244 901 q 1264 844 1264 863 q 1232 799 1264 799 l 1117 800 l 274 792 q 161 788 186 792 l 160 788 q 133 809 142 788 q 124 850 124 831 q 154 892 124 892 q 275 889 196 889 l 1118 897 m 1118 231 q 1224 235 1136 231 l 1225 235 q 1254 215 1244 235 q 1264 178 1264 196 q 1232 132 1264 132 l 1117 133 l 885 131 q 772 126 797 131 l 771 126 q 744 148 753 126 q 735 189 735 169 q 765 231 735 231 q 886 228 807 228 l 1118 231 m 507 225 q 613 229 525 225 l 614 229 q 643 210 633 229 q 653 172 653 190 q 621 126 653 126 l 506 128 l 274 125 q 161 121 186 125 l 160 121 q 133 142 142 121 q 124 183 124 164 q 154 225 124 225 q 275 222 196 222 l 507 225 m 1118 453 q 1224 457 1136 453 l 1225 457 q 1254 438 1244 457 q 1264 400 1264 418 q 1232 354 1264 354 l 1117 356 l 885 353 q 772 349 797 353 l 771 349 q 744 370 753 349 q 735 411 735 392 q 765 453 735 453 q 886 450 807 450 l 1118 453 m 507 447 q 613 451 525 447 l 614 451 q 643 432 633 451 q 653 394 653 413 q 621 349 653 349 l 506 350 l 274 347 q 161 343 186 347 l 160 343 q 133 365 142 343 q 124 406 124 386 q 154 447 124 447 q 275 444 196 444 l 507 447 m 1118 8 q 1224 13 1136 8 l 1225 13 q 1254 -7 1244 13 q 1264 -44 1264 -26 q 1232 -90 1264 -90 l 1117 -89 l 274 -97 q 161 -101 186 -97 l 160 -101 q 133 -80 142 -101 q 124 -39 124 -58 q 154 3 124 3 q 275 0 196 0 l 1118 8 "},"䷑":{"ha":1389,"x_min":124,"x_max":1264,"o":"m 1118 897 q 1224 901 1136 897 l 1225 901 q 1254 882 1244 901 q 1264 844 1264 863 q 1232 799 1264 799 l 1117 800 l 885 797 q 772 793 797 797 l 771 793 q 744 815 753 793 q 735 856 735 836 q 765 897 735 897 q 886 894 807 894 l 1118 897 m 507 892 q 613 896 525 892 l 614 896 q 643 876 633 896 q 653 839 653 857 q 621 793 653 793 l 506 794 l 274 792 q 161 788 186 792 l 160 788 q 133 809 142 788 q 124 850 124 831 q 154 892 124 892 q 275 889 196 889 l 507 892 m 1118 675 q 1224 679 1136 675 l 1225 679 q 1254 660 1244 679 q 1264 622 1264 640 q 1232 576 1264 576 l 1117 578 l 885 575 q 772 571 797 575 l 771 571 q 744 592 753 571 q 735 633 735 614 q 765 675 735 675 q 886 672 807 672 l 1118 675 m 507 669 q 613 674 525 669 l 614 674 q 643 654 633 674 q 653 617 653 635 q 621 571 653 571 l 506 572 l 274 569 q 161 565 186 569 l 160 565 q 133 587 142 565 q 124 628 124 608 q 154 669 124 669 q 275 667 196 667 l 507 669 m 1118 1119 q 1224 1124 1136 1119 l 1225 1124 q 1254 1104 1244 1124 q 1264 1067 1264 1085 q 1232 1021 1264 1021 l 1117 1022 l 274 1014 q 161 1010 186 1014 l 160 1010 q 133 1031 142 1010 q 124 1072 124 1053 q 154 1114 124 1114 q 275 1111 196 1111 l 1118 1119 m 1118 231 q 1224 235 1136 231 l 1225 235 q 1254 215 1244 235 q 1264 178 1264 196 q 1232 132 1264 132 l 1117 133 l 274 125 q 161 121 186 125 l 160 121 q 133 142 142 121 q 124 183 124 164 q 154 225 124 225 q 275 222 196 222 l 1118 231 m 1118 453 q 1224 457 1136 453 l 1225 457 q 1254 438 1244 457 q 1264 400 1264 418 q 1232 354 1264 354 l 1117 356 l 274 347 q 161 343 186 347 l 160 343 q 133 365 142 343 q 124 406 124 386 q 154 447 124 447 q 275 444 196 444 l 1118 453 m 1118 8 q 1224 13 1136 8 l 1225 13 q 1254 -7 1244 13 q 1264 -44 1264 -26 q 1232 -90 1264 -90 l 1117 -89 l 885 -92 q 772 -96 797 -92 l 771 -96 q 744 -74 753 -96 q 735 -33 735 -53 q 765 8 735 8 q 886 6 807 6 l 1118 8 m 507 3 q 613 7 525 3 l 614 7 q 643 -12 633 7 q 653 -50 653 -32 q 621 -96 653 -96 l 506 -94 l 274 -97 q 161 -101 186 -97 l 160 -101 q 133 -80 142 -101 q 124 -39 124 -58 q 154 3 124 3 q 275 0 196 0 l 507 3 "},"䷒":{"ha":1389,"x_min":124,"x_max":1264,"o":"m 1118 897 q 1224 901 1136 897 l 1225 901 q 1254 882 1244 901 q 1264 844 1264 863 q 1232 799 1264 799 l 1117 800 l 885 797 q 772 793 797 797 l 771 793 q 744 815 753 793 q 735 856 735 836 q 765 897 735 897 q 886 894 807 894 l 1118 897 m 507 892 q 613 896 525 892 l 614 896 q 643 876 633 896 q 653 839 653 857 q 621 793 653 793 l 506 794 l 274 792 q 161 788 186 792 l 160 788 q 133 809 142 788 q 124 850 124 831 q 154 892 124 892 q 275 889 196 889 l 507 892 m 1118 1119 q 1224 1124 1136 1119 l 1225 1124 q 1254 1104 1244 1124 q 1264 1067 1264 1085 q 1232 1021 1264 1021 l 1117 1022 l 885 1019 q 772 1015 797 1019 l 771 1015 q 744 1037 753 1015 q 735 1078 735 1058 q 765 1119 735 1119 q 886 1117 807 1117 l 1118 1119 m 507 1114 q 613 1118 525 1114 l 614 1118 q 643 1099 633 1118 q 653 1061 653 1079 q 621 1015 653 1015 l 506 1017 l 274 1014 q 161 1010 186 1014 l 160 1010 q 133 1031 142 1010 q 124 1072 124 1053 q 154 1114 124 1114 q 275 1111 196 1111 l 507 1114 m 1118 675 q 1224 679 1136 675 l 1225 679 q 1254 660 1244 679 q 1264 622 1264 640 q 1232 576 1264 576 l 1117 578 l 885 575 q 772 571 797 575 l 771 571 q 744 592 753 571 q 735 633 735 614 q 765 675 735 675 q 886 672 807 672 l 1118 675 m 507 669 q 613 674 525 669 l 614 674 q 643 654 633 674 q 653 617 653 635 q 621 571 653 571 l 506 572 l 274 569 q 161 565 186 569 l 160 565 q 133 587 142 565 q 124 628 124 608 q 154 669 124 669 q 275 667 196 667 l 507 669 m 1118 453 q 1224 457 1136 453 l 1225 457 q 1254 438 1244 457 q 1264 400 1264 418 q 1232 354 1264 354 l 1117 356 l 885 353 q 772 349 797 353 l 771 349 q 744 370 753 349 q 735 411 735 392 q 765 453 735 453 q 886 450 807 450 l 1118 453 m 507 447 q 613 451 525 447 l 614 451 q 643 432 633 451 q 653 394 653 413 q 621 349 653 349 l 506 350 l 274 347 q 161 343 186 347 l 160 343 q 133 365 142 343 q 124 406 124 386 q 154 447 124 447 q 275 444 196 444 l 507 447 m 1118 8 q 1224 13 1136 8 l 1225 13 q 1254 -7 1244 13 q 1264 -44 1264 -26 q 1232 -90 1264 -90 l 1117 -89 l 274 -97 q 161 -101 186 -97 l 160 -101 q 133 -80 142 -101 q 124 -39 124 -58 q 154 3 124 3 q 275 0 196 0 l 1118 8 m 1118 231 q 1224 235 1136 231 l 1225 235 q 1254 215 1244 235 q 1264 178 1264 196 q 1232 132 1264 132 l 1117 133 l 274 125 q 161 121 186 125 l 160 121 q 133 142 142 121 q 124 183 124 164 q 154 225 124 225 q 275 222 196 222 l 1118 231 "},"䷓":{"ha":1389,"x_min":124,"x_max":1264,"o":"m 1118 897 q 1224 901 1136 897 l 1225 901 q 1254 882 1244 901 q 1264 844 1264 863 q 1232 799 1264 799 l 1117 800 l 274 792 q 161 788 186 792 l 160 788 q 133 809 142 788 q 124 850 124 831 q 154 892 124 892 q 275 889 196 889 l 1118 897 m 1118 1119 q 1224 1124 1136 1119 l 1225 1124 q 1254 1104 1244 1124 q 1264 1067 1264 1085 q 1232 1021 1264 1021 l 1117 1022 l 274 1014 q 161 1010 186 1014 l 160 1010 q 133 1031 142 1010 q 124 1072 124 1053 q 154 1114 124 1114 q 275 1111 196 1111 l 1118 1119 m 1118 675 q 1224 679 1136 675 l 1225 679 q 1254 660 1244 679 q 1264 622 1264 640 q 1232 576 1264 576 l 1117 578 l 885 575 q 772 571 797 575 l 771 571 q 744 592 753 571 q 735 633 735 614 q 765 675 735 675 q 886 672 807 672 l 1118 675 m 507 669 q 613 674 525 669 l 614 674 q 643 654 633 674 q 653 617 653 635 q 621 571 653 571 l 506 572 l 274 569 q 161 565 186 569 l 160 565 q 133 587 142 565 q 124 628 124 608 q 154 669 124 669 q 275 667 196 667 l 507 669 m 1118 231 q 1224 235 1136 231 l 1225 235 q 1254 215 1244 235 q 1264 178 1264 196 q 1232 132 1264 132 l 1117 133 l 885 131 q 772 126 797 131 l 771 126 q 744 148 753 126 q 735 189 735 169 q 765 231 735 231 q 886 228 807 228 l 1118 231 m 507 225 q 613 229 525 225 l 614 229 q 643 210 633 229 q 653 172 653 190 q 621 126 653 126 l 506 128 l 274 125 q 161 121 186 125 l 160 121 q 133 142 142 121 q 124 183 124 164 q 154 225 124 225 q 275 222 196 222 l 507 225 m 1118 453 q 1224 457 1136 453 l 1225 457 q 1254 438 1244 457 q 1264 400 1264 418 q 1232 354 1264 354 l 1117 356 l 885 353 q 772 349 797 353 l 771 349 q 744 370 753 349 q 735 411 735 392 q 765 453 735 453 q 886 450 807 450 l 1118 453 m 507 447 q 613 451 525 447 l 614 451 q 643 432 633 451 q 653 394 653 413 q 621 349 653 349 l 506 350 l 274 347 q 161 343 186 347 l 160 343 q 133 365 142 343 q 124 406 124 386 q 154 447 124 447 q 275 444 196 444 l 507 447 m 1118 8 q 1224 13 1136 8 l 1225 13 q 1254 -7 1244 13 q 1264 -44 1264 -26 q 1232 -90 1264 -90 l 1117 -89 l 885 -92 q 772 -96 797 -92 l 771 -96 q 744 -74 753 -96 q 735 -33 735 -53 q 765 8 735 8 q 886 6 807 6 l 1118 8 m 507 3 q 613 7 525 3 l 614 7 q 643 -12 633 7 q 653 -50 653 -32 q 621 -96 653 -96 l 506 -94 l 274 -97 q 161 -101 186 -97 l 160 -101 q 133 -80 142 -101 q 124 -39 124 -58 q 154 3 124 3 q 275 0 196 0 l 507 3 "},"䷔":{"ha":1389,"x_min":124,"x_max":1264,"o":"m 1118 1119 q 1224 1124 1136 1119 l 1225 1124 q 1254 1104 1244 1124 q 1264 1067 1264 1085 q 1232 1021 1264 1021 l 1117 1022 l 274 1014 q 161 1010 186 1014 l 160 1010 q 133 1031 142 1010 q 124 1072 124 1053 q 154 1114 124 1114 q 275 1111 196 1111 l 1118 1119 m 1118 675 q 1224 679 1136 675 l 1225 679 q 1254 660 1244 679 q 1264 622 1264 640 q 1232 576 1264 576 l 1117 578 l 274 569 q 161 565 186 569 l 160 565 q 133 587 142 565 q 124 628 124 608 q 154 669 124 669 q 275 667 196 667 l 1118 675 m 1118 897 q 1224 901 1136 897 l 1225 901 q 1254 882 1244 901 q 1264 844 1264 863 q 1232 799 1264 799 l 1117 800 l 885 797 q 772 793 797 797 l 771 793 q 744 815 753 793 q 735 856 735 836 q 765 897 735 897 q 886 894 807 894 l 1118 897 m 507 892 q 613 896 525 892 l 614 896 q 643 876 633 896 q 653 839 653 857 q 621 793 653 793 l 506 794 l 274 792 q 161 788 186 792 l 160 788 q 133 809 142 788 q 124 850 124 831 q 154 892 124 892 q 275 889 196 889 l 507 892 m 1118 231 q 1224 235 1136 231 l 1225 235 q 1254 215 1244 235 q 1264 178 1264 196 q 1232 132 1264 132 l 1117 133 l 885 131 q 772 126 797 131 l 771 126 q 744 148 753 126 q 735 189 735 169 q 765 231 735 231 q 886 228 807 228 l 1118 231 m 507 225 q 613 229 525 225 l 614 229 q 643 210 633 229 q 653 172 653 190 q 621 126 653 126 l 506 128 l 274 125 q 161 121 186 125 l 160 121 q 133 142 142 121 q 124 183 124 164 q 154 225 124 225 q 275 222 196 222 l 507 225 m 1118 453 q 1224 457 1136 453 l 1225 457 q 1254 438 1244 457 q 1264 400 1264 418 q 1232 354 1264 354 l 1117 356 l 885 353 q 772 349 797 353 l 771 349 q 744 370 753 349 q 735 411 735 392 q 765 453 735 453 q 886 450 807 450 l 1118 453 m 507 447 q 613 451 525 447 l 614 451 q 643 432 633 451 q 653 394 653 413 q 621 349 653 349 l 506 350 l 274 347 q 161 343 186 347 l 160 343 q 133 365 142 343 q 124 406 124 386 q 154 447 124 447 q 275 444 196 444 l 507 447 m 1118 8 q 1224 13 1136 8 l 1225 13 q 1254 -7 1244 13 q 1264 -44 1264 -26 q 1232 -90 1264 -90 l 1117 -89 l 274 -97 q 161 -101 186 -97 l 160 -101 q 133 -80 142 -101 q 124 -39 124 -58 q 154 3 124 3 q 275 0 196 0 l 1118 8 "},"䷕":{"ha":1389,"x_min":124,"x_max":1264,"o":"m 1118 897 q 1224 901 1136 897 l 1225 901 q 1254 882 1244 901 q 1264 844 1264 863 q 1232 799 1264 799 l 1117 800 l 885 797 q 772 793 797 797 l 771 793 q 744 815 753 793 q 735 856 735 836 q 765 897 735 897 q 886 894 807 894 l 1118 897 m 507 892 q 613 896 525 892 l 614 896 q 643 876 633 896 q 653 839 653 857 q 621 793 653 793 l 506 794 l 274 792 q 161 788 186 792 l 160 788 q 133 809 142 788 q 124 850 124 831 q 154 892 124 892 q 275 889 196 889 l 507 892 m 1118 675 q 1224 679 1136 675 l 1225 679 q 1254 660 1244 679 q 1264 622 1264 640 q 1232 576 1264 576 l 1117 578 l 885 575 q 772 571 797 575 l 771 571 q 744 592 753 571 q 735 633 735 614 q 765 675 735 675 q 886 672 807 672 l 1118 675 m 507 669 q 613 674 525 669 l 614 674 q 643 654 633 674 q 653 617 653 635 q 621 571 653 571 l 506 572 l 274 569 q 161 565 186 569 l 160 565 q 133 587 142 565 q 124 628 124 608 q 154 669 124 669 q 275 667 196 667 l 507 669 m 1118 1119 q 1224 1124 1136 1119 l 1225 1124 q 1254 1104 1244 1124 q 1264 1067 1264 1085 q 1232 1021 1264 1021 l 1117 1022 l 274 1014 q 161 1010 186 1014 l 160 1010 q 133 1031 142 1010 q 124 1072 124 1053 q 154 1114 124 1114 q 275 1111 196 1111 l 1118 1119 m 1118 453 q 1224 457 1136 453 l 1225 457 q 1254 438 1244 457 q 1264 400 1264 418 q 1232 354 1264 354 l 1117 356 l 274 347 q 161 343 186 347 l 160 343 q 133 365 142 343 q 124 406 124 386 q 154 447 124 447 q 275 444 196 444 l 1118 453 m 1118 8 q 1224 13 1136 8 l 1225 13 q 1254 -7 1244 13 q 1264 -44 1264 -26 q 1232 -90 1264 -90 l 1117 -89 l 274 -97 q 161 -101 186 -97 l 160 -101 q 133 -80 142 -101 q 124 -39 124 -58 q 154 3 124 3 q 275 0 196 0 l 1118 8 m 1118 231 q 1224 235 1136 231 l 1225 235 q 1254 215 1244 235 q 1264 178 1264 196 q 1232 132 1264 132 l 1117 133 l 885 131 q 772 126 797 131 l 771 126 q 744 148 753 126 q 735 189 735 169 q 765 231 735 231 q 886 228 807 228 l 1118 231 m 507 225 q 613 229 525 225 l 614 229 q 643 210 633 229 q 653 172 653 190 q 621 126 653 126 l 506 128 l 274 125 q 161 121 186 125 l 160 121 q 133 142 142 121 q 124 183 124 164 q 154 225 124 225 q 275 222 196 222 l 507 225 "},"䷖":{"ha":1389,"x_min":124,"x_max":1264,"o":"m 1118 897 q 1224 901 1136 897 l 1225 901 q 1254 882 1244 901 q 1264 844 1264 863 q 1232 799 1264 799 l 1117 800 l 885 797 q 772 793 797 797 l 771 793 q 744 815 753 793 q 735 856 735 836 q 765 897 735 897 q 886 894 807 894 l 1118 897 m 507 892 q 613 896 525 892 l 614 896 q 643 876 633 896 q 653 839 653 857 q 621 793 653 793 l 506 794 l 274 792 q 161 788 186 792 l 160 788 q 133 809 142 788 q 124 850 124 831 q 154 892 124 892 q 275 889 196 889 l 507 892 m 1118 675 q 1224 679 1136 675 l 1225 679 q 1254 660 1244 679 q 1264 622 1264 640 q 1232 576 1264 576 l 1117 578 l 885 575 q 772 571 797 575 l 771 571 q 744 592 753 571 q 735 633 735 614 q 765 675 735 675 q 886 672 807 672 l 1118 675 m 507 669 q 613 674 525 669 l 614 674 q 643 654 633 674 q 653 617 653 635 q 621 571 653 571 l 506 572 l 274 569 q 161 565 186 569 l 160 565 q 133 587 142 565 q 124 628 124 608 q 154 669 124 669 q 275 667 196 667 l 507 669 m 1118 1119 q 1224 1124 1136 1119 l 1225 1124 q 1254 1104 1244 1124 q 1264 1067 1264 1085 q 1232 1021 1264 1021 l 1117 1022 l 274 1014 q 161 1010 186 1014 l 160 1010 q 133 1031 142 1010 q 124 1072 124 1053 q 154 1114 124 1114 q 275 1111 196 1111 l 1118 1119 m 1118 231 q 1224 235 1136 231 l 1225 235 q 1254 215 1244 235 q 1264 178 1264 196 q 1232 132 1264 132 l 1117 133 l 885 131 q 772 126 797 131 l 771 126 q 744 148 753 126 q 735 189 735 169 q 765 231 735 231 q 886 228 807 228 l 1118 231 m 507 225 q 613 229 525 225 l 614 229 q 643 210 633 229 q 653 172 653 190 q 621 126 653 126 l 506 128 l 274 125 q 161 121 186 125 l 160 121 q 133 142 142 121 q 124 183 124 164 q 154 225 124 225 q 275 222 196 222 l 507 225 m 1118 453 q 1224 457 1136 453 l 1225 457 q 1254 438 1244 457 q 1264 400 1264 418 q 1232 354 1264 354 l 1117 356 l 885 353 q 772 349 797 353 l 771 349 q 744 370 753 349 q 735 411 735 392 q 765 453 735 453 q 886 450 807 450 l 1118 453 m 507 447 q 613 451 525 447 l 614 451 q 643 432 633 451 q 653 394 653 413 q 621 349 653 349 l 506 350 l 274 347 q 161 343 186 347 l 160 343 q 133 365 142 343 q 124 406 124 386 q 154 447 124 447 q 275 444 196 444 l 507 447 m 1118 8 q 1224 13 1136 8 l 1225 13 q 1254 -7 1244 13 q 1264 -44 1264 -26 q 1232 -90 1264 -90 l 1117 -89 l 885 -92 q 772 -96 797 -92 l 771 -96 q 744 -74 753 -96 q 735 -33 735 -53 q 765 8 735 8 q 886 6 807 6 l 1118 8 m 507 3 q 613 7 525 3 l 614 7 q 643 -12 633 7 q 653 -50 653 -32 q 621 -96 653 -96 l 506 -94 l 274 -97 q 161 -101 186 -97 l 160 -101 q 133 -80 142 -101 q 124 -39 124 -58 q 154 3 124 3 q 275 0 196 0 l 507 3 "},"䷗":{"ha":1389,"x_min":124,"x_max":1264,"o":"m 1118 897 q 1224 901 1136 897 l 1225 901 q 1254 882 1244 901 q 1264 844 1264 863 q 1232 799 1264 799 l 1117 800 l 885 797 q 772 793 797 797 l 771 793 q 744 815 753 793 q 735 856 735 836 q 765 897 735 897 q 886 894 807 894 l 1118 897 m 507 892 q 613 896 525 892 l 614 896 q 643 876 633 896 q 653 839 653 857 q 621 793 653 793 l 506 794 l 274 792 q 161 788 186 792 l 160 788 q 133 809 142 788 q 124 850 124 831 q 154 892 124 892 q 275 889 196 889 l 507 892 m 1118 1119 q 1224 1124 1136 1119 l 1225 1124 q 1254 1104 1244 1124 q 1264 1067 1264 1085 q 1232 1021 1264 1021 l 1117 1022 l 885 1019 q 772 1015 797 1019 l 771 1015 q 744 1037 753 1015 q 735 1078 735 1058 q 765 1119 735 1119 q 886 1117 807 1117 l 1118 1119 m 507 1114 q 613 1118 525 1114 l 614 1118 q 643 1099 633 1118 q 653 1061 653 1079 q 621 1015 653 1015 l 506 1017 l 274 1014 q 161 1010 186 1014 l 160 1010 q 133 1031 142 1010 q 124 1072 124 1053 q 154 1114 124 1114 q 275 1111 196 1111 l 507 1114 m 1118 675 q 1224 679 1136 675 l 1225 679 q 1254 660 1244 679 q 1264 622 1264 640 q 1232 576 1264 576 l 1117 578 l 885 575 q 772 571 797 575 l 771 571 q 744 592 753 571 q 735 633 735 614 q 765 675 735 675 q 886 672 807 672 l 1118 675 m 507 669 q 613 674 525 669 l 614 674 q 643 654 633 674 q 653 617 653 635 q 621 571 653 571 l 506 572 l 274 569 q 161 565 186 569 l 160 565 q 133 587 142 565 q 124 628 124 608 q 154 669 124 669 q 275 667 196 667 l 507 669 m 1118 231 q 1224 235 1136 231 l 1225 235 q 1254 215 1244 235 q 1264 178 1264 196 q 1232 132 1264 132 l 1117 133 l 885 131 q 772 126 797 131 l 771 126 q 744 148 753 126 q 735 189 735 169 q 765 231 735 231 q 886 228 807 228 l 1118 231 m 507 225 q 613 229 525 225 l 614 229 q 643 210 633 229 q 653 172 653 190 q 621 126 653 126 l 506 128 l 274 125 q 161 121 186 125 l 160 121 q 133 142 142 121 q 124 183 124 164 q 154 225 124 225 q 275 222 196 222 l 507 225 m 1118 453 q 1224 457 1136 453 l 1225 457 q 1254 438 1244 457 q 1264 400 1264 418 q 1232 354 1264 354 l 1117 356 l 885 353 q 772 349 797 353 l 771 349 q 744 370 753 349 q 735 411 735 392 q 765 453 735 453 q 886 450 807 450 l 1118 453 m 507 447 q 613 451 525 447 l 614 451 q 643 432 633 451 q 653 394 653 413 q 621 349 653 349 l 506 350 l 274 347 q 161 343 186 347 l 160 343 q 133 365 142 343 q 124 406 124 386 q 154 447 124 447 q 275 444 196 444 l 507 447 m 1118 8 q 1224 13 1136 8 l 1225 13 q 1254 -7 1244 13 q 1264 -44 1264 -26 q 1232 -90 1264 -90 l 1117 -89 l 274 -97 q 161 -101 186 -97 l 160 -101 q 133 -80 142 -101 q 124 -39 124 -58 q 154 3 124 3 q 275 0 196 0 l 1118 8 "},"䷘":{"ha":1389,"x_min":124,"x_max":1264,"o":"m 1118 897 q 1224 901 1136 897 l 1225 901 q 1254 882 1244 901 q 1264 844 1264 863 q 1232 799 1264 799 l 1117 800 l 274 792 q 161 788 186 792 l 160 788 q 133 809 142 788 q 124 850 124 831 q 154 892 124 892 q 275 889 196 889 l 1118 897 m 1118 1119 q 1224 1124 1136 1119 l 1225 1124 q 1254 1104 1244 1124 q 1264 1067 1264 1085 q 1232 1021 1264 1021 l 1117 1022 l 274 1014 q 161 1010 186 1014 l 160 1010 q 133 1031 142 1010 q 124 1072 124 1053 q 154 1114 124 1114 q 275 1111 196 1111 l 1118 1119 m 1118 675 q 1224 679 1136 675 l 1225 679 q 1254 660 1244 679 q 1264 622 1264 640 q 1232 576 1264 576 l 1117 578 l 274 569 q 161 565 186 569 l 160 565 q 133 587 142 565 q 124 628 124 608 q 154 669 124 669 q 275 667 196 667 l 1118 675 m 1118 231 q 1224 235 1136 231 l 1225 235 q 1254 215 1244 235 q 1264 178 1264 196 q 1232 132 1264 132 l 1117 133 l 885 131 q 772 126 797 131 l 771 126 q 744 148 753 126 q 735 189 735 169 q 765 231 735 231 q 886 228 807 228 l 1118 231 m 507 225 q 613 229 525 225 l 614 229 q 643 210 633 229 q 653 172 653 190 q 621 126 653 126 l 506 128 l 274 125 q 161 121 186 125 l 160 121 q 133 142 142 121 q 124 183 124 164 q 154 225 124 225 q 275 222 196 222 l 507 225 m 1118 453 q 1224 457 1136 453 l 1225 457 q 1254 438 1244 457 q 1264 400 1264 418 q 1232 354 1264 354 l 1117 356 l 885 353 q 772 349 797 353 l 771 349 q 744 370 753 349 q 735 411 735 392 q 765 453 735 453 q 886 450 807 450 l 1118 453 m 507 447 q 613 451 525 447 l 614 451 q 643 432 633 451 q 653 394 653 413 q 621 349 653 349 l 506 350 l 274 347 q 161 343 186 347 l 160 343 q 133 365 142 343 q 124 406 124 386 q 154 447 124 447 q 275 444 196 444 l 507 447 m 1118 8 q 1224 13 1136 8 l 1225 13 q 1254 -7 1244 13 q 1264 -44 1264 -26 q 1232 -90 1264 -90 l 1117 -89 l 274 -97 q 161 -101 186 -97 l 160 -101 q 133 -80 142 -101 q 124 -39 124 -58 q 154 3 124 3 q 275 0 196 0 l 1118 8 "},"䷙":{"ha":1389,"x_min":124,"x_max":1264,"o":"m 1118 897 q 1224 901 1136 897 l 1225 901 q 1254 882 1244 901 q 1264 844 1264 863 q 1232 799 1264 799 l 1117 800 l 885 797 q 772 793 797 797 l 771 793 q 744 815 753 793 q 735 856 735 836 q 765 897 735 897 q 886 894 807 894 l 1118 897 m 507 892 q 613 896 525 892 l 614 896 q 643 876 633 896 q 653 839 653 857 q 621 793 653 793 l 506 794 l 274 792 q 161 788 186 792 l 160 788 q 133 809 142 788 q 124 850 124 831 q 154 892 124 892 q 275 889 196 889 l 507 892 m 1118 675 q 1224 679 1136 675 l 1225 679 q 1254 660 1244 679 q 1264 622 1264 640 q 1232 576 1264 576 l 1117 578 l 885 575 q 772 571 797 575 l 771 571 q 744 592 753 571 q 735 633 735 614 q 765 675 735 675 q 886 672 807 672 l 1118 675 m 507 669 q 613 674 525 669 l 614 674 q 643 654 633 674 q 653 617 653 635 q 621 571 653 571 l 506 572 l 274 569 q 161 565 186 569 l 160 565 q 133 587 142 565 q 124 628 124 608 q 154 669 124 669 q 275 667 196 667 l 507 669 m 1118 1119 q 1224 1124 1136 1119 l 1225 1124 q 1254 1104 1244 1124 q 1264 1067 1264 1085 q 1232 1021 1264 1021 l 1117 1022 l 274 1014 q 161 1010 186 1014 l 160 1010 q 133 1031 142 1010 q 124 1072 124 1053 q 154 1114 124 1114 q 275 1111 196 1111 l 1118 1119 m 1118 231 q 1224 235 1136 231 l 1225 235 q 1254 215 1244 235 q 1264 178 1264 196 q 1232 132 1264 132 l 1117 133 l 274 125 q 161 121 186 125 l 160 121 q 133 142 142 121 q 124 183 124 164 q 154 225 124 225 q 275 222 196 222 l 1118 231 m 1118 453 q 1224 457 1136 453 l 1225 457 q 1254 438 1244 457 q 1264 400 1264 418 q 1232 354 1264 354 l 1117 356 l 274 347 q 161 343 186 347 l 160 343 q 133 365 142 343 q 124 406 124 386 q 154 447 124 447 q 275 444 196 444 l 1118 453 m 1118 8 q 1224 13 1136 8 l 1225 13 q 1254 -7 1244 13 q 1264 -44 1264 -26 q 1232 -90 1264 -90 l 1117 -89 l 274 -97 q 161 -101 186 -97 l 160 -101 q 133 -80 142 -101 q 124 -39 124 -58 q 154 3 124 3 q 275 0 196 0 l 1118 8 "},"䷚":{"ha":1389,"x_min":124,"x_max":1264,"o":"m 1118 897 q 1224 901 1136 897 l 1225 901 q 1254 882 1244 901 q 1264 844 1264 863 q 1232 799 1264 799 l 1117 800 l 885 797 q 772 793 797 797 l 771 793 q 744 815 753 793 q 735 856 735 836 q 765 897 735 897 q 886 894 807 894 l 1118 897 m 507 892 q 613 896 525 892 l 614 896 q 643 876 633 896 q 653 839 653 857 q 621 793 653 793 l 506 794 l 274 792 q 161 788 186 792 l 160 788 q 133 809 142 788 q 124 850 124 831 q 154 892 124 892 q 275 889 196 889 l 507 892 m 1118 675 q 1224 679 1136 675 l 1225 679 q 1254 660 1244 679 q 1264 622 1264 640 q 1232 576 1264 576 l 1117 578 l 885 575 q 772 571 797 575 l 771 571 q 744 592 753 571 q 735 633 735 614 q 765 675 735 675 q 886 672 807 672 l 1118 675 m 507 669 q 613 674 525 669 l 614 674 q 643 654 633 674 q 653 617 653 635 q 621 571 653 571 l 506 572 l 274 569 q 161 565 186 569 l 160 565 q 133 587 142 565 q 124 628 124 608 q 154 669 124 669 q 275 667 196 667 l 507 669 m 1118 1119 q 1224 1124 1136 1119 l 1225 1124 q 1254 1104 1244 1124 q 1264 1067 1264 1085 q 1232 1021 1264 1021 l 1117 1022 l 274 1014 q 161 1010 186 1014 l 160 1010 q 133 1031 142 1010 q 124 1072 124 1053 q 154 1114 124 1114 q 275 1111 196 1111 l 1118 1119 m 1118 231 q 1224 235 1136 231 l 1225 235 q 1254 215 1244 235 q 1264 178 1264 196 q 1232 132 1264 132 l 1117 133 l 885 131 q 772 126 797 131 l 771 126 q 744 148 753 126 q 735 189 735 169 q 765 231 735 231 q 886 228 807 228 l 1118 231 m 507 225 q 613 229 525 225 l 614 229 q 643 210 633 229 q 653 172 653 190 q 621 126 653 126 l 506 128 l 274 125 q 161 121 186 125 l 160 121 q 133 142 142 121 q 124 183 124 164 q 154 225 124 225 q 275 222 196 222 l 507 225 m 1118 453 q 1224 457 1136 453 l 1225 457 q 1254 438 1244 457 q 1264 400 1264 418 q 1232 354 1264 354 l 1117 356 l 885 353 q 772 349 797 353 l 771 349 q 744 370 753 349 q 735 411 735 392 q 765 453 735 453 q 886 450 807 450 l 1118 453 m 507 447 q 613 451 525 447 l 614 451 q 643 432 633 451 q 653 394 653 413 q 621 349 653 349 l 506 350 l 274 347 q 161 343 186 347 l 160 343 q 133 365 142 343 q 124 406 124 386 q 154 447 124 447 q 275 444 196 444 l 507 447 m 1118 8 q 1224 13 1136 8 l 1225 13 q 1254 -7 1244 13 q 1264 -44 1264 -26 q 1232 -90 1264 -90 l 1117 -89 l 274 -97 q 161 -101 186 -97 l 160 -101 q 133 -80 142 -101 q 124 -39 124 -58 q 154 3 124 3 q 275 0 196 0 l 1118 8 "},"䷛":{"ha":1389,"x_min":124,"x_max":1264,"o":"m 1118 1119 q 1224 1124 1136 1119 l 1225 1124 q 1254 1104 1244 1124 q 1264 1067 1264 1085 q 1232 1021 1264 1021 l 1117 1022 l 885 1019 q 772 1015 797 1019 l 771 1015 q 744 1037 753 1015 q 735 1078 735 1058 q 765 1119 735 1119 q 886 1117 807 1117 l 1118 1119 m 507 1114 q 613 1118 525 1114 l 614 1118 q 643 1099 633 1118 q 653 1061 653 1079 q 621 1015 653 1015 l 506 1017 l 274 1014 q 161 1010 186 1014 l 160 1010 q 133 1031 142 1010 q 124 1072 124 1053 q 154 1114 124 1114 q 275 1111 196 1111 l 507 1114 m 1118 675 q 1224 679 1136 675 l 1225 679 q 1254 660 1244 679 q 1264 622 1264 640 q 1232 576 1264 576 l 1117 578 l 274 569 q 161 565 186 569 l 160 565 q 133 587 142 565 q 124 628 124 608 q 154 669 124 669 q 275 667 196 667 l 1118 675 m 1118 897 q 1224 901 1136 897 l 1225 901 q 1254 882 1244 901 q 1264 844 1264 863 q 1232 799 1264 799 l 1117 800 l 274 792 q 161 788 186 792 l 160 788 q 133 809 142 788 q 124 850 124 831 q 154 892 124 892 q 275 889 196 889 l 1118 897 m 1118 231 q 1224 235 1136 231 l 1225 235 q 1254 215 1244 235 q 1264 178 1264 196 q 1232 132 1264 132 l 1117 133 l 274 125 q 161 121 186 125 l 160 121 q 133 142 142 121 q 124 183 124 164 q 154 225 124 225 q 275 222 196 222 l 1118 231 m 1118 453 q 1224 457 1136 453 l 1225 457 q 1254 438 1244 457 q 1264 400 1264 418 q 1232 354 1264 354 l 1117 356 l 274 347 q 161 343 186 347 l 160 343 q 133 365 142 343 q 124 406 124 386 q 154 447 124 447 q 275 444 196 444 l 1118 453 m 1118 8 q 1224 13 1136 8 l 1225 13 q 1254 -7 1244 13 q 1264 -44 1264 -26 q 1232 -90 1264 -90 l 1117 -89 l 885 -92 q 772 -96 797 -92 l 771 -96 q 744 -74 753 -96 q 735 -33 735 -53 q 765 8 735 8 q 886 6 807 6 l 1118 8 m 507 3 q 613 7 525 3 l 614 7 q 643 -12 633 7 q 653 -50 653 -32 q 621 -96 653 -96 l 506 -94 l 274 -97 q 161 -101 186 -97 l 160 -101 q 133 -80 142 -101 q 124 -39 124 -58 q 154 3 124 3 q 275 0 196 0 l 507 3 "},"䷜":{"ha":1389,"x_min":124,"x_max":1264,"o":"m 1118 897 q 1224 901 1136 897 l 1225 901 q 1254 882 1244 901 q 1264 844 1264 863 q 1232 799 1264 799 l 1117 800 l 274 792 q 161 788 186 792 l 160 788 q 133 809 142 788 q 124 850 124 831 q 154 892 124 892 q 275 889 196 889 l 1118 897 m 1118 1119 q 1224 1124 1136 1119 l 1225 1124 q 1254 1104 1244 1124 q 1264 1067 1264 1085 q 1232 1021 1264 1021 l 1117 1022 l 885 1019 q 772 1015 797 1019 l 771 1015 q 744 1037 753 1015 q 735 1078 735 1058 q 765 1119 735 1119 q 886 1117 807 1117 l 1118 1119 m 507 1114 q 613 1118 525 1114 l 614 1118 q 643 1099 633 1118 q 653 1061 653 1079 q 621 1015 653 1015 l 506 1017 l 274 1014 q 161 1010 186 1014 l 160 1010 q 133 1031 142 1010 q 124 1072 124 1053 q 154 1114 124 1114 q 275 1111 196 1111 l 507 1114 m 1118 675 q 1224 679 1136 675 l 1225 679 q 1254 660 1244 679 q 1264 622 1264 640 q 1232 576 1264 576 l 1117 578 l 885 575 q 772 571 797 575 l 771 571 q 744 592 753 571 q 735 633 735 614 q 765 675 735 675 q 886 672 807 672 l 1118 675 m 507 669 q 613 674 525 669 l 614 674 q 643 654 633 674 q 653 617 653 635 q 621 571 653 571 l 506 572 l 274 569 q 161 565 186 569 l 160 565 q 133 587 142 565 q 124 628 124 608 q 154 669 124 669 q 275 667 196 667 l 507 669 m 1118 231 q 1224 235 1136 231 l 1225 235 q 1254 215 1244 235 q 1264 178 1264 196 q 1232 132 1264 132 l 1117 133 l 274 125 q 161 121 186 125 l 160 121 q 133 142 142 121 q 124 183 124 164 q 154 225 124 225 q 275 222 196 222 l 1118 231 m 1118 453 q 1224 457 1136 453 l 1225 457 q 1254 438 1244 457 q 1264 400 1264 418 q 1232 354 1264 354 l 1117 356 l 885 353 q 772 349 797 353 l 771 349 q 744 370 753 349 q 735 411 735 392 q 765 453 735 453 q 886 450 807 450 l 1118 453 m 507 447 q 613 451 525 447 l 614 451 q 643 432 633 451 q 653 394 653 413 q 621 349 653 349 l 506 350 l 274 347 q 161 343 186 347 l 160 343 q 133 365 142 343 q 124 406 124 386 q 154 447 124 447 q 275 444 196 444 l 507 447 m 1118 8 q 1224 13 1136 8 l 1225 13 q 1254 -7 1244 13 q 1264 -44 1264 -26 q 1232 -90 1264 -90 l 1117 -89 l 885 -92 q 772 -96 797 -92 l 771 -96 q 744 -74 753 -96 q 735 -33 735 -53 q 765 8 735 8 q 886 6 807 6 l 1118 8 m 507 3 q 613 7 525 3 l 614 7 q 643 -12 633 7 q 653 -50 653 -32 q 621 -96 653 -96 l 506 -94 l 274 -97 q 161 -101 186 -97 l 160 -101 q 133 -80 142 -101 q 124 -39 124 -58 q 154 3 124 3 q 275 0 196 0 l 507 3 "},"䷝":{"ha":1389,"x_min":124,"x_max":1264,"o":"m 1118 1119 q 1224 1124 1136 1119 l 1225 1124 q 1254 1104 1244 1124 q 1264 1067 1264 1085 q 1232 1021 1264 1021 l 1117 1022 l 274 1014 q 161 1010 186 1014 l 160 1010 q 133 1031 142 1010 q 124 1072 124 1053 q 154 1114 124 1114 q 275 1111 196 1111 l 1118 1119 m 1118 675 q 1224 679 1136 675 l 1225 679 q 1254 660 1244 679 q 1264 622 1264 640 q 1232 576 1264 576 l 1117 578 l 274 569 q 161 565 186 569 l 160 565 q 133 587 142 565 q 124 628 124 608 q 154 669 124 669 q 275 667 196 667 l 1118 675 m 1118 897 q 1224 901 1136 897 l 1225 901 q 1254 882 1244 901 q 1264 844 1264 863 q 1232 799 1264 799 l 1117 800 l 885 797 q 772 793 797 797 l 771 793 q 744 815 753 793 q 735 856 735 836 q 765 897 735 897 q 886 894 807 894 l 1118 897 m 507 892 q 613 896 525 892 l 614 896 q 643 876 633 896 q 653 839 653 857 q 621 793 653 793 l 506 794 l 274 792 q 161 788 186 792 l 160 788 q 133 809 142 788 q 124 850 124 831 q 154 892 124 892 q 275 889 196 889 l 507 892 m 1118 453 q 1224 457 1136 453 l 1225 457 q 1254 438 1244 457 q 1264 400 1264 418 q 1232 354 1264 354 l 1117 356 l 274 347 q 161 343 186 347 l 160 343 q 133 365 142 343 q 124 406 124 386 q 154 447 124 447 q 275 444 196 444 l 1118 453 m 1118 8 q 1224 13 1136 8 l 1225 13 q 1254 -7 1244 13 q 1264 -44 1264 -26 q 1232 -90 1264 -90 l 1117 -89 l 274 -97 q 161 -101 186 -97 l 160 -101 q 133 -80 142 -101 q 124 -39 124 -58 q 154 3 124 3 q 275 0 196 0 l 1118 8 m 1118 231 q 1224 235 1136 231 l 1225 235 q 1254 215 1244 235 q 1264 178 1264 196 q 1232 132 1264 132 l 1117 133 l 885 131 q 772 126 797 131 l 771 126 q 744 148 753 126 q 735 189 735 169 q 765 231 735 231 q 886 228 807 228 l 1118 231 m 507 225 q 613 229 525 225 l 614 229 q 643 210 633 229 q 653 172 653 190 q 621 126 653 126 l 506 128 l 274 125 q 161 121 186 125 l 160 121 q 133 142 142 121 q 124 183 124 164 q 154 225 124 225 q 275 222 196 222 l 507 225 "},"䷞":{"ha":1389,"x_min":124,"x_max":1264,"o":"m 1118 1119 q 1224 1124 1136 1119 l 1225 1124 q 1254 1104 1244 1124 q 1264 1067 1264 1085 q 1232 1021 1264 1021 l 1117 1022 l 885 1019 q 772 1015 797 1019 l 771 1015 q 744 1037 753 1015 q 735 1078 735 1058 q 765 1119 735 1119 q 886 1117 807 1117 l 1118 1119 m 507 1114 q 613 1118 525 1114 l 614 1118 q 643 1099 633 1118 q 653 1061 653 1079 q 621 1015 653 1015 l 506 1017 l 274 1014 q 161 1010 186 1014 l 160 1010 q 133 1031 142 1010 q 124 1072 124 1053 q 154 1114 124 1114 q 275 1111 196 1111 l 507 1114 m 1118 675 q 1224 679 1136 675 l 1225 679 q 1254 660 1244 679 q 1264 622 1264 640 q 1232 576 1264 576 l 1117 578 l 274 569 q 161 565 186 569 l 160 565 q 133 587 142 565 q 124 628 124 608 q 154 669 124 669 q 275 667 196 667 l 1118 675 m 1118 897 q 1224 901 1136 897 l 1225 901 q 1254 882 1244 901 q 1264 844 1264 863 q 1232 799 1264 799 l 1117 800 l 274 792 q 161 788 186 792 l 160 788 q 133 809 142 788 q 124 850 124 831 q 154 892 124 892 q 275 889 196 889 l 1118 897 m 1118 231 q 1224 235 1136 231 l 1225 235 q 1254 215 1244 235 q 1264 178 1264 196 q 1232 132 1264 132 l 1117 133 l 885 131 q 772 126 797 131 l 771 126 q 744 148 753 126 q 735 189 735 169 q 765 231 735 231 q 886 228 807 228 l 1118 231 m 507 225 q 613 229 525 225 l 614 229 q 643 210 633 229 q 653 172 653 190 q 621 126 653 126 l 506 128 l 274 125 q 161 121 186 125 l 160 121 q 133 142 142 121 q 124 183 124 164 q 154 225 124 225 q 275 222 196 222 l 507 225 m 1118 8 q 1224 13 1136 8 l 1225 13 q 1254 -7 1244 13 q 1264 -44 1264 -26 q 1232 -90 1264 -90 l 1117 -89 l 885 -92 q 772 -96 797 -92 l 771 -96 q 744 -74 753 -96 q 735 -33 735 -53 q 765 8 735 8 q 886 6 807 6 l 1118 8 m 507 3 q 613 7 525 3 l 614 7 q 643 -12 633 7 q 653 -50 653 -32 q 621 -96 653 -96 l 506 -94 l 274 -97 q 161 -101 186 -97 l 160 -101 q 133 -80 142 -101 q 124 -39 124 -58 q 154 3 124 3 q 275 0 196 0 l 507 3 m 1118 453 q 1224 457 1136 453 l 1225 457 q 1254 438 1244 457 q 1264 400 1264 418 q 1232 354 1264 354 l 1117 356 l 274 347 q 161 343 186 347 l 160 343 q 133 365 142 343 q 124 406 124 386 q 154 447 124 447 q 275 444 196 444 l 1118 453 "},"䷟":{"ha":1389,"x_min":124,"x_max":1264,"o":"m 1118 897 q 1224 901 1136 897 l 1225 901 q 1254 882 1244 901 q 1264 844 1264 863 q 1232 799 1264 799 l 1117 800 l 885 797 q 772 793 797 797 l 771 793 q 744 815 753 793 q 735 856 735 836 q 765 897 735 897 q 886 894 807 894 l 1118 897 m 507 892 q 613 896 525 892 l 614 896 q 643 876 633 896 q 653 839 653 857 q 621 793 653 793 l 506 794 l 274 792 q 161 788 186 792 l 160 788 q 133 809 142 788 q 124 850 124 831 q 154 892 124 892 q 275 889 196 889 l 507 892 m 1118 1119 q 1224 1124 1136 1119 l 1225 1124 q 1254 1104 1244 1124 q 1264 1067 1264 1085 q 1232 1021 1264 1021 l 1117 1022 l 885 1019 q 772 1015 797 1019 l 771 1015 q 744 1037 753 1015 q 735 1078 735 1058 q 765 1119 735 1119 q 886 1117 807 1117 l 1118 1119 m 507 1114 q 613 1118 525 1114 l 614 1118 q 643 1099 633 1118 q 653 1061 653 1079 q 621 1015 653 1015 l 506 1017 l 274 1014 q 161 1010 186 1014 l 160 1010 q 133 1031 142 1010 q 124 1072 124 1053 q 154 1114 124 1114 q 275 1111 196 1111 l 507 1114 m 1118 675 q 1224 679 1136 675 l 1225 679 q 1254 660 1244 679 q 1264 622 1264 640 q 1232 576 1264 576 l 1117 578 l 274 569 q 161 565 186 569 l 160 565 q 133 587 142 565 q 124 628 124 608 q 154 669 124 669 q 275 667 196 667 l 1118 675 m 1118 231 q 1224 235 1136 231 l 1225 235 q 1254 215 1244 235 q 1264 178 1264 196 q 1232 132 1264 132 l 1117 133 l 274 125 q 161 121 186 125 l 160 121 q 133 142 142 121 q 124 183 124 164 q 154 225 124 225 q 275 222 196 222 l 1118 231 m 1118 453 q 1224 457 1136 453 l 1225 457 q 1254 438 1244 457 q 1264 400 1264 418 q 1232 354 1264 354 l 1117 356 l 274 347 q 161 343 186 347 l 160 343 q 133 365 142 343 q 124 406 124 386 q 154 447 124 447 q 275 444 196 444 l 1118 453 m 1118 8 q 1224 13 1136 8 l 1225 13 q 1254 -7 1244 13 q 1264 -44 1264 -26 q 1232 -90 1264 -90 l 1117 -89 l 885 -92 q 772 -96 797 -92 l 771 -96 q 744 -74 753 -96 q 735 -33 735 -53 q 765 8 735 8 q 886 6 807 6 l 1118 8 m 507 3 q 613 7 525 3 l 614 7 q 643 -12 633 7 q 653 -50 653 -32 q 621 -96 653 -96 l 506 -94 l 274 -97 q 161 -101 186 -97 l 160 -101 q 133 -80 142 -101 q 124 -39 124 -58 q 154 3 124 3 q 275 0 196 0 l 507 3 "},"䷠":{"ha":1389,"x_min":124,"x_max":1264,"o":"m 1118 897 q 1224 901 1136 897 l 1225 901 q 1254 882 1244 901 q 1264 844 1264 863 q 1232 799 1264 799 l 1117 800 l 274 792 q 161 788 186 792 l 160 788 q 133 809 142 788 q 124 850 124 831 q 154 892 124 892 q 275 889 196 889 l 1118 897 m 1118 1119 q 1224 1124 1136 1119 l 1225 1124 q 1254 1104 1244 1124 q 1264 1067 1264 1085 q 1232 1021 1264 1021 l 1117 1022 l 274 1014 q 161 1010 186 1014 l 160 1010 q 133 1031 142 1010 q 124 1072 124 1053 q 154 1114 124 1114 q 275 1111 196 1111 l 1118 1119 m 1118 675 q 1224 679 1136 675 l 1225 679 q 1254 660 1244 679 q 1264 622 1264 640 q 1232 576 1264 576 l 1117 578 l 274 569 q 161 565 186 569 l 160 565 q 133 587 142 565 q 124 628 124 608 q 154 669 124 669 q 275 667 196 667 l 1118 675 m 1118 231 q 1224 235 1136 231 l 1225 235 q 1254 215 1244 235 q 1264 178 1264 196 q 1232 132 1264 132 l 1117 133 l 885 131 q 772 126 797 131 l 771 126 q 744 148 753 126 q 735 189 735 169 q 765 231 735 231 q 886 228 807 228 l 1118 231 m 507 225 q 613 229 525 225 l 614 229 q 643 210 633 229 q 653 172 653 190 q 621 126 653 126 l 506 128 l 274 125 q 161 121 186 125 l 160 121 q 133 142 142 121 q 124 183 124 164 q 154 225 124 225 q 275 222 196 222 l 507 225 m 1118 8 q 1224 13 1136 8 l 1225 13 q 1254 -7 1244 13 q 1264 -44 1264 -26 q 1232 -90 1264 -90 l 1117 -89 l 885 -92 q 772 -96 797 -92 l 771 -96 q 744 -74 753 -96 q 735 -33 735 -53 q 765 8 735 8 q 886 6 807 6 l 1118 8 m 507 3 q 613 7 525 3 l 614 7 q 643 -12 633 7 q 653 -50 653 -32 q 621 -96 653 -96 l 506 -94 l 274 -97 q 161 -101 186 -97 l 160 -101 q 133 -80 142 -101 q 124 -39 124 -58 q 154 3 124 3 q 275 0 196 0 l 507 3 m 1118 453 q 1224 457 1136 453 l 1225 457 q 1254 438 1244 457 q 1264 400 1264 418 q 1232 354 1264 354 l 1117 356 l 274 347 q 161 343 186 347 l 160 343 q 133 365 142 343 q 124 406 124 386 q 154 447 124 447 q 275 444 196 444 l 1118 453 "},"䷡":{"ha":1389,"x_min":124,"x_max":1264,"o":"m 1118 897 q 1224 901 1136 897 l 1225 901 q 1254 882 1244 901 q 1264 844 1264 863 q 1232 799 1264 799 l 1117 800 l 885 797 q 772 793 797 797 l 771 793 q 744 815 753 793 q 735 856 735 836 q 765 897 735 897 q 886 894 807 894 l 1118 897 m 507 892 q 613 896 525 892 l 614 896 q 643 876 633 896 q 653 839 653 857 q 621 793 653 793 l 506 794 l 274 792 q 161 788 186 792 l 160 788 q 133 809 142 788 q 124 850 124 831 q 154 892 124 892 q 275 889 196 889 l 507 892 m 1118 1119 q 1224 1124 1136 1119 l 1225 1124 q 1254 1104 1244 1124 q 1264 1067 1264 1085 q 1232 1021 1264 1021 l 1117 1022 l 885 1019 q 772 1015 797 1019 l 771 1015 q 744 1037 753 1015 q 735 1078 735 1058 q 765 1119 735 1119 q 886 1117 807 1117 l 1118 1119 m 507 1114 q 613 1118 525 1114 l 614 1118 q 643 1099 633 1118 q 653 1061 653 1079 q 621 1015 653 1015 l 506 1017 l 274 1014 q 161 1010 186 1014 l 160 1010 q 133 1031 142 1010 q 124 1072 124 1053 q 154 1114 124 1114 q 275 1111 196 1111 l 507 1114 m 1118 675 q 1224 679 1136 675 l 1225 679 q 1254 660 1244 679 q 1264 622 1264 640 q 1232 576 1264 576 l 1117 578 l 274 569 q 161 565 186 569 l 160 565 q 133 587 142 565 q 124 628 124 608 q 154 669 124 669 q 275 667 196 667 l 1118 675 m 1118 231 q 1224 235 1136 231 l 1225 235 q 1254 215 1244 235 q 1264 178 1264 196 q 1232 132 1264 132 l 1117 133 l 274 125 q 161 121 186 125 l 160 121 q 133 142 142 121 q 124 183 124 164 q 154 225 124 225 q 275 222 196 222 l 1118 231 m 1118 453 q 1224 457 1136 453 l 1225 457 q 1254 438 1244 457 q 1264 400 1264 418 q 1232 354 1264 354 l 1117 356 l 274 347 q 161 343 186 347 l 160 343 q 133 365 142 343 q 124 406 124 386 q 154 447 124 447 q 275 444 196 444 l 1118 453 m 1118 8 q 1224 13 1136 8 l 1225 13 q 1254 -7 1244 13 q 1264 -44 1264 -26 q 1232 -90 1264 -90 l 1117 -89 l 274 -97 q 161 -101 186 -97 l 160 -101 q 133 -80 142 -101 q 124 -39 124 -58 q 154 3 124 3 q 275 0 196 0 l 1118 8 "},"䷢":{"ha":1389,"x_min":124,"x_max":1264,"o":"m 1118 1119 q 1224 1124 1136 1119 l 1225 1124 q 1254 1104 1244 1124 q 1264 1067 1264 1085 q 1232 1021 1264 1021 l 1117 1022 l 274 1014 q 161 1010 186 1014 l 160 1010 q 133 1031 142 1010 q 124 1072 124 1053 q 154 1114 124 1114 q 275 1111 196 1111 l 1118 1119 m 1118 675 q 1224 679 1136 675 l 1225 679 q 1254 660 1244 679 q 1264 622 1264 640 q 1232 576 1264 576 l 1117 578 l 274 569 q 161 565 186 569 l 160 565 q 133 587 142 565 q 124 628 124 608 q 154 669 124 669 q 275 667 196 667 l 1118 675 m 1118 897 q 1224 901 1136 897 l 1225 901 q 1254 882 1244 901 q 1264 844 1264 863 q 1232 799 1264 799 l 1117 800 l 885 797 q 772 793 797 797 l 771 793 q 744 815 753 793 q 735 856 735 836 q 765 897 735 897 q 886 894 807 894 l 1118 897 m 507 892 q 613 896 525 892 l 614 896 q 643 876 633 896 q 653 839 653 857 q 621 793 653 793 l 506 794 l 274 792 q 161 788 186 792 l 160 788 q 133 809 142 788 q 124 850 124 831 q 154 892 124 892 q 275 889 196 889 l 507 892 m 1118 231 q 1224 235 1136 231 l 1225 235 q 1254 215 1244 235 q 1264 178 1264 196 q 1232 132 1264 132 l 1117 133 l 885 131 q 772 126 797 131 l 771 126 q 744 148 753 126 q 735 189 735 169 q 765 231 735 231 q 886 228 807 228 l 1118 231 m 507 225 q 613 229 525 225 l 614 229 q 643 210 633 229 q 653 172 653 190 q 621 126 653 126 l 506 128 l 274 125 q 161 121 186 125 l 160 121 q 133 142 142 121 q 124 183 124 164 q 154 225 124 225 q 275 222 196 222 l 507 225 m 1118 453 q 1224 457 1136 453 l 1225 457 q 1254 438 1244 457 q 1264 400 1264 418 q 1232 354 1264 354 l 1117 356 l 885 353 q 772 349 797 353 l 771 349 q 744 370 753 349 q 735 411 735 392 q 765 453 735 453 q 886 450 807 450 l 1118 453 m 507 447 q 613 451 525 447 l 614 451 q 643 432 633 451 q 653 394 653 413 q 621 349 653 349 l 506 350 l 274 347 q 161 343 186 347 l 160 343 q 133 365 142 343 q 124 406 124 386 q 154 447 124 447 q 275 444 196 444 l 507 447 m 1118 8 q 1224 13 1136 8 l 1225 13 q 1254 -7 1244 13 q 1264 -44 1264 -26 q 1232 -90 1264 -90 l 1117 -89 l 885 -92 q 772 -96 797 -92 l 771 -96 q 744 -74 753 -96 q 735 -33 735 -53 q 765 8 735 8 q 886 6 807 6 l 1118 8 m 507 3 q 613 7 525 3 l 614 7 q 643 -12 633 7 q 653 -50 653 -32 q 621 -96 653 -96 l 506 -94 l 274 -97 q 161 -101 186 -97 l 160 -101 q 133 -80 142 -101 q 124 -39 124 -58 q 154 3 124 3 q 275 0 196 0 l 507 3 "},"䷣":{"ha":1389,"x_min":124,"x_max":1264,"o":"m 1118 897 q 1224 901 1136 897 l 1225 901 q 1254 882 1244 901 q 1264 844 1264 863 q 1232 799 1264 799 l 1117 800 l 885 797 q 772 793 797 797 l 771 793 q 744 815 753 793 q 735 856 735 836 q 765 897 735 897 q 886 894 807 894 l 1118 897 m 507 892 q 613 896 525 892 l 614 896 q 643 876 633 896 q 653 839 653 857 q 621 793 653 793 l 506 794 l 274 792 q 161 788 186 792 l 160 788 q 133 809 142 788 q 124 850 124 831 q 154 892 124 892 q 275 889 196 889 l 507 892 m 1118 1119 q 1224 1124 1136 1119 l 1225 1124 q 1254 1104 1244 1124 q 1264 1067 1264 1085 q 1232 1021 1264 1021 l 1117 1022 l 885 1019 q 772 1015 797 1019 l 771 1015 q 744 1037 753 1015 q 735 1078 735 1058 q 765 1119 735 1119 q 886 1117 807 1117 l 1118 1119 m 507 1114 q 613 1118 525 1114 l 614 1118 q 643 1099 633 1118 q 653 1061 653 1079 q 621 1015 653 1015 l 506 1017 l 274 1014 q 161 1010 186 1014 l 160 1010 q 133 1031 142 1010 q 124 1072 124 1053 q 154 1114 124 1114 q 275 1111 196 1111 l 507 1114 m 1118 675 q 1224 679 1136 675 l 1225 679 q 1254 660 1244 679 q 1264 622 1264 640 q 1232 576 1264 576 l 1117 578 l 885 575 q 772 571 797 575 l 771 571 q 744 592 753 571 q 735 633 735 614 q 765 675 735 675 q 886 672 807 672 l 1118 675 m 507 669 q 613 674 525 669 l 614 674 q 643 654 633 674 q 653 617 653 635 q 621 571 653 571 l 506 572 l 274 569 q 161 565 186 569 l 160 565 q 133 587 142 565 q 124 628 124 608 q 154 669 124 669 q 275 667 196 667 l 507 669 m 1118 453 q 1224 457 1136 453 l 1225 457 q 1254 438 1244 457 q 1264 400 1264 418 q 1232 354 1264 354 l 1117 356 l 274 347 q 161 343 186 347 l 160 343 q 133 365 142 343 q 124 406 124 386 q 154 447 124 447 q 275 444 196 444 l 1118 453 m 1118 8 q 1224 13 1136 8 l 1225 13 q 1254 -7 1244 13 q 1264 -44 1264 -26 q 1232 -90 1264 -90 l 1117 -89 l 274 -97 q 161 -101 186 -97 l 160 -101 q 133 -80 142 -101 q 124 -39 124 -58 q 154 3 124 3 q 275 0 196 0 l 1118 8 m 1118 231 q 1224 235 1136 231 l 1225 235 q 1254 215 1244 235 q 1264 178 1264 196 q 1232 132 1264 132 l 1117 133 l 885 131 q 772 126 797 131 l 771 126 q 744 148 753 126 q 735 189 735 169 q 765 231 735 231 q 886 228 807 228 l 1118 231 m 507 225 q 613 229 525 225 l 614 229 q 643 210 633 229 q 653 172 653 190 q 621 126 653 126 l 506 128 l 274 125 q 161 121 186 125 l 160 121 q 133 142 142 121 q 124 183 124 164 q 154 225 124 225 q 275 222 196 222 l 507 225 "},"䷤":{"ha":1389,"x_min":124,"x_max":1264,"o":"m 1118 897 q 1224 901 1136 897 l 1225 901 q 1254 882 1244 901 q 1264 844 1264 863 q 1232 799 1264 799 l 1117 800 l 274 792 q 161 788 186 792 l 160 788 q 133 809 142 788 q 124 850 124 831 q 154 892 124 892 q 275 889 196 889 l 1118 897 m 1118 1119 q 1224 1124 1136 1119 l 1225 1124 q 1254 1104 1244 1124 q 1264 1067 1264 1085 q 1232 1021 1264 1021 l 1117 1022 l 274 1014 q 161 1010 186 1014 l 160 1010 q 133 1031 142 1010 q 124 1072 124 1053 q 154 1114 124 1114 q 275 1111 196 1111 l 1118 1119 m 1118 675 q 1224 679 1136 675 l 1225 679 q 1254 660 1244 679 q 1264 622 1264 640 q 1232 576 1264 576 l 1117 578 l 885 575 q 772 571 797 575 l 771 571 q 744 592 753 571 q 735 633 735 614 q 765 675 735 675 q 886 672 807 672 l 1118 675 m 507 669 q 613 674 525 669 l 614 674 q 643 654 633 674 q 653 617 653 635 q 621 571 653 571 l 506 572 l 274 569 q 161 565 186 569 l 160 565 q 133 587 142 565 q 124 628 124 608 q 154 669 124 669 q 275 667 196 667 l 507 669 m 1118 453 q 1224 457 1136 453 l 1225 457 q 1254 438 1244 457 q 1264 400 1264 418 q 1232 354 1264 354 l 1117 356 l 274 347 q 161 343 186 347 l 160 343 q 133 365 142 343 q 124 406 124 386 q 154 447 124 447 q 275 444 196 444 l 1118 453 m 1118 8 q 1224 13 1136 8 l 1225 13 q 1254 -7 1244 13 q 1264 -44 1264 -26 q 1232 -90 1264 -90 l 1117 -89 l 274 -97 q 161 -101 186 -97 l 160 -101 q 133 -80 142 -101 q 124 -39 124 -58 q 154 3 124 3 q 275 0 196 0 l 1118 8 m 1118 231 q 1224 235 1136 231 l 1225 235 q 1254 215 1244 235 q 1264 178 1264 196 q 1232 132 1264 132 l 1117 133 l 885 131 q 772 126 797 131 l 771 126 q 744 148 753 126 q 735 189 735 169 q 765 231 735 231 q 886 228 807 228 l 1118 231 m 507 225 q 613 229 525 225 l 614 229 q 643 210 633 229 q 653 172 653 190 q 621 126 653 126 l 506 128 l 274 125 q 161 121 186 125 l 160 121 q 133 142 142 121 q 124 183 124 164 q 154 225 124 225 q 275 222 196 222 l 507 225 "},"䷥":{"ha":1389,"x_min":124,"x_max":1264,"o":"m 1118 1119 q 1224 1124 1136 1119 l 1225 1124 q 1254 1104 1244 1124 q 1264 1067 1264 1085 q 1232 1021 1264 1021 l 1117 1022 l 274 1014 q 161 1010 186 1014 l 160 1010 q 133 1031 142 1010 q 124 1072 124 1053 q 154 1114 124 1114 q 275 1111 196 1111 l 1118 1119 m 1118 675 q 1224 679 1136 675 l 1225 679 q 1254 660 1244 679 q 1264 622 1264 640 q 1232 576 1264 576 l 1117 578 l 274 569 q 161 565 186 569 l 160 565 q 133 587 142 565 q 124 628 124 608 q 154 669 124 669 q 275 667 196 667 l 1118 675 m 1118 897 q 1224 901 1136 897 l 1225 901 q 1254 882 1244 901 q 1264 844 1264 863 q 1232 799 1264 799 l 1117 800 l 885 797 q 772 793 797 797 l 771 793 q 744 815 753 793 q 735 856 735 836 q 765 897 735 897 q 886 894 807 894 l 1118 897 m 507 892 q 613 896 525 892 l 614 896 q 643 876 633 896 q 653 839 653 857 q 621 793 653 793 l 506 794 l 274 792 q 161 788 186 792 l 160 788 q 133 809 142 788 q 124 850 124 831 q 154 892 124 892 q 275 889 196 889 l 507 892 m 1118 453 q 1224 457 1136 453 l 1225 457 q 1254 438 1244 457 q 1264 400 1264 418 q 1232 354 1264 354 l 1117 356 l 885 353 q 772 349 797 353 l 771 349 q 744 370 753 349 q 735 411 735 392 q 765 453 735 453 q 886 450 807 450 l 1118 453 m 507 447 q 613 451 525 447 l 614 451 q 643 432 633 451 q 653 394 653 413 q 621 349 653 349 l 506 350 l 274 347 q 161 343 186 347 l 160 343 q 133 365 142 343 q 124 406 124 386 q 154 447 124 447 q 275 444 196 444 l 507 447 m 1118 8 q 1224 13 1136 8 l 1225 13 q 1254 -7 1244 13 q 1264 -44 1264 -26 q 1232 -90 1264 -90 l 1117 -89 l 274 -97 q 161 -101 186 -97 l 160 -101 q 133 -80 142 -101 q 124 -39 124 -58 q 154 3 124 3 q 275 0 196 0 l 1118 8 m 1118 231 q 1224 235 1136 231 l 1225 235 q 1254 215 1244 235 q 1264 178 1264 196 q 1232 132 1264 132 l 1117 133 l 274 125 q 161 121 186 125 l 160 121 q 133 142 142 121 q 124 183 124 164 q 154 225 124 225 q 275 222 196 222 l 1118 231 "},"䷦":{"ha":1389,"x_min":124,"x_max":1264,"o":"m 1118 897 q 1224 901 1136 897 l 1225 901 q 1254 882 1244 901 q 1264 844 1264 863 q 1232 799 1264 799 l 1117 800 l 274 792 q 161 788 186 792 l 160 788 q 133 809 142 788 q 124 850 124 831 q 154 892 124 892 q 275 889 196 889 l 1118 897 m 1118 1119 q 1224 1124 1136 1119 l 1225 1124 q 1254 1104 1244 1124 q 1264 1067 1264 1085 q 1232 1021 1264 1021 l 1117 1022 l 885 1019 q 772 1015 797 1019 l 771 1015 q 744 1037 753 1015 q 735 1078 735 1058 q 765 1119 735 1119 q 886 1117 807 1117 l 1118 1119 m 507 1114 q 613 1118 525 1114 l 614 1118 q 643 1099 633 1118 q 653 1061 653 1079 q 621 1015 653 1015 l 506 1017 l 274 1014 q 161 1010 186 1014 l 160 1010 q 133 1031 142 1010 q 124 1072 124 1053 q 154 1114 124 1114 q 275 1111 196 1111 l 507 1114 m 1118 675 q 1224 679 1136 675 l 1225 679 q 1254 660 1244 679 q 1264 622 1264 640 q 1232 576 1264 576 l 1117 578 l 885 575 q 772 571 797 575 l 771 571 q 744 592 753 571 q 735 633 735 614 q 765 675 735 675 q 886 672 807 672 l 1118 675 m 507 669 q 613 674 525 669 l 614 674 q 643 654 633 674 q 653 617 653 635 q 621 571 653 571 l 506 572 l 274 569 q 161 565 186 569 l 160 565 q 133 587 142 565 q 124 628 124 608 q 154 669 124 669 q 275 667 196 667 l 507 669 m 1118 231 q 1224 235 1136 231 l 1225 235 q 1254 215 1244 235 q 1264 178 1264 196 q 1232 132 1264 132 l 1117 133 l 885 131 q 772 126 797 131 l 771 126 q 744 148 753 126 q 735 189 735 169 q 765 231 735 231 q 886 228 807 228 l 1118 231 m 507 225 q 613 229 525 225 l 614 229 q 643 210 633 229 q 653 172 653 190 q 621 126 653 126 l 506 128 l 274 125 q 161 121 186 125 l 160 121 q 133 142 142 121 q 124 183 124 164 q 154 225 124 225 q 275 222 196 222 l 507 225 m 1118 8 q 1224 13 1136 8 l 1225 13 q 1254 -7 1244 13 q 1264 -44 1264 -26 q 1232 -90 1264 -90 l 1117 -89 l 885 -92 q 772 -96 797 -92 l 771 -96 q 744 -74 753 -96 q 735 -33 735 -53 q 765 8 735 8 q 886 6 807 6 l 1118 8 m 507 3 q 613 7 525 3 l 614 7 q 643 -12 633 7 q 653 -50 653 -32 q 621 -96 653 -96 l 506 -94 l 274 -97 q 161 -101 186 -97 l 160 -101 q 133 -80 142 -101 q 124 -39 124 -58 q 154 3 124 3 q 275 0 196 0 l 507 3 m 1118 453 q 1224 457 1136 453 l 1225 457 q 1254 438 1244 457 q 1264 400 1264 418 q 1232 354 1264 354 l 1117 356 l 274 347 q 161 343 186 347 l 160 343 q 133 365 142 343 q 124 406 124 386 q 154 447 124 447 q 275 444 196 444 l 1118 453 "},"䷧":{"ha":1389,"x_min":124,"x_max":1264,"o":"m 1118 897 q 1224 901 1136 897 l 1225 901 q 1254 882 1244 901 q 1264 844 1264 863 q 1232 799 1264 799 l 1117 800 l 885 797 q 772 793 797 797 l 771 793 q 744 815 753 793 q 735 856 735 836 q 765 897 735 897 q 886 894 807 894 l 1118 897 m 507 892 q 613 896 525 892 l 614 896 q 643 876 633 896 q 653 839 653 857 q 621 793 653 793 l 506 794 l 274 792 q 161 788 186 792 l 160 788 q 133 809 142 788 q 124 850 124 831 q 154 892 124 892 q 275 889 196 889 l 507 892 m 1118 1119 q 1224 1124 1136 1119 l 1225 1124 q 1254 1104 1244 1124 q 1264 1067 1264 1085 q 1232 1021 1264 1021 l 1117 1022 l 885 1019 q 772 1015 797 1019 l 771 1015 q 744 1037 753 1015 q 735 1078 735 1058 q 765 1119 735 1119 q 886 1117 807 1117 l 1118 1119 m 507 1114 q 613 1118 525 1114 l 614 1118 q 643 1099 633 1118 q 653 1061 653 1079 q 621 1015 653 1015 l 506 1017 l 274 1014 q 161 1010 186 1014 l 160 1010 q 133 1031 142 1010 q 124 1072 124 1053 q 154 1114 124 1114 q 275 1111 196 1111 l 507 1114 m 1118 675 q 1224 679 1136 675 l 1225 679 q 1254 660 1244 679 q 1264 622 1264 640 q 1232 576 1264 576 l 1117 578 l 274 569 q 161 565 186 569 l 160 565 q 133 587 142 565 q 124 628 124 608 q 154 669 124 669 q 275 667 196 667 l 1118 675 m 1118 231 q 1224 235 1136 231 l 1225 235 q 1254 215 1244 235 q 1264 178 1264 196 q 1232 132 1264 132 l 1117 133 l 274 125 q 161 121 186 125 l 160 121 q 133 142 142 121 q 124 183 124 164 q 154 225 124 225 q 275 222 196 222 l 1118 231 m 1118 453 q 1224 457 1136 453 l 1225 457 q 1254 438 1244 457 q 1264 400 1264 418 q 1232 354 1264 354 l 1117 356 l 885 353 q 772 349 797 353 l 771 349 q 744 370 753 349 q 735 411 735 392 q 765 453 735 453 q 886 450 807 450 l 1118 453 m 507 447 q 613 451 525 447 l 614 451 q 643 432 633 451 q 653 394 653 413 q 621 349 653 349 l 506 350 l 274 347 q 161 343 186 347 l 160 343 q 133 365 142 343 q 124 406 124 386 q 154 447 124 447 q 275 444 196 444 l 507 447 m 1118 8 q 1224 13 1136 8 l 1225 13 q 1254 -7 1244 13 q 1264 -44 1264 -26 q 1232 -90 1264 -90 l 1117 -89 l 885 -92 q 772 -96 797 -92 l 771 -96 q 744 -74 753 -96 q 735 -33 735 -53 q 765 8 735 8 q 886 6 807 6 l 1118 8 m 507 3 q 613 7 525 3 l 614 7 q 643 -12 633 7 q 653 -50 653 -32 q 621 -96 653 -96 l 506 -94 l 274 -97 q 161 -101 186 -97 l 160 -101 q 133 -80 142 -101 q 124 -39 124 -58 q 154 3 124 3 q 275 0 196 0 l 507 3 "},"䷨":{"ha":1389,"x_min":124,"x_max":1264,"o":"m 1118 897 q 1224 901 1136 897 l 1225 901 q 1254 882 1244 901 q 1264 844 1264 863 q 1232 799 1264 799 l 1117 800 l 885 797 q 772 793 797 797 l 771 793 q 744 815 753 793 q 735 856 735 836 q 765 897 735 897 q 886 894 807 894 l 1118 897 m 507 892 q 613 896 525 892 l 614 896 q 643 876 633 896 q 653 839 653 857 q 621 793 653 793 l 506 794 l 274 792 q 161 788 186 792 l 160 788 q 133 809 142 788 q 124 850 124 831 q 154 892 124 892 q 275 889 196 889 l 507 892 m 1118 675 q 1224 679 1136 675 l 1225 679 q 1254 660 1244 679 q 1264 622 1264 640 q 1232 576 1264 576 l 1117 578 l 885 575 q 772 571 797 575 l 771 571 q 744 592 753 571 q 735 633 735 614 q 765 675 735 675 q 886 672 807 672 l 1118 675 m 507 669 q 613 674 525 669 l 614 674 q 643 654 633 674 q 653 617 653 635 q 621 571 653 571 l 506 572 l 274 569 q 161 565 186 569 l 160 565 q 133 587 142 565 q 124 628 124 608 q 154 669 124 669 q 275 667 196 667 l 507 669 m 1118 1119 q 1224 1124 1136 1119 l 1225 1124 q 1254 1104 1244 1124 q 1264 1067 1264 1085 q 1232 1021 1264 1021 l 1117 1022 l 274 1014 q 161 1010 186 1014 l 160 1010 q 133 1031 142 1010 q 124 1072 124 1053 q 154 1114 124 1114 q 275 1111 196 1111 l 1118 1119 m 1118 453 q 1224 457 1136 453 l 1225 457 q 1254 438 1244 457 q 1264 400 1264 418 q 1232 354 1264 354 l 1117 356 l 885 353 q 772 349 797 353 l 771 349 q 744 370 753 349 q 735 411 735 392 q 765 453 735 453 q 886 450 807 450 l 1118 453 m 507 447 q 613 451 525 447 l 614 451 q 643 432 633 451 q 653 394 653 413 q 621 349 653 349 l 506 350 l 274 347 q 161 343 186 347 l 160 343 q 133 365 142 343 q 124 406 124 386 q 154 447 124 447 q 275 444 196 444 l 507 447 m 1118 8 q 1224 13 1136 8 l 1225 13 q 1254 -7 1244 13 q 1264 -44 1264 -26 q 1232 -90 1264 -90 l 1117 -89 l 274 -97 q 161 -101 186 -97 l 160 -101 q 133 -80 142 -101 q 124 -39 124 -58 q 154 3 124 3 q 275 0 196 0 l 1118 8 m 1118 231 q 1224 235 1136 231 l 1225 235 q 1254 215 1244 235 q 1264 178 1264 196 q 1232 132 1264 132 l 1117 133 l 274 125 q 161 121 186 125 l 160 121 q 133 142 142 121 q 124 183 124 164 q 154 225 124 225 q 275 222 196 222 l 1118 231 "},"䷩":{"ha":1389,"x_min":124,"x_max":1264,"o":"m 1118 897 q 1224 901 1136 897 l 1225 901 q 1254 882 1244 901 q 1264 844 1264 863 q 1232 799 1264 799 l 1117 800 l 274 792 q 161 788 186 792 l 160 788 q 133 809 142 788 q 124 850 124 831 q 154 892 124 892 q 275 889 196 889 l 1118 897 m 1118 1119 q 1224 1124 1136 1119 l 1225 1124 q 1254 1104 1244 1124 q 1264 1067 1264 1085 q 1232 1021 1264 1021 l 1117 1022 l 274 1014 q 161 1010 186 1014 l 160 1010 q 133 1031 142 1010 q 124 1072 124 1053 q 154 1114 124 1114 q 275 1111 196 1111 l 1118 1119 m 1118 675 q 1224 679 1136 675 l 1225 679 q 1254 660 1244 679 q 1264 622 1264 640 q 1232 576 1264 576 l 1117 578 l 885 575 q 772 571 797 575 l 771 571 q 744 592 753 571 q 735 633 735 614 q 765 675 735 675 q 886 672 807 672 l 1118 675 m 507 669 q 613 674 525 669 l 614 674 q 643 654 633 674 q 653 617 653 635 q 621 571 653 571 l 506 572 l 274 569 q 161 565 186 569 l 160 565 q 133 587 142 565 q 124 628 124 608 q 154 669 124 669 q 275 667 196 667 l 507 669 m 1118 231 q 1224 235 1136 231 l 1225 235 q 1254 215 1244 235 q 1264 178 1264 196 q 1232 132 1264 132 l 1117 133 l 885 131 q 772 126 797 131 l 771 126 q 744 148 753 126 q 735 189 735 169 q 765 231 735 231 q 886 228 807 228 l 1118 231 m 507 225 q 613 229 525 225 l 614 229 q 643 210 633 229 q 653 172 653 190 q 621 126 653 126 l 506 128 l 274 125 q 161 121 186 125 l 160 121 q 133 142 142 121 q 124 183 124 164 q 154 225 124 225 q 275 222 196 222 l 507 225 m 1118 453 q 1224 457 1136 453 l 1225 457 q 1254 438 1244 457 q 1264 400 1264 418 q 1232 354 1264 354 l 1117 356 l 885 353 q 772 349 797 353 l 771 349 q 744 370 753 349 q 735 411 735 392 q 765 453 735 453 q 886 450 807 450 l 1118 453 m 507 447 q 613 451 525 447 l 614 451 q 643 432 633 451 q 653 394 653 413 q 621 349 653 349 l 506 350 l 274 347 q 161 343 186 347 l 160 343 q 133 365 142 343 q 124 406 124 386 q 154 447 124 447 q 275 444 196 444 l 507 447 m 1118 8 q 1224 13 1136 8 l 1225 13 q 1254 -7 1244 13 q 1264 -44 1264 -26 q 1232 -90 1264 -90 l 1117 -89 l 274 -97 q 161 -101 186 -97 l 160 -101 q 133 -80 142 -101 q 124 -39 124 -58 q 154 3 124 3 q 275 0 196 0 l 1118 8 "},"䷪":{"ha":1389,"x_min":124,"x_max":1264,"o":"m 1118 1119 q 1224 1124 1136 1119 l 1225 1124 q 1254 1104 1244 1124 q 1264 1067 1264 1085 q 1232 1021 1264 1021 l 1117 1022 l 885 1019 q 772 1015 797 1019 l 771 1015 q 744 1037 753 1015 q 735 1078 735 1058 q 765 1119 735 1119 q 886 1117 807 1117 l 1118 1119 m 507 1114 q 613 1118 525 1114 l 614 1118 q 643 1099 633 1118 q 653 1061 653 1079 q 621 1015 653 1015 l 506 1017 l 274 1014 q 161 1010 186 1014 l 160 1010 q 133 1031 142 1010 q 124 1072 124 1053 q 154 1114 124 1114 q 275 1111 196 1111 l 507 1114 m 1118 675 q 1224 679 1136 675 l 1225 679 q 1254 660 1244 679 q 1264 622 1264 640 q 1232 576 1264 576 l 1117 578 l 274 569 q 161 565 186 569 l 160 565 q 133 587 142 565 q 124 628 124 608 q 154 669 124 669 q 275 667 196 667 l 1118 675 m 1118 897 q 1224 901 1136 897 l 1225 901 q 1254 882 1244 901 q 1264 844 1264 863 q 1232 799 1264 799 l 1117 800 l 274 792 q 161 788 186 792 l 160 788 q 133 809 142 788 q 124 850 124 831 q 154 892 124 892 q 275 889 196 889 l 1118 897 m 1118 231 q 1224 235 1136 231 l 1225 235 q 1254 215 1244 235 q 1264 178 1264 196 q 1232 132 1264 132 l 1117 133 l 274 125 q 161 121 186 125 l 160 121 q 133 142 142 121 q 124 183 124 164 q 154 225 124 225 q 275 222 196 222 l 1118 231 m 1118 453 q 1224 457 1136 453 l 1225 457 q 1254 438 1244 457 q 1264 400 1264 418 q 1232 354 1264 354 l 1117 356 l 274 347 q 161 343 186 347 l 160 343 q 133 365 142 343 q 124 406 124 386 q 154 447 124 447 q 275 444 196 444 l 1118 453 m 1118 8 q 1224 13 1136 8 l 1225 13 q 1254 -7 1244 13 q 1264 -44 1264 -26 q 1232 -90 1264 -90 l 1117 -89 l 274 -97 q 161 -101 186 -97 l 160 -101 q 133 -80 142 -101 q 124 -39 124 -58 q 154 3 124 3 q 275 0 196 0 l 1118 8 "},"䷫":{"ha":1389,"x_min":124,"x_max":1264,"o":"m 1118 897 q 1224 901 1136 897 l 1225 901 q 1254 882 1244 901 q 1264 844 1264 863 q 1232 799 1264 799 l 1117 800 l 274 792 q 161 788 186 792 l 160 788 q 133 809 142 788 q 124 850 124 831 q 154 892 124 892 q 275 889 196 889 l 1118 897 m 1118 1119 q 1224 1124 1136 1119 l 1225 1124 q 1254 1104 1244 1124 q 1264 1067 1264 1085 q 1232 1021 1264 1021 l 1117 1022 l 274 1014 q 161 1010 186 1014 l 160 1010 q 133 1031 142 1010 q 124 1072 124 1053 q 154 1114 124 1114 q 275 1111 196 1111 l 1118 1119 m 1118 675 q 1224 679 1136 675 l 1225 679 q 1254 660 1244 679 q 1264 622 1264 640 q 1232 576 1264 576 l 1117 578 l 274 569 q 161 565 186 569 l 160 565 q 133 587 142 565 q 124 628 124 608 q 154 669 124 669 q 275 667 196 667 l 1118 675 m 1118 231 q 1224 235 1136 231 l 1225 235 q 1254 215 1244 235 q 1264 178 1264 196 q 1232 132 1264 132 l 1117 133 l 274 125 q 161 121 186 125 l 160 121 q 133 142 142 121 q 124 183 124 164 q 154 225 124 225 q 275 222 196 222 l 1118 231 m 1118 453 q 1224 457 1136 453 l 1225 457 q 1254 438 1244 457 q 1264 400 1264 418 q 1232 354 1264 354 l 1117 356 l 274 347 q 161 343 186 347 l 160 343 q 133 365 142 343 q 124 406 124 386 q 154 447 124 447 q 275 444 196 444 l 1118 453 m 1118 8 q 1224 13 1136 8 l 1225 13 q 1254 -7 1244 13 q 1264 -44 1264 -26 q 1232 -90 1264 -90 l 1117 -89 l 885 -92 q 772 -96 797 -92 l 771 -96 q 744 -74 753 -96 q 735 -33 735 -53 q 765 8 735 8 q 886 6 807 6 l 1118 8 m 507 3 q 613 7 525 3 l 614 7 q 643 -12 633 7 q 653 -50 653 -32 q 621 -96 653 -96 l 506 -94 l 274 -97 q 161 -101 186 -97 l 160 -101 q 133 -80 142 -101 q 124 -39 124 -58 q 154 3 124 3 q 275 0 196 0 l 507 3 "},"䷬":{"ha":1389,"x_min":124,"x_max":1264,"o":"m 1118 1119 q 1224 1124 1136 1119 l 1225 1124 q 1254 1104 1244 1124 q 1264 1067 1264 1085 q 1232 1021 1264 1021 l 1117 1022 l 885 1019 q 772 1015 797 1019 l 771 1015 q 744 1037 753 1015 q 735 1078 735 1058 q 765 1119 735 1119 q 886 1117 807 1117 l 1118 1119 m 507 1114 q 613 1118 525 1114 l 614 1118 q 643 1099 633 1118 q 653 1061 653 1079 q 621 1015 653 1015 l 506 1017 l 274 1014 q 161 1010 186 1014 l 160 1010 q 133 1031 142 1010 q 124 1072 124 1053 q 154 1114 124 1114 q 275 1111 196 1111 l 507 1114 m 1118 675 q 1224 679 1136 675 l 1225 679 q 1254 660 1244 679 q 1264 622 1264 640 q 1232 576 1264 576 l 1117 578 l 274 569 q 161 565 186 569 l 160 565 q 133 587 142 565 q 124 628 124 608 q 154 669 124 669 q 275 667 196 667 l 1118 675 m 1118 897 q 1224 901 1136 897 l 1225 901 q 1254 882 1244 901 q 1264 844 1264 863 q 1232 799 1264 799 l 1117 800 l 274 792 q 161 788 186 792 l 160 788 q 133 809 142 788 q 124 850 124 831 q 154 892 124 892 q 275 889 196 889 l 1118 897 m 1118 231 q 1224 235 1136 231 l 1225 235 q 1254 215 1244 235 q 1264 178 1264 196 q 1232 132 1264 132 l 1117 133 l 885 131 q 772 126 797 131 l 771 126 q 744 148 753 126 q 735 189 735 169 q 765 231 735 231 q 886 228 807 228 l 1118 231 m 507 225 q 613 229 525 225 l 614 229 q 643 210 633 229 q 653 172 653 190 q 621 126 653 126 l 506 128 l 274 125 q 161 121 186 125 l 160 121 q 133 142 142 121 q 124 183 124 164 q 154 225 124 225 q 275 222 196 222 l 507 225 m 1118 453 q 1224 457 1136 453 l 1225 457 q 1254 438 1244 457 q 1264 400 1264 418 q 1232 354 1264 354 l 1117 356 l 885 353 q 772 349 797 353 l 771 349 q 744 370 753 349 q 735 411 735 392 q 765 453 735 453 q 886 450 807 450 l 1118 453 m 507 447 q 613 451 525 447 l 614 451 q 643 432 633 451 q 653 394 653 413 q 621 349 653 349 l 506 350 l 274 347 q 161 343 186 347 l 160 343 q 133 365 142 343 q 124 406 124 386 q 154 447 124 447 q 275 444 196 444 l 507 447 m 1118 8 q 1224 13 1136 8 l 1225 13 q 1254 -7 1244 13 q 1264 -44 1264 -26 q 1232 -90 1264 -90 l 1117 -89 l 885 -92 q 772 -96 797 -92 l 771 -96 q 744 -74 753 -96 q 735 -33 735 -53 q 765 8 735 8 q 886 6 807 6 l 1118 8 m 507 3 q 613 7 525 3 l 614 7 q 643 -12 633 7 q 653 -50 653 -32 q 621 -96 653 -96 l 506 -94 l 274 -97 q 161 -101 186 -97 l 160 -101 q 133 -80 142 -101 q 124 -39 124 -58 q 154 3 124 3 q 275 0 196 0 l 507 3 "},"䷭":{"ha":1389,"x_min":124,"x_max":1264,"o":"m 1118 897 q 1224 901 1136 897 l 1225 901 q 1254 882 1244 901 q 1264 844 1264 863 q 1232 799 1264 799 l 1117 800 l 885 797 q 772 793 797 797 l 771 793 q 744 815 753 793 q 735 856 735 836 q 765 897 735 897 q 886 894 807 894 l 1118 897 m 507 892 q 613 896 525 892 l 614 896 q 643 876 633 896 q 653 839 653 857 q 621 793 653 793 l 506 794 l 274 792 q 161 788 186 792 l 160 788 q 133 809 142 788 q 124 850 124 831 q 154 892 124 892 q 275 889 196 889 l 507 892 m 1118 1119 q 1224 1124 1136 1119 l 1225 1124 q 1254 1104 1244 1124 q 1264 1067 1264 1085 q 1232 1021 1264 1021 l 1117 1022 l 885 1019 q 772 1015 797 1019 l 771 1015 q 744 1037 753 1015 q 735 1078 735 1058 q 765 1119 735 1119 q 886 1117 807 1117 l 1118 1119 m 507 1114 q 613 1118 525 1114 l 614 1118 q 643 1099 633 1118 q 653 1061 653 1079 q 621 1015 653 1015 l 506 1017 l 274 1014 q 161 1010 186 1014 l 160 1010 q 133 1031 142 1010 q 124 1072 124 1053 q 154 1114 124 1114 q 275 1111 196 1111 l 507 1114 m 1118 675 q 1224 679 1136 675 l 1225 679 q 1254 660 1244 679 q 1264 622 1264 640 q 1232 576 1264 576 l 1117 578 l 885 575 q 772 571 797 575 l 771 571 q 744 592 753 571 q 735 633 735 614 q 765 675 735 675 q 886 672 807 672 l 1118 675 m 507 669 q 613 674 525 669 l 614 674 q 643 654 633 674 q 653 617 653 635 q 621 571 653 571 l 506 572 l 274 569 q 161 565 186 569 l 160 565 q 133 587 142 565 q 124 628 124 608 q 154 669 124 669 q 275 667 196 667 l 507 669 m 1118 231 q 1224 235 1136 231 l 1225 235 q 1254 215 1244 235 q 1264 178 1264 196 q 1232 132 1264 132 l 1117 133 l 274 125 q 161 121 186 125 l 160 121 q 133 142 142 121 q 124 183 124 164 q 154 225 124 225 q 275 222 196 222 l 1118 231 m 1118 453 q 1224 457 1136 453 l 1225 457 q 1254 438 1244 457 q 1264 400 1264 418 q 1232 354 1264 354 l 1117 356 l 274 347 q 161 343 186 347 l 160 343 q 133 365 142 343 q 124 406 124 386 q 154 447 124 447 q 275 444 196 444 l 1118 453 m 1118 8 q 1224 13 1136 8 l 1225 13 q 1254 -7 1244 13 q 1264 -44 1264 -26 q 1232 -90 1264 -90 l 1117 -89 l 885 -92 q 772 -96 797 -92 l 771 -96 q 744 -74 753 -96 q 735 -33 735 -53 q 765 8 735 8 q 886 6 807 6 l 1118 8 m 507 3 q 613 7 525 3 l 614 7 q 643 -12 633 7 q 653 -50 653 -32 q 621 -96 653 -96 l 506 -94 l 274 -97 q 161 -101 186 -97 l 160 -101 q 133 -80 142 -101 q 124 -39 124 -58 q 154 3 124 3 q 275 0 196 0 l 507 3 "},"䷮":{"ha":1389,"x_min":124,"x_max":1264,"o":"m 1118 1119 q 1224 1124 1136 1119 l 1225 1124 q 1254 1104 1244 1124 q 1264 1067 1264 1085 q 1232 1021 1264 1021 l 1117 1022 l 885 1019 q 772 1015 797 1019 l 771 1015 q 744 1037 753 1015 q 735 1078 735 1058 q 765 1119 735 1119 q 886 1117 807 1117 l 1118 1119 m 507 1114 q 613 1118 525 1114 l 614 1118 q 643 1099 633 1118 q 653 1061 653 1079 q 621 1015 653 1015 l 506 1017 l 274 1014 q 161 1010 186 1014 l 160 1010 q 133 1031 142 1010 q 124 1072 124 1053 q 154 1114 124 1114 q 275 1111 196 1111 l 507 1114 m 1118 675 q 1224 679 1136 675 l 1225 679 q 1254 660 1244 679 q 1264 622 1264 640 q 1232 576 1264 576 l 1117 578 l 274 569 q 161 565 186 569 l 160 565 q 133 587 142 565 q 124 628 124 608 q 154 669 124 669 q 275 667 196 667 l 1118 675 m 1118 897 q 1224 901 1136 897 l 1225 901 q 1254 882 1244 901 q 1264 844 1264 863 q 1232 799 1264 799 l 1117 800 l 274 792 q 161 788 186 792 l 160 788 q 133 809 142 788 q 124 850 124 831 q 154 892 124 892 q 275 889 196 889 l 1118 897 m 1118 231 q 1224 235 1136 231 l 1225 235 q 1254 215 1244 235 q 1264 178 1264 196 q 1232 132 1264 132 l 1117 133 l 274 125 q 161 121 186 125 l 160 121 q 133 142 142 121 q 124 183 124 164 q 154 225 124 225 q 275 222 196 222 l 1118 231 m 1118 453 q 1224 457 1136 453 l 1225 457 q 1254 438 1244 457 q 1264 400 1264 418 q 1232 354 1264 354 l 1117 356 l 885 353 q 772 349 797 353 l 771 349 q 744 370 753 349 q 735 411 735 392 q 765 453 735 453 q 886 450 807 450 l 1118 453 m 507 447 q 613 451 525 447 l 614 451 q 643 432 633 451 q 653 394 653 413 q 621 349 653 349 l 506 350 l 274 347 q 161 343 186 347 l 160 343 q 133 365 142 343 q 124 406 124 386 q 154 447 124 447 q 275 444 196 444 l 507 447 m 1118 8 q 1224 13 1136 8 l 1225 13 q 1254 -7 1244 13 q 1264 -44 1264 -26 q 1232 -90 1264 -90 l 1117 -89 l 885 -92 q 772 -96 797 -92 l 771 -96 q 744 -74 753 -96 q 735 -33 735 -53 q 765 8 735 8 q 886 6 807 6 l 1118 8 m 507 3 q 613 7 525 3 l 614 7 q 643 -12 633 7 q 653 -50 653 -32 q 621 -96 653 -96 l 506 -94 l 274 -97 q 161 -101 186 -97 l 160 -101 q 133 -80 142 -101 q 124 -39 124 -58 q 154 3 124 3 q 275 0 196 0 l 507 3 "},"䷯":{"ha":1389,"x_min":124,"x_max":1264,"o":"m 1118 897 q 1224 901 1136 897 l 1225 901 q 1254 882 1244 901 q 1264 844 1264 863 q 1232 799 1264 799 l 1117 800 l 274 792 q 161 788 186 792 l 160 788 q 133 809 142 788 q 124 850 124 831 q 154 892 124 892 q 275 889 196 889 l 1118 897 m 1118 1119 q 1224 1124 1136 1119 l 1225 1124 q 1254 1104 1244 1124 q 1264 1067 1264 1085 q 1232 1021 1264 1021 l 1117 1022 l 885 1019 q 772 1015 797 1019 l 771 1015 q 744 1037 753 1015 q 735 1078 735 1058 q 765 1119 735 1119 q 886 1117 807 1117 l 1118 1119 m 507 1114 q 613 1118 525 1114 l 614 1118 q 643 1099 633 1118 q 653 1061 653 1079 q 621 1015 653 1015 l 506 1017 l 274 1014 q 161 1010 186 1014 l 160 1010 q 133 1031 142 1010 q 124 1072 124 1053 q 154 1114 124 1114 q 275 1111 196 1111 l 507 1114 m 1118 675 q 1224 679 1136 675 l 1225 679 q 1254 660 1244 679 q 1264 622 1264 640 q 1232 576 1264 576 l 1117 578 l 885 575 q 772 571 797 575 l 771 571 q 744 592 753 571 q 735 633 735 614 q 765 675 735 675 q 886 672 807 672 l 1118 675 m 507 669 q 613 674 525 669 l 614 674 q 643 654 633 674 q 653 617 653 635 q 621 571 653 571 l 506 572 l 274 569 q 161 565 186 569 l 160 565 q 133 587 142 565 q 124 628 124 608 q 154 669 124 669 q 275 667 196 667 l 507 669 m 1118 231 q 1224 235 1136 231 l 1225 235 q 1254 215 1244 235 q 1264 178 1264 196 q 1232 132 1264 132 l 1117 133 l 274 125 q 161 121 186 125 l 160 121 q 133 142 142 121 q 124 183 124 164 q 154 225 124 225 q 275 222 196 222 l 1118 231 m 1118 453 q 1224 457 1136 453 l 1225 457 q 1254 438 1244 457 q 1264 400 1264 418 q 1232 354 1264 354 l 1117 356 l 274 347 q 161 343 186 347 l 160 343 q 133 365 142 343 q 124 406 124 386 q 154 447 124 447 q 275 444 196 444 l 1118 453 m 1118 8 q 1224 13 1136 8 l 1225 13 q 1254 -7 1244 13 q 1264 -44 1264 -26 q 1232 -90 1264 -90 l 1117 -89 l 885 -92 q 772 -96 797 -92 l 771 -96 q 744 -74 753 -96 q 735 -33 735 -53 q 765 8 735 8 q 886 6 807 6 l 1118 8 m 507 3 q 613 7 525 3 l 614 7 q 643 -12 633 7 q 653 -50 653 -32 q 621 -96 653 -96 l 506 -94 l 274 -97 q 161 -101 186 -97 l 160 -101 q 133 -80 142 -101 q 124 -39 124 -58 q 154 3 124 3 q 275 0 196 0 l 507 3 "},"䷰":{"ha":1389,"x_min":124,"x_max":1264,"o":"m 1118 1119 q 1224 1124 1136 1119 l 1225 1124 q 1254 1104 1244 1124 q 1264 1067 1264 1085 q 1232 1021 1264 1021 l 1117 1022 l 885 1019 q 772 1015 797 1019 l 771 1015 q 744 1037 753 1015 q 735 1078 735 1058 q 765 1119 735 1119 q 886 1117 807 1117 l 1118 1119 m 507 1114 q 613 1118 525 1114 l 614 1118 q 643 1099 633 1118 q 653 1061 653 1079 q 621 1015 653 1015 l 506 1017 l 274 1014 q 161 1010 186 1014 l 160 1010 q 133 1031 142 1010 q 124 1072 124 1053 q 154 1114 124 1114 q 275 1111 196 1111 l 507 1114 m 1118 675 q 1224 679 1136 675 l 1225 679 q 1254 660 1244 679 q 1264 622 1264 640 q 1232 576 1264 576 l 1117 578 l 274 569 q 161 565 186 569 l 160 565 q 133 587 142 565 q 124 628 124 608 q 154 669 124 669 q 275 667 196 667 l 1118 675 m 1118 897 q 1224 901 1136 897 l 1225 901 q 1254 882 1244 901 q 1264 844 1264 863 q 1232 799 1264 799 l 1117 800 l 274 792 q 161 788 186 792 l 160 788 q 133 809 142 788 q 124 850 124 831 q 154 892 124 892 q 275 889 196 889 l 1118 897 m 1118 453 q 1224 457 1136 453 l 1225 457 q 1254 438 1244 457 q 1264 400 1264 418 q 1232 354 1264 354 l 1117 356 l 274 347 q 161 343 186 347 l 160 343 q 133 365 142 343 q 124 406 124 386 q 154 447 124 447 q 275 444 196 444 l 1118 453 m 1118 8 q 1224 13 1136 8 l 1225 13 q 1254 -7 1244 13 q 1264 -44 1264 -26 q 1232 -90 1264 -90 l 1117 -89 l 274 -97 q 161 -101 186 -97 l 160 -101 q 133 -80 142 -101 q 124 -39 124 -58 q 154 3 124 3 q 275 0 196 0 l 1118 8 m 1118 231 q 1224 235 1136 231 l 1225 235 q 1254 215 1244 235 q 1264 178 1264 196 q 1232 132 1264 132 l 1117 133 l 885 131 q 772 126 797 131 l 771 126 q 744 148 753 126 q 735 189 735 169 q 765 231 735 231 q 886 228 807 228 l 1118 231 m 507 225 q 613 229 525 225 l 614 229 q 643 210 633 229 q 653 172 653 190 q 621 126 653 126 l 506 128 l 274 125 q 161 121 186 125 l 160 121 q 133 142 142 121 q 124 183 124 164 q 154 225 124 225 q 275 222 196 222 l 507 225 "},"䷱":{"ha":1389,"x_min":124,"x_max":1264,"o":"m 1118 1119 q 1224 1124 1136 1119 l 1225 1124 q 1254 1104 1244 1124 q 1264 1067 1264 1085 q 1232 1021 1264 1021 l 1117 1022 l 274 1014 q 161 1010 186 1014 l 160 1010 q 133 1031 142 1010 q 124 1072 124 1053 q 154 1114 124 1114 q 275 1111 196 1111 l 1118 1119 m 1118 675 q 1224 679 1136 675 l 1225 679 q 1254 660 1244 679 q 1264 622 1264 640 q 1232 576 1264 576 l 1117 578 l 274 569 q 161 565 186 569 l 160 565 q 133 587 142 565 q 124 628 124 608 q 154 669 124 669 q 275 667 196 667 l 1118 675 m 1118 897 q 1224 901 1136 897 l 1225 901 q 1254 882 1244 901 q 1264 844 1264 863 q 1232 799 1264 799 l 1117 800 l 885 797 q 772 793 797 797 l 771 793 q 744 815 753 793 q 735 856 735 836 q 765 897 735 897 q 886 894 807 894 l 1118 897 m 507 892 q 613 896 525 892 l 614 896 q 643 876 633 896 q 653 839 653 857 q 621 793 653 793 l 506 794 l 274 792 q 161 788 186 792 l 160 788 q 133 809 142 788 q 124 850 124 831 q 154 892 124 892 q 275 889 196 889 l 507 892 m 1118 231 q 1224 235 1136 231 l 1225 235 q 1254 215 1244 235 q 1264 178 1264 196 q 1232 132 1264 132 l 1117 133 l 274 125 q 161 121 186 125 l 160 121 q 133 142 142 121 q 124 183 124 164 q 154 225 124 225 q 275 222 196 222 l 1118 231 m 1118 453 q 1224 457 1136 453 l 1225 457 q 1254 438 1244 457 q 1264 400 1264 418 q 1232 354 1264 354 l 1117 356 l 274 347 q 161 343 186 347 l 160 343 q 133 365 142 343 q 124 406 124 386 q 154 447 124 447 q 275 444 196 444 l 1118 453 m 1118 8 q 1224 13 1136 8 l 1225 13 q 1254 -7 1244 13 q 1264 -44 1264 -26 q 1232 -90 1264 -90 l 1117 -89 l 885 -92 q 772 -96 797 -92 l 771 -96 q 744 -74 753 -96 q 735 -33 735 -53 q 765 8 735 8 q 886 6 807 6 l 1118 8 m 507 3 q 613 7 525 3 l 614 7 q 643 -12 633 7 q 653 -50 653 -32 q 621 -96 653 -96 l 506 -94 l 274 -97 q 161 -101 186 -97 l 160 -101 q 133 -80 142 -101 q 124 -39 124 -58 q 154 3 124 3 q 275 0 196 0 l 507 3 "},"䷲":{"ha":1389,"x_min":124,"x_max":1264,"o":"m 1118 897 q 1224 901 1136 897 l 1225 901 q 1254 882 1244 901 q 1264 844 1264 863 q 1232 799 1264 799 l 1117 800 l 885 797 q 772 793 797 797 l 771 793 q 744 815 753 793 q 735 856 735 836 q 765 897 735 897 q 886 894 807 894 l 1118 897 m 507 892 q 613 896 525 892 l 614 896 q 643 876 633 896 q 653 839 653 857 q 621 793 653 793 l 506 794 l 274 792 q 161 788 186 792 l 160 788 q 133 809 142 788 q 124 850 124 831 q 154 892 124 892 q 275 889 196 889 l 507 892 m 1118 1119 q 1224 1124 1136 1119 l 1225 1124 q 1254 1104 1244 1124 q 1264 1067 1264 1085 q 1232 1021 1264 1021 l 1117 1022 l 885 1019 q 772 1015 797 1019 l 771 1015 q 744 1037 753 1015 q 735 1078 735 1058 q 765 1119 735 1119 q 886 1117 807 1117 l 1118 1119 m 507 1114 q 613 1118 525 1114 l 614 1118 q 643 1099 633 1118 q 653 1061 653 1079 q 621 1015 653 1015 l 506 1017 l 274 1014 q 161 1010 186 1014 l 160 1010 q 133 1031 142 1010 q 124 1072 124 1053 q 154 1114 124 1114 q 275 1111 196 1111 l 507 1114 m 1118 675 q 1224 679 1136 675 l 1225 679 q 1254 660 1244 679 q 1264 622 1264 640 q 1232 576 1264 576 l 1117 578 l 274 569 q 161 565 186 569 l 160 565 q 133 587 142 565 q 124 628 124 608 q 154 669 124 669 q 275 667 196 667 l 1118 675 m 1118 231 q 1224 235 1136 231 l 1225 235 q 1254 215 1244 235 q 1264 178 1264 196 q 1232 132 1264 132 l 1117 133 l 885 131 q 772 126 797 131 l 771 126 q 744 148 753 126 q 735 189 735 169 q 765 231 735 231 q 886 228 807 228 l 1118 231 m 507 225 q 613 229 525 225 l 614 229 q 643 210 633 229 q 653 172 653 190 q 621 126 653 126 l 506 128 l 274 125 q 161 121 186 125 l 160 121 q 133 142 142 121 q 124 183 124 164 q 154 225 124 225 q 275 222 196 222 l 507 225 m 1118 453 q 1224 457 1136 453 l 1225 457 q 1254 438 1244 457 q 1264 400 1264 418 q 1232 354 1264 354 l 1117 356 l 885 353 q 772 349 797 353 l 771 349 q 744 370 753 349 q 735 411 735 392 q 765 453 735 453 q 886 450 807 450 l 1118 453 m 507 447 q 613 451 525 447 l 614 451 q 643 432 633 451 q 653 394 653 413 q 621 349 653 349 l 506 350 l 274 347 q 161 343 186 347 l 160 343 q 133 365 142 343 q 124 406 124 386 q 154 447 124 447 q 275 444 196 444 l 507 447 m 1118 8 q 1224 13 1136 8 l 1225 13 q 1254 -7 1244 13 q 1264 -44 1264 -26 q 1232 -90 1264 -90 l 1117 -89 l 274 -97 q 161 -101 186 -97 l 160 -101 q 133 -80 142 -101 q 124 -39 124 -58 q 154 3 124 3 q 275 0 196 0 l 1118 8 "},"䷳":{"ha":1389,"x_min":124,"x_max":1264,"o":"m 1118 897 q 1224 901 1136 897 l 1225 901 q 1254 882 1244 901 q 1264 844 1264 863 q 1232 799 1264 799 l 1117 800 l 885 797 q 772 793 797 797 l 771 793 q 744 815 753 793 q 735 856 735 836 q 765 897 735 897 q 886 894 807 894 l 1118 897 m 507 892 q 613 896 525 892 l 614 896 q 643 876 633 896 q 653 839 653 857 q 621 793 653 793 l 506 794 l 274 792 q 161 788 186 792 l 160 788 q 133 809 142 788 q 124 850 124 831 q 154 892 124 892 q 275 889 196 889 l 507 892 m 1118 675 q 1224 679 1136 675 l 1225 679 q 1254 660 1244 679 q 1264 622 1264 640 q 1232 576 1264 576 l 1117 578 l 885 575 q 772 571 797 575 l 771 571 q 744 592 753 571 q 735 633 735 614 q 765 675 735 675 q 886 672 807 672 l 1118 675 m 507 669 q 613 674 525 669 l 614 674 q 643 654 633 674 q 653 617 653 635 q 621 571 653 571 l 506 572 l 274 569 q 161 565 186 569 l 160 565 q 133 587 142 565 q 124 628 124 608 q 154 669 124 669 q 275 667 196 667 l 507 669 m 1118 1119 q 1224 1124 1136 1119 l 1225 1124 q 1254 1104 1244 1124 q 1264 1067 1264 1085 q 1232 1021 1264 1021 l 1117 1022 l 274 1014 q 161 1010 186 1014 l 160 1010 q 133 1031 142 1010 q 124 1072 124 1053 q 154 1114 124 1114 q 275 1111 196 1111 l 1118 1119 m 1118 231 q 1224 235 1136 231 l 1225 235 q 1254 215 1244 235 q 1264 178 1264 196 q 1232 132 1264 132 l 1117 133 l 885 131 q 772 126 797 131 l 771 126 q 744 148 753 126 q 735 189 735 169 q 765 231 735 231 q 886 228 807 228 l 1118 231 m 507 225 q 613 229 525 225 l 614 229 q 643 210 633 229 q 653 172 653 190 q 621 126 653 126 l 506 128 l 274 125 q 161 121 186 125 l 160 121 q 133 142 142 121 q 124 183 124 164 q 154 225 124 225 q 275 222 196 222 l 507 225 m 1118 8 q 1224 13 1136 8 l 1225 13 q 1254 -7 1244 13 q 1264 -44 1264 -26 q 1232 -90 1264 -90 l 1117 -89 l 885 -92 q 772 -96 797 -92 l 771 -96 q 744 -74 753 -96 q 735 -33 735 -53 q 765 8 735 8 q 886 6 807 6 l 1118 8 m 507 3 q 613 7 525 3 l 614 7 q 643 -12 633 7 q 653 -50 653 -32 q 621 -96 653 -96 l 506 -94 l 274 -97 q 161 -101 186 -97 l 160 -101 q 133 -80 142 -101 q 124 -39 124 -58 q 154 3 124 3 q 275 0 196 0 l 507 3 m 1118 453 q 1224 457 1136 453 l 1225 457 q 1254 438 1244 457 q 1264 400 1264 418 q 1232 354 1264 354 l 1117 356 l 274 347 q 161 343 186 347 l 160 343 q 133 365 142 343 q 124 406 124 386 q 154 447 124 447 q 275 444 196 444 l 1118 453 "},"䷴":{"ha":1389,"x_min":124,"x_max":1264,"o":"m 1118 897 q 1224 901 1136 897 l 1225 901 q 1254 882 1244 901 q 1264 844 1264 863 q 1232 799 1264 799 l 1117 800 l 274 792 q 161 788 186 792 l 160 788 q 133 809 142 788 q 124 850 124 831 q 154 892 124 892 q 275 889 196 889 l 1118 897 m 1118 1119 q 1224 1124 1136 1119 l 1225 1124 q 1254 1104 1244 1124 q 1264 1067 1264 1085 q 1232 1021 1264 1021 l 1117 1022 l 274 1014 q 161 1010 186 1014 l 160 1010 q 133 1031 142 1010 q 124 1072 124 1053 q 154 1114 124 1114 q 275 1111 196 1111 l 1118 1119 m 1118 675 q 1224 679 1136 675 l 1225 679 q 1254 660 1244 679 q 1264 622 1264 640 q 1232 576 1264 576 l 1117 578 l 885 575 q 772 571 797 575 l 771 571 q 744 592 753 571 q 735 633 735 614 q 765 675 735 675 q 886 672 807 672 l 1118 675 m 507 669 q 613 674 525 669 l 614 674 q 643 654 633 674 q 653 617 653 635 q 621 571 653 571 l 506 572 l 274 569 q 161 565 186 569 l 160 565 q 133 587 142 565 q 124 628 124 608 q 154 669 124 669 q 275 667 196 667 l 507 669 m 1118 231 q 1224 235 1136 231 l 1225 235 q 1254 215 1244 235 q 1264 178 1264 196 q 1232 132 1264 132 l 1117 133 l 885 131 q 772 126 797 131 l 771 126 q 744 148 753 126 q 735 189 735 169 q 765 231 735 231 q 886 228 807 228 l 1118 231 m 507 225 q 613 229 525 225 l 614 229 q 643 210 633 229 q 653 172 653 190 q 621 126 653 126 l 506 128 l 274 125 q 161 121 186 125 l 160 121 q 133 142 142 121 q 124 183 124 164 q 154 225 124 225 q 275 222 196 222 l 507 225 m 1118 8 q 1224 13 1136 8 l 1225 13 q 1254 -7 1244 13 q 1264 -44 1264 -26 q 1232 -90 1264 -90 l 1117 -89 l 885 -92 q 772 -96 797 -92 l 771 -96 q 744 -74 753 -96 q 735 -33 735 -53 q 765 8 735 8 q 886 6 807 6 l 1118 8 m 507 3 q 613 7 525 3 l 614 7 q 643 -12 633 7 q 653 -50 653 -32 q 621 -96 653 -96 l 506 -94 l 274 -97 q 161 -101 186 -97 l 160 -101 q 133 -80 142 -101 q 124 -39 124 -58 q 154 3 124 3 q 275 0 196 0 l 507 3 m 1118 453 q 1224 457 1136 453 l 1225 457 q 1254 438 1244 457 q 1264 400 1264 418 q 1232 354 1264 354 l 1117 356 l 274 347 q 161 343 186 347 l 160 343 q 133 365 142 343 q 124 406 124 386 q 154 447 124 447 q 275 444 196 444 l 1118 453 "},"䷵":{"ha":1389,"x_min":124,"x_max":1264,"o":"m 1118 897 q 1224 901 1136 897 l 1225 901 q 1254 882 1244 901 q 1264 844 1264 863 q 1232 799 1264 799 l 1117 800 l 885 797 q 772 793 797 797 l 771 793 q 744 815 753 793 q 735 856 735 836 q 765 897 735 897 q 886 894 807 894 l 1118 897 m 507 892 q 613 896 525 892 l 614 896 q 643 876 633 896 q 653 839 653 857 q 621 793 653 793 l 506 794 l 274 792 q 161 788 186 792 l 160 788 q 133 809 142 788 q 124 850 124 831 q 154 892 124 892 q 275 889 196 889 l 507 892 m 1118 1119 q 1224 1124 1136 1119 l 1225 1124 q 1254 1104 1244 1124 q 1264 1067 1264 1085 q 1232 1021 1264 1021 l 1117 1022 l 885 1019 q 772 1015 797 1019 l 771 1015 q 744 1037 753 1015 q 735 1078 735 1058 q 765 1119 735 1119 q 886 1117 807 1117 l 1118 1119 m 507 1114 q 613 1118 525 1114 l 614 1118 q 643 1099 633 1118 q 653 1061 653 1079 q 621 1015 653 1015 l 506 1017 l 274 1014 q 161 1010 186 1014 l 160 1010 q 133 1031 142 1010 q 124 1072 124 1053 q 154 1114 124 1114 q 275 1111 196 1111 l 507 1114 m 1118 675 q 1224 679 1136 675 l 1225 679 q 1254 660 1244 679 q 1264 622 1264 640 q 1232 576 1264 576 l 1117 578 l 274 569 q 161 565 186 569 l 160 565 q 133 587 142 565 q 124 628 124 608 q 154 669 124 669 q 275 667 196 667 l 1118 675 m 1118 453 q 1224 457 1136 453 l 1225 457 q 1254 438 1244 457 q 1264 400 1264 418 q 1232 354 1264 354 l 1117 356 l 885 353 q 772 349 797 353 l 771 349 q 744 370 753 349 q 735 411 735 392 q 765 453 735 453 q 886 450 807 450 l 1118 453 m 507 447 q 613 451 525 447 l 614 451 q 643 432 633 451 q 653 394 653 413 q 621 349 653 349 l 506 350 l 274 347 q 161 343 186 347 l 160 343 q 133 365 142 343 q 124 406 124 386 q 154 447 124 447 q 275 444 196 444 l 507 447 m 1118 8 q 1224 13 1136 8 l 1225 13 q 1254 -7 1244 13 q 1264 -44 1264 -26 q 1232 -90 1264 -90 l 1117 -89 l 274 -97 q 161 -101 186 -97 l 160 -101 q 133 -80 142 -101 q 124 -39 124 -58 q 154 3 124 3 q 275 0 196 0 l 1118 8 m 1118 231 q 1224 235 1136 231 l 1225 235 q 1254 215 1244 235 q 1264 178 1264 196 q 1232 132 1264 132 l 1117 133 l 274 125 q 161 121 186 125 l 160 121 q 133 142 142 121 q 124 183 124 164 q 154 225 124 225 q 275 222 196 222 l 1118 231 "},"䷶":{"ha":1389,"x_min":124,"x_max":1264,"o":"m 1118 897 q 1224 901 1136 897 l 1225 901 q 1254 882 1244 901 q 1264 844 1264 863 q 1232 799 1264 799 l 1117 800 l 885 797 q 772 793 797 797 l 771 793 q 744 815 753 793 q 735 856 735 836 q 765 897 735 897 q 886 894 807 894 l 1118 897 m 507 892 q 613 896 525 892 l 614 896 q 643 876 633 896 q 653 839 653 857 q 621 793 653 793 l 506 794 l 274 792 q 161 788 186 792 l 160 788 q 133 809 142 788 q 124 850 124 831 q 154 892 124 892 q 275 889 196 889 l 507 892 m 1118 1119 q 1224 1124 1136 1119 l 1225 1124 q 1254 1104 1244 1124 q 1264 1067 1264 1085 q 1232 1021 1264 1021 l 1117 1022 l 885 1019 q 772 1015 797 1019 l 771 1015 q 744 1037 753 1015 q 735 1078 735 1058 q 765 1119 735 1119 q 886 1117 807 1117 l 1118 1119 m 507 1114 q 613 1118 525 1114 l 614 1118 q 643 1099 633 1118 q 653 1061 653 1079 q 621 1015 653 1015 l 506 1017 l 274 1014 q 161 1010 186 1014 l 160 1010 q 133 1031 142 1010 q 124 1072 124 1053 q 154 1114 124 1114 q 275 1111 196 1111 l 507 1114 m 1118 675 q 1224 679 1136 675 l 1225 679 q 1254 660 1244 679 q 1264 622 1264 640 q 1232 576 1264 576 l 1117 578 l 274 569 q 161 565 186 569 l 160 565 q 133 587 142 565 q 124 628 124 608 q 154 669 124 669 q 275 667 196 667 l 1118 675 m 1118 453 q 1224 457 1136 453 l 1225 457 q 1254 438 1244 457 q 1264 400 1264 418 q 1232 354 1264 354 l 1117 356 l 274 347 q 161 343 186 347 l 160 343 q 133 365 142 343 q 124 406 124 386 q 154 447 124 447 q 275 444 196 444 l 1118 453 m 1118 8 q 1224 13 1136 8 l 1225 13 q 1254 -7 1244 13 q 1264 -44 1264 -26 q 1232 -90 1264 -90 l 1117 -89 l 274 -97 q 161 -101 186 -97 l 160 -101 q 133 -80 142 -101 q 124 -39 124 -58 q 154 3 124 3 q 275 0 196 0 l 1118 8 m 1118 231 q 1224 235 1136 231 l 1225 235 q 1254 215 1244 235 q 1264 178 1264 196 q 1232 132 1264 132 l 1117 133 l 885 131 q 772 126 797 131 l 771 126 q 744 148 753 126 q 735 189 735 169 q 765 231 735 231 q 886 228 807 228 l 1118 231 m 507 225 q 613 229 525 225 l 614 229 q 643 210 633 229 q 653 172 653 190 q 621 126 653 126 l 506 128 l 274 125 q 161 121 186 125 l 160 121 q 133 142 142 121 q 124 183 124 164 q 154 225 124 225 q 275 222 196 222 l 507 225 "},"䷷":{"ha":1389,"x_min":124,"x_max":1264,"o":"m 1118 1119 q 1224 1124 1136 1119 l 1225 1124 q 1254 1104 1244 1124 q 1264 1067 1264 1085 q 1232 1021 1264 1021 l 1117 1022 l 274 1014 q 161 1010 186 1014 l 160 1010 q 133 1031 142 1010 q 124 1072 124 1053 q 154 1114 124 1114 q 275 1111 196 1111 l 1118 1119 m 1118 675 q 1224 679 1136 675 l 1225 679 q 1254 660 1244 679 q 1264 622 1264 640 q 1232 576 1264 576 l 1117 578 l 274 569 q 161 565 186 569 l 160 565 q 133 587 142 565 q 124 628 124 608 q 154 669 124 669 q 275 667 196 667 l 1118 675 m 1118 897 q 1224 901 1136 897 l 1225 901 q 1254 882 1244 901 q 1264 844 1264 863 q 1232 799 1264 799 l 1117 800 l 885 797 q 772 793 797 797 l 771 793 q 744 815 753 793 q 735 856 735 836 q 765 897 735 897 q 886 894 807 894 l 1118 897 m 507 892 q 613 896 525 892 l 614 896 q 643 876 633 896 q 653 839 653 857 q 621 793 653 793 l 506 794 l 274 792 q 161 788 186 792 l 160 788 q 133 809 142 788 q 124 850 124 831 q 154 892 124 892 q 275 889 196 889 l 507 892 m 1118 231 q 1224 235 1136 231 l 1225 235 q 1254 215 1244 235 q 1264 178 1264 196 q 1232 132 1264 132 l 1117 133 l 885 131 q 772 126 797 131 l 771 126 q 744 148 753 126 q 735 189 735 169 q 765 231 735 231 q 886 228 807 228 l 1118 231 m 507 225 q 613 229 525 225 l 614 229 q 643 210 633 229 q 653 172 653 190 q 621 126 653 126 l 506 128 l 274 125 q 161 121 186 125 l 160 121 q 133 142 142 121 q 124 183 124 164 q 154 225 124 225 q 275 222 196 222 l 507 225 m 1118 8 q 1224 13 1136 8 l 1225 13 q 1254 -7 1244 13 q 1264 -44 1264 -26 q 1232 -90 1264 -90 l 1117 -89 l 885 -92 q 772 -96 797 -92 l 771 -96 q 744 -74 753 -96 q 735 -33 735 -53 q 765 8 735 8 q 886 6 807 6 l 1118 8 m 507 3 q 613 7 525 3 l 614 7 q 643 -12 633 7 q 653 -50 653 -32 q 621 -96 653 -96 l 506 -94 l 274 -97 q 161 -101 186 -97 l 160 -101 q 133 -80 142 -101 q 124 -39 124 -58 q 154 3 124 3 q 275 0 196 0 l 507 3 m 1118 453 q 1224 457 1136 453 l 1225 457 q 1254 438 1244 457 q 1264 400 1264 418 q 1232 354 1264 354 l 1117 356 l 274 347 q 161 343 186 347 l 160 343 q 133 365 142 343 q 124 406 124 386 q 154 447 124 447 q 275 444 196 444 l 1118 453 "},"䷸":{"ha":1389,"x_min":124,"x_max":1264,"o":"m 1118 897 q 1224 901 1136 897 l 1225 901 q 1254 882 1244 901 q 1264 844 1264 863 q 1232 799 1264 799 l 1117 800 l 274 792 q 161 788 186 792 l 160 788 q 133 809 142 788 q 124 850 124 831 q 154 892 124 892 q 275 889 196 889 l 1118 897 m 1118 1119 q 1224 1124 1136 1119 l 1225 1124 q 1254 1104 1244 1124 q 1264 1067 1264 1085 q 1232 1021 1264 1021 l 1117 1022 l 274 1014 q 161 1010 186 1014 l 160 1010 q 133 1031 142 1010 q 124 1072 124 1053 q 154 1114 124 1114 q 275 1111 196 1111 l 1118 1119 m 1118 675 q 1224 679 1136 675 l 1225 679 q 1254 660 1244 679 q 1264 622 1264 640 q 1232 576 1264 576 l 1117 578 l 885 575 q 772 571 797 575 l 771 571 q 744 592 753 571 q 735 633 735 614 q 765 675 735 675 q 886 672 807 672 l 1118 675 m 507 669 q 613 674 525 669 l 614 674 q 643 654 633 674 q 653 617 653 635 q 621 571 653 571 l 506 572 l 274 569 q 161 565 186 569 l 160 565 q 133 587 142 565 q 124 628 124 608 q 154 669 124 669 q 275 667 196 667 l 507 669 m 1118 231 q 1224 235 1136 231 l 1225 235 q 1254 215 1244 235 q 1264 178 1264 196 q 1232 132 1264 132 l 1117 133 l 274 125 q 161 121 186 125 l 160 121 q 133 142 142 121 q 124 183 124 164 q 154 225 124 225 q 275 222 196 222 l 1118 231 m 1118 453 q 1224 457 1136 453 l 1225 457 q 1254 438 1244 457 q 1264 400 1264 418 q 1232 354 1264 354 l 1117 356 l 274 347 q 161 343 186 347 l 160 343 q 133 365 142 343 q 124 406 124 386 q 154 447 124 447 q 275 444 196 444 l 1118 453 m 1118 8 q 1224 13 1136 8 l 1225 13 q 1254 -7 1244 13 q 1264 -44 1264 -26 q 1232 -90 1264 -90 l 1117 -89 l 885 -92 q 772 -96 797 -92 l 771 -96 q 744 -74 753 -96 q 735 -33 735 -53 q 765 8 735 8 q 886 6 807 6 l 1118 8 m 507 3 q 613 7 525 3 l 614 7 q 643 -12 633 7 q 653 -50 653 -32 q 621 -96 653 -96 l 506 -94 l 274 -97 q 161 -101 186 -97 l 160 -101 q 133 -80 142 -101 q 124 -39 124 -58 q 154 3 124 3 q 275 0 196 0 l 507 3 "},"䷹":{"ha":1389,"x_min":124,"x_max":1264,"o":"m 1118 1119 q 1224 1124 1136 1119 l 1225 1124 q 1254 1104 1244 1124 q 1264 1067 1264 1085 q 1232 1021 1264 1021 l 1117 1022 l 885 1019 q 772 1015 797 1019 l 771 1015 q 744 1037 753 1015 q 735 1078 735 1058 q 765 1119 735 1119 q 886 1117 807 1117 l 1118 1119 m 507 1114 q 613 1118 525 1114 l 614 1118 q 643 1099 633 1118 q 653 1061 653 1079 q 621 1015 653 1015 l 506 1017 l 274 1014 q 161 1010 186 1014 l 160 1010 q 133 1031 142 1010 q 124 1072 124 1053 q 154 1114 124 1114 q 275 1111 196 1111 l 507 1114 m 1118 675 q 1224 679 1136 675 l 1225 679 q 1254 660 1244 679 q 1264 622 1264 640 q 1232 576 1264 576 l 1117 578 l 274 569 q 161 565 186 569 l 160 565 q 133 587 142 565 q 124 628 124 608 q 154 669 124 669 q 275 667 196 667 l 1118 675 m 1118 897 q 1224 901 1136 897 l 1225 901 q 1254 882 1244 901 q 1264 844 1264 863 q 1232 799 1264 799 l 1117 800 l 274 792 q 161 788 186 792 l 160 788 q 133 809 142 788 q 124 850 124 831 q 154 892 124 892 q 275 889 196 889 l 1118 897 m 1118 453 q 1224 457 1136 453 l 1225 457 q 1254 438 1244 457 q 1264 400 1264 418 q 1232 354 1264 354 l 1117 356 l 885 353 q 772 349 797 353 l 771 349 q 744 370 753 349 q 735 411 735 392 q 765 453 735 453 q 886 450 807 450 l 1118 453 m 507 447 q 613 451 525 447 l 614 451 q 643 432 633 451 q 653 394 653 413 q 621 349 653 349 l 506 350 l 274 347 q 161 343 186 347 l 160 343 q 133 365 142 343 q 124 406 124 386 q 154 447 124 447 q 275 444 196 444 l 507 447 m 1118 8 q 1224 13 1136 8 l 1225 13 q 1254 -7 1244 13 q 1264 -44 1264 -26 q 1232 -90 1264 -90 l 1117 -89 l 274 -97 q 161 -101 186 -97 l 160 -101 q 133 -80 142 -101 q 124 -39 124 -58 q 154 3 124 3 q 275 0 196 0 l 1118 8 m 1118 231 q 1224 235 1136 231 l 1225 235 q 1254 215 1244 235 q 1264 178 1264 196 q 1232 132 1264 132 l 1117 133 l 274 125 q 161 121 186 125 l 160 121 q 133 142 142 121 q 124 183 124 164 q 154 225 124 225 q 275 222 196 222 l 1118 231 "},"䷺":{"ha":1389,"x_min":124,"x_max":1264,"o":"m 1118 897 q 1224 901 1136 897 l 1225 901 q 1254 882 1244 901 q 1264 844 1264 863 q 1232 799 1264 799 l 1117 800 l 274 792 q 161 788 186 792 l 160 788 q 133 809 142 788 q 124 850 124 831 q 154 892 124 892 q 275 889 196 889 l 1118 897 m 1118 1119 q 1224 1124 1136 1119 l 1225 1124 q 1254 1104 1244 1124 q 1264 1067 1264 1085 q 1232 1021 1264 1021 l 1117 1022 l 274 1014 q 161 1010 186 1014 l 160 1010 q 133 1031 142 1010 q 124 1072 124 1053 q 154 1114 124 1114 q 275 1111 196 1111 l 1118 1119 m 1118 675 q 1224 679 1136 675 l 1225 679 q 1254 660 1244 679 q 1264 622 1264 640 q 1232 576 1264 576 l 1117 578 l 885 575 q 772 571 797 575 l 771 571 q 744 592 753 571 q 735 633 735 614 q 765 675 735 675 q 886 672 807 672 l 1118 675 m 507 669 q 613 674 525 669 l 614 674 q 643 654 633 674 q 653 617 653 635 q 621 571 653 571 l 506 572 l 274 569 q 161 565 186 569 l 160 565 q 133 587 142 565 q 124 628 124 608 q 154 669 124 669 q 275 667 196 667 l 507 669 m 1118 231 q 1224 235 1136 231 l 1225 235 q 1254 215 1244 235 q 1264 178 1264 196 q 1232 132 1264 132 l 1117 133 l 274 125 q 161 121 186 125 l 160 121 q 133 142 142 121 q 124 183 124 164 q 154 225 124 225 q 275 222 196 222 l 1118 231 m 1118 453 q 1224 457 1136 453 l 1225 457 q 1254 438 1244 457 q 1264 400 1264 418 q 1232 354 1264 354 l 1117 356 l 885 353 q 772 349 797 353 l 771 349 q 744 370 753 349 q 735 411 735 392 q 765 453 735 453 q 886 450 807 450 l 1118 453 m 507 447 q 613 451 525 447 l 614 451 q 643 432 633 451 q 653 394 653 413 q 621 349 653 349 l 506 350 l 274 347 q 161 343 186 347 l 160 343 q 133 365 142 343 q 124 406 124 386 q 154 447 124 447 q 275 444 196 444 l 507 447 m 1118 8 q 1224 13 1136 8 l 1225 13 q 1254 -7 1244 13 q 1264 -44 1264 -26 q 1232 -90 1264 -90 l 1117 -89 l 885 -92 q 772 -96 797 -92 l 771 -96 q 744 -74 753 -96 q 735 -33 735 -53 q 765 8 735 8 q 886 6 807 6 l 1118 8 m 507 3 q 613 7 525 3 l 614 7 q 643 -12 633 7 q 653 -50 653 -32 q 621 -96 653 -96 l 506 -94 l 274 -97 q 161 -101 186 -97 l 160 -101 q 133 -80 142 -101 q 124 -39 124 -58 q 154 3 124 3 q 275 0 196 0 l 507 3 "},"䷻":{"ha":1389,"x_min":124,"x_max":1264,"o":"m 1118 897 q 1224 901 1136 897 l 1225 901 q 1254 882 1244 901 q 1264 844 1264 863 q 1232 799 1264 799 l 1117 800 l 274 792 q 161 788 186 792 l 160 788 q 133 809 142 788 q 124 850 124 831 q 154 892 124 892 q 275 889 196 889 l 1118 897 m 1118 1119 q 1224 1124 1136 1119 l 1225 1124 q 1254 1104 1244 1124 q 1264 1067 1264 1085 q 1232 1021 1264 1021 l 1117 1022 l 885 1019 q 772 1015 797 1019 l 771 1015 q 744 1037 753 1015 q 735 1078 735 1058 q 765 1119 735 1119 q 886 1117 807 1117 l 1118 1119 m 507 1114 q 613 1118 525 1114 l 614 1118 q 643 1099 633 1118 q 653 1061 653 1079 q 621 1015 653 1015 l 506 1017 l 274 1014 q 161 1010 186 1014 l 160 1010 q 133 1031 142 1010 q 124 1072 124 1053 q 154 1114 124 1114 q 275 1111 196 1111 l 507 1114 m 1118 675 q 1224 679 1136 675 l 1225 679 q 1254 660 1244 679 q 1264 622 1264 640 q 1232 576 1264 576 l 1117 578 l 885 575 q 772 571 797 575 l 771 571 q 744 592 753 571 q 735 633 735 614 q 765 675 735 675 q 886 672 807 672 l 1118 675 m 507 669 q 613 674 525 669 l 614 674 q 643 654 633 674 q 653 617 653 635 q 621 571 653 571 l 506 572 l 274 569 q 161 565 186 569 l 160 565 q 133 587 142 565 q 124 628 124 608 q 154 669 124 669 q 275 667 196 667 l 507 669 m 1118 453 q 1224 457 1136 453 l 1225 457 q 1254 438 1244 457 q 1264 400 1264 418 q 1232 354 1264 354 l 1117 356 l 885 353 q 772 349 797 353 l 771 349 q 744 370 753 349 q 735 411 735 392 q 765 453 735 453 q 886 450 807 450 l 1118 453 m 507 447 q 613 451 525 447 l 614 451 q 643 432 633 451 q 653 394 653 413 q 621 349 653 349 l 506 350 l 274 347 q 161 343 186 347 l 160 343 q 133 365 142 343 q 124 406 124 386 q 154 447 124 447 q 275 444 196 444 l 507 447 m 1118 8 q 1224 13 1136 8 l 1225 13 q 1254 -7 1244 13 q 1264 -44 1264 -26 q 1232 -90 1264 -90 l 1117 -89 l 274 -97 q 161 -101 186 -97 l 160 -101 q 133 -80 142 -101 q 124 -39 124 -58 q 154 3 124 3 q 275 0 196 0 l 1118 8 m 1118 231 q 1224 235 1136 231 l 1225 235 q 1254 215 1244 235 q 1264 178 1264 196 q 1232 132 1264 132 l 1117 133 l 274 125 q 161 121 186 125 l 160 121 q 133 142 142 121 q 124 183 124 164 q 154 225 124 225 q 275 222 196 222 l 1118 231 "},"䷼":{"ha":1389,"x_min":124,"x_max":1264,"o":"m 1118 897 q 1224 901 1136 897 l 1225 901 q 1254 882 1244 901 q 1264 844 1264 863 q 1232 799 1264 799 l 1117 800 l 274 792 q 161 788 186 792 l 160 788 q 133 809 142 788 q 124 850 124 831 q 154 892 124 892 q 275 889 196 889 l 1118 897 m 1118 1119 q 1224 1124 1136 1119 l 1225 1124 q 1254 1104 1244 1124 q 1264 1067 1264 1085 q 1232 1021 1264 1021 l 1117 1022 l 274 1014 q 161 1010 186 1014 l 160 1010 q 133 1031 142 1010 q 124 1072 124 1053 q 154 1114 124 1114 q 275 1111 196 1111 l 1118 1119 m 1118 675 q 1224 679 1136 675 l 1225 679 q 1254 660 1244 679 q 1264 622 1264 640 q 1232 576 1264 576 l 1117 578 l 885 575 q 772 571 797 575 l 771 571 q 744 592 753 571 q 735 633 735 614 q 765 675 735 675 q 886 672 807 672 l 1118 675 m 507 669 q 613 674 525 669 l 614 674 q 643 654 633 674 q 653 617 653 635 q 621 571 653 571 l 506 572 l 274 569 q 161 565 186 569 l 160 565 q 133 587 142 565 q 124 628 124 608 q 154 669 124 669 q 275 667 196 667 l 507 669 m 1118 453 q 1224 457 1136 453 l 1225 457 q 1254 438 1244 457 q 1264 400 1264 418 q 1232 354 1264 354 l 1117 356 l 885 353 q 772 349 797 353 l 771 349 q 744 370 753 349 q 735 411 735 392 q 765 453 735 453 q 886 450 807 450 l 1118 453 m 507 447 q 613 451 525 447 l 614 451 q 643 432 633 451 q 653 394 653 413 q 621 349 653 349 l 506 350 l 274 347 q 161 343 186 347 l 160 343 q 133 365 142 343 q 124 406 124 386 q 154 447 124 447 q 275 444 196 444 l 507 447 m 1118 8 q 1224 13 1136 8 l 1225 13 q 1254 -7 1244 13 q 1264 -44 1264 -26 q 1232 -90 1264 -90 l 1117 -89 l 274 -97 q 161 -101 186 -97 l 160 -101 q 133 -80 142 -101 q 124 -39 124 -58 q 154 3 124 3 q 275 0 196 0 l 1118 8 m 1118 231 q 1224 235 1136 231 l 1225 235 q 1254 215 1244 235 q 1264 178 1264 196 q 1232 132 1264 132 l 1117 133 l 274 125 q 161 121 186 125 l 160 121 q 133 142 142 121 q 124 183 124 164 q 154 225 124 225 q 275 222 196 222 l 1118 231 "},"䷽":{"ha":1389,"x_min":124,"x_max":1264,"o":"m 1118 897 q 1224 901 1136 897 l 1225 901 q 1254 882 1244 901 q 1264 844 1264 863 q 1232 799 1264 799 l 1117 800 l 885 797 q 772 793 797 797 l 771 793 q 744 815 753 793 q 735 856 735 836 q 765 897 735 897 q 886 894 807 894 l 1118 897 m 507 892 q 613 896 525 892 l 614 896 q 643 876 633 896 q 653 839 653 857 q 621 793 653 793 l 506 794 l 274 792 q 161 788 186 792 l 160 788 q 133 809 142 788 q 124 850 124 831 q 154 892 124 892 q 275 889 196 889 l 507 892 m 1118 1119 q 1224 1124 1136 1119 l 1225 1124 q 1254 1104 1244 1124 q 1264 1067 1264 1085 q 1232 1021 1264 1021 l 1117 1022 l 885 1019 q 772 1015 797 1019 l 771 1015 q 744 1037 753 1015 q 735 1078 735 1058 q 765 1119 735 1119 q 886 1117 807 1117 l 1118 1119 m 507 1114 q 613 1118 525 1114 l 614 1118 q 643 1099 633 1118 q 653 1061 653 1079 q 621 1015 653 1015 l 506 1017 l 274 1014 q 161 1010 186 1014 l 160 1010 q 133 1031 142 1010 q 124 1072 124 1053 q 154 1114 124 1114 q 275 1111 196 1111 l 507 1114 m 1118 675 q 1224 679 1136 675 l 1225 679 q 1254 660 1244 679 q 1264 622 1264 640 q 1232 576 1264 576 l 1117 578 l 274 569 q 161 565 186 569 l 160 565 q 133 587 142 565 q 124 628 124 608 q 154 669 124 669 q 275 667 196 667 l 1118 675 m 1118 231 q 1224 235 1136 231 l 1225 235 q 1254 215 1244 235 q 1264 178 1264 196 q 1232 132 1264 132 l 1117 133 l 885 131 q 772 126 797 131 l 771 126 q 744 148 753 126 q 735 189 735 169 q 765 231 735 231 q 886 228 807 228 l 1118 231 m 507 225 q 613 229 525 225 l 614 229 q 643 210 633 229 q 653 172 653 190 q 621 126 653 126 l 506 128 l 274 125 q 161 121 186 125 l 160 121 q 133 142 142 121 q 124 183 124 164 q 154 225 124 225 q 275 222 196 222 l 507 225 m 1118 8 q 1224 13 1136 8 l 1225 13 q 1254 -7 1244 13 q 1264 -44 1264 -26 q 1232 -90 1264 -90 l 1117 -89 l 885 -92 q 772 -96 797 -92 l 771 -96 q 744 -74 753 -96 q 735 -33 735 -53 q 765 8 735 8 q 886 6 807 6 l 1118 8 m 507 3 q 613 7 525 3 l 614 7 q 643 -12 633 7 q 653 -50 653 -32 q 621 -96 653 -96 l 506 -94 l 274 -97 q 161 -101 186 -97 l 160 -101 q 133 -80 142 -101 q 124 -39 124 -58 q 154 3 124 3 q 275 0 196 0 l 507 3 m 1118 453 q 1224 457 1136 453 l 1225 457 q 1254 438 1244 457 q 1264 400 1264 418 q 1232 354 1264 354 l 1117 356 l 274 347 q 161 343 186 347 l 160 343 q 133 365 142 343 q 124 406 124 386 q 154 447 124 447 q 275 444 196 444 l 1118 453 "},"䷾":{"ha":1389,"x_min":124,"x_max":1264,"o":"m 1118 897 q 1224 901 1136 897 l 1225 901 q 1254 882 1244 901 q 1264 844 1264 863 q 1232 799 1264 799 l 1117 800 l 274 792 q 161 788 186 792 l 160 788 q 133 809 142 788 q 124 850 124 831 q 154 892 124 892 q 275 889 196 889 l 1118 897 m 1118 1119 q 1224 1124 1136 1119 l 1225 1124 q 1254 1104 1244 1124 q 1264 1067 1264 1085 q 1232 1021 1264 1021 l 1117 1022 l 885 1019 q 772 1015 797 1019 l 771 1015 q 744 1037 753 1015 q 735 1078 735 1058 q 765 1119 735 1119 q 886 1117 807 1117 l 1118 1119 m 507 1114 q 613 1118 525 1114 l 614 1118 q 643 1099 633 1118 q 653 1061 653 1079 q 621 1015 653 1015 l 506 1017 l 274 1014 q 161 1010 186 1014 l 160 1010 q 133 1031 142 1010 q 124 1072 124 1053 q 154 1114 124 1114 q 275 1111 196 1111 l 507 1114 m 1118 675 q 1224 679 1136 675 l 1225 679 q 1254 660 1244 679 q 1264 622 1264 640 q 1232 576 1264 576 l 1117 578 l 885 575 q 772 571 797 575 l 771 571 q 744 592 753 571 q 735 633 735 614 q 765 675 735 675 q 886 672 807 672 l 1118 675 m 507 669 q 613 674 525 669 l 614 674 q 643 654 633 674 q 653 617 653 635 q 621 571 653 571 l 506 572 l 274 569 q 161 565 186 569 l 160 565 q 133 587 142 565 q 124 628 124 608 q 154 669 124 669 q 275 667 196 667 l 507 669 m 1118 453 q 1224 457 1136 453 l 1225 457 q 1254 438 1244 457 q 1264 400 1264 418 q 1232 354 1264 354 l 1117 356 l 274 347 q 161 343 186 347 l 160 343 q 133 365 142 343 q 124 406 124 386 q 154 447 124 447 q 275 444 196 444 l 1118 453 m 1118 8 q 1224 13 1136 8 l 1225 13 q 1254 -7 1244 13 q 1264 -44 1264 -26 q 1232 -90 1264 -90 l 1117 -89 l 274 -97 q 161 -101 186 -97 l 160 -101 q 133 -80 142 -101 q 124 -39 124 -58 q 154 3 124 3 q 275 0 196 0 l 1118 8 m 1118 231 q 1224 235 1136 231 l 1225 235 q 1254 215 1244 235 q 1264 178 1264 196 q 1232 132 1264 132 l 1117 133 l 885 131 q 772 126 797 131 l 771 126 q 744 148 753 126 q 735 189 735 169 q 765 231 735 231 q 886 228 807 228 l 1118 231 m 507 225 q 613 229 525 225 l 614 229 q 643 210 633 229 q 653 172 653 190 q 621 126 653 126 l 506 128 l 274 125 q 161 121 186 125 l 160 121 q 133 142 142 121 q 124 183 124 164 q 154 225 124 225 q 275 222 196 222 l 507 225 "},"䷿":{"ha":1389,"x_min":124,"x_max":1264,"o":"m 1118 1119 q 1224 1124 1136 1119 l 1225 1124 q 1254 1104 1244 1124 q 1264 1067 1264 1085 q 1232 1021 1264 1021 l 1117 1022 l 274 1014 q 161 1010 186 1014 l 160 1010 q 133 1031 142 1010 q 124 1072 124 1053 q 154 1114 124 1114 q 275 1111 196 1111 l 1118 1119 m 1118 675 q 1224 679 1136 675 l 1225 679 q 1254 660 1244 679 q 1264 622 1264 640 q 1232 576 1264 576 l 1117 578 l 274 569 q 161 565 186 569 l 160 565 q 133 587 142 565 q 124 628 124 608 q 154 669 124 669 q 275 667 196 667 l 1118 675 m 1118 897 q 1224 901 1136 897 l 1225 901 q 1254 882 1244 901 q 1264 844 1264 863 q 1232 799 1264 799 l 1117 800 l 885 797 q 772 793 797 797 l 771 793 q 744 815 753 793 q 735 856 735 836 q 765 897 735 897 q 886 894 807 894 l 1118 897 m 507 892 q 613 896 525 892 l 614 896 q 643 876 633 896 q 653 839 653 857 q 621 793 653 793 l 506 794 l 274 792 q 161 788 186 792 l 160 788 q 133 809 142 788 q 124 850 124 831 q 154 892 124 892 q 275 889 196 889 l 507 892 m 1118 231 q 1224 235 1136 231 l 1225 235 q 1254 215 1244 235 q 1264 178 1264 196 q 1232 132 1264 132 l 1117 133 l 274 125 q 161 121 186 125 l 160 121 q 133 142 142 121 q 124 183 124 164 q 154 225 124 225 q 275 222 196 222 l 1118 231 m 1118 453 q 1224 457 1136 453 l 1225 457 q 1254 438 1244 457 q 1264 400 1264 418 q 1232 354 1264 354 l 1117 356 l 885 353 q 772 349 797 353 l 771 349 q 744 370 753 349 q 735 411 735 392 q 765 453 735 453 q 886 450 807 450 l 1118 453 m 507 447 q 613 451 525 447 l 614 451 q 643 432 633 451 q 653 394 653 413 q 621 349 653 349 l 506 350 l 274 347 q 161 343 186 347 l 160 343 q 133 365 142 343 q 124 406 124 386 q 154 447 124 447 q 275 444 196 444 l 507 447 m 1118 8 q 1224 13 1136 8 l 1225 13 q 1254 -7 1244 13 q 1264 -44 1264 -26 q 1232 -90 1264 -90 l 1117 -89 l 885 -92 q 772 -96 797 -92 l 771 -96 q 744 -74 753 -96 q 735 -33 735 -53 q 765 8 735 8 q 886 6 807 6 l 1118 8 m 507 3 q 613 7 525 3 l 614 7 q 643 -12 633 7 q 653 -50 653 -32 q 621 -96 653 -96 l 506 -94 l 274 -97 q 161 -101 186 -97 l 160 -101 q 133 -80 142 -101 q 124 -39 124 -58 q 154 3 124 3 q 275 0 196 0 l 507 3 "}}}
